<svg width="90" height="18" viewBox="0 0 90 18" fill="none" xmlns="http://www.w3.org/2000/svg">
<path fill-rule="evenodd" clip-rule="evenodd" d="M78.3441 11.2838C76.248 11.4219 71.9145 11.4588 70.1184 12.1471C69.3999 12.4225 69.0408 12.8269 69.0408 13.3608C69.0408 15.9313 77.2625 15.2921 78.3441 11.2838ZM24.9098 17.1828V17.4899H20.9939V17.1828V0.525391H24.9098C24.9098 3.64307 24.9098 6.47964 24.9098 9.59747L31.6396 3.82623L31.6964 3.77499H36.5265C33.9563 5.8784 31.3597 8.00869 28.7793 10.1207C31.6531 12.5802 34.5274 15.0313 37.4003 17.4899H32.223C29.7966 15.3344 27.3426 13.5446 24.9098 11.3835C24.9098 13.4397 24.9098 15.1267 24.9098 17.1828ZM5.37046 7.51072C4.38056 8.27844 3.88562 9.26784 3.88562 10.4789C3.88562 11.69 4.38056 12.6794 5.37046 13.4471C6.36032 14.2146 7.70512 14.5984 9.40454 14.5984C11.1039 14.5984 12.4487 14.2146 13.4386 13.4471C14.4285 12.6794 14.9234 11.69 14.9234 10.4789C14.9234 9.26784 14.4285 8.27844 13.4386 7.51072C12.4487 6.74318 11.1039 6.35938 9.40454 6.35938C7.70512 6.35938 6.36032 6.74318 5.37046 7.51072ZM2.54519 15.6348C0.845769 14.398 -0.00390625 12.6794 -0.00390625 10.4789C-0.00390625 8.27844 0.845769 6.5597 2.54519 5.32299C4.24477 4.08628 6.53117 3.46795 9.40454 3.46795C12.2603 3.46795 14.5379 4.08628 16.2375 5.32299C17.9369 6.5597 18.7867 8.27844 18.7867 10.4789C18.7867 12.6794 17.9369 14.398 16.2375 15.6348C14.5379 16.8715 12.2603 17.4899 9.40454 17.4899C6.53117 17.4899 4.24477 16.8715 2.54519 15.6348ZM41.7365 0.525391H41.4999V3.77499H37.4791C37.4791 4.73026 37.4791 5.68556 37.4791 6.64068H41.4999V9.17397V13.6225C41.4999 15.7527 43.2843 17.4899 45.472 17.4899H50.0412V14.189H45.4158V9.17397V6.64068H49.0557H49.8967H50.0412V3.77499H49.8967H49.0557H48.2147C46.9125 3.77499 45.8008 4.60956 45.4158 5.75651V3.77499V2.61773V0.525391H43.5762H41.7365ZM55.2823 0.525391H55.0459V3.77499H51.0249C51.0249 4.73026 51.0249 5.68556 51.0249 6.64068H55.0459V9.17397V13.6225C55.0459 15.7527 56.8302 17.4899 59.018 17.4899H63.587V14.189H58.9616V9.17397V6.64068H62.6015H63.4425H63.587V3.77499H63.4425H62.6015H61.7607C60.4583 3.77499 59.3467 4.60956 58.9616 5.75651V3.77499V2.61773V0.525391H57.122H55.2823ZM82.2598 9.73229V14.2617H83.9775V17.4899H81.7592C79.9764 17.4899 78.6332 16.138 78.6332 14.4119C75.6399 18.6873 65.1513 18.7044 65.1513 13.561C65.1513 12.2598 65.7951 11.2963 67.0829 10.6707C69.7781 9.36123 75.1769 9.37125 78.3441 9.18185V8.95654C78.3441 5.39518 70.7994 5.64202 69.8555 8.13076H66.1762C66.958 2.27506 82.2598 1.43955 82.2598 9.73229Z" fill="#1A1D23"/>
<path fill-rule="evenodd" clip-rule="evenodd" d="M86.6055 14.1895H89.9957V17.4903H86.6055V14.1895Z" fill="#1A1D23"/>
</svg>
