<svg width="90" height="18" viewBox="0 0 90 18" fill="none" xmlns="http://www.w3.org/2000/svg">
<path fill-rule="evenodd" clip-rule="evenodd" d="M78.348 11.2838C76.252 11.4219 71.9184 11.4588 70.1223 12.1471C69.4038 12.4225 69.0447 12.8269 69.0447 13.3608C69.0447 15.9313 77.2664 15.2921 78.348 11.2838ZM24.9137 17.1828V17.4899H20.9978V17.1828V0.525391H24.9137C24.9137 3.64307 24.9137 6.47964 24.9137 9.59747L31.6435 3.82623L31.7003 3.77499H36.5304C33.9602 5.8784 31.3636 8.00869 28.7832 10.1207C31.657 12.5802 34.5313 15.0313 37.4042 17.4899H32.2269C29.8005 15.3344 27.3465 13.5446 24.9137 11.3835C24.9137 13.4397 24.9137 15.1267 24.9137 17.1828ZM5.37436 7.51072C4.38446 8.27844 3.88953 9.26784 3.88953 10.4789C3.88953 11.69 4.38446 12.6794 5.37436 13.4471C6.36423 14.2146 7.70902 14.5984 9.40845 14.5984C11.1078 14.5984 12.4526 14.2146 13.4425 13.4471C14.4324 12.6794 14.9273 11.69 14.9273 10.4789C14.9273 9.26784 14.4324 8.27844 13.4425 7.51072C12.4526 6.74318 11.1078 6.35938 9.40845 6.35938C7.70902 6.35938 6.36423 6.74318 5.37436 7.51072ZM2.5491 15.6348C0.849675 14.398 0 12.6794 0 10.4789C0 8.27844 0.849675 6.5597 2.5491 5.32299C4.24867 4.08628 6.53507 3.46795 9.40845 3.46795C12.2642 3.46795 14.5419 4.08628 16.2414 5.32299C17.9409 6.5597 18.7906 8.27844 18.7906 10.4789C18.7906 12.6794 17.9409 14.398 16.2414 15.6348C14.5419 16.8715 12.2642 17.4899 9.40845 17.4899C6.53507 17.4899 4.24867 16.8715 2.5491 15.6348ZM41.7404 0.525391H41.5039V3.77499H37.483C37.483 4.73026 37.483 5.68556 37.483 6.64068H41.5039V9.17397V13.6225C41.5039 15.7527 43.2882 17.4899 45.476 17.4899H50.0451V14.189H45.4197V9.17397V6.64068H49.0596H49.9006H50.0451V3.77499H49.9006H49.0596H48.2186C46.9164 3.77499 45.8047 4.60956 45.4197 5.75651V3.77499V2.61773V0.525391H43.5801H41.7404ZM55.2862 0.525391H55.0498V3.77499H51.0288C51.0288 4.73026 51.0288 5.68556 51.0288 6.64068H55.0498V9.17397V13.6225C55.0498 15.7527 56.8341 17.4899 59.0219 17.4899H63.5909V14.189H58.9655V9.17397V6.64068H62.6054H63.4464H63.5909V3.77499H63.4464H62.6054H61.7646C60.4622 3.77499 59.3507 4.60956 58.9655 5.75651V3.77499V2.61773V0.525391H57.1259H55.2862ZM82.2638 9.73229V14.2617H83.9814V17.4899H81.7631C79.9803 17.4899 78.6371 16.138 78.6371 14.4119C75.6438 18.6873 65.1552 18.7044 65.1552 13.561C65.1552 12.2598 65.799 11.2963 67.0868 10.6707C69.782 9.36123 75.1808 9.37125 78.348 9.18185V8.95654C78.348 5.39518 70.8033 5.64202 69.8594 8.13076H66.1801C66.9619 2.27506 82.2638 1.43955 82.2638 9.73229Z" fill="white"/>
<path fill-rule="evenodd" clip-rule="evenodd" d="M86.6094 14.1895H89.9996V17.4903H86.6094V14.1895Z" fill="white"/>
</svg>
