<svg width="380" height="260" viewBox="0 0 380 260" fill="none" xmlns="http://www.w3.org/2000/svg">
<g clip-path="url(#clip0_1116_19645)">
<rect width="380" height="260" rx="21" fill="#7341FE"/>
<path d="M122.213 31.3285H129.254V38.2729H122.213V31.3285Z" fill="white"/>
<path d="M127.242 24.3841H134.283V31.3285H127.242V24.3841Z" fill="white"/>
<path d="M134.283 24.3841H141.325V31.3285H134.283V24.3841Z" fill="white"/>
<path d="M141.325 24.3841H148.366V31.3285H141.325V24.3841Z" fill="white"/>
<path d="M142.331 31.3285H149.372V38.2729H142.331V31.3285Z" fill="white"/>
<path d="M145.348 38.2729H152.389V45.2174H145.348V38.2729Z" fill="white"/>
<path d="M143.839 45.2174H150.881V52.1618H143.839V45.2174Z" fill="white"/>
<path d="M142.331 52.1618H149.372V59.1063H142.331V52.1618Z" fill="white"/>
<path d="M135.289 59.1063H142.331V66.0507H135.289V59.1063Z" fill="white"/>
<path d="M128.248 66.0507L135.289 66.0507V72.9952H128.248V66.0507Z" fill="white"/>
<path d="M121.207 66.0507H128.248V72.9952H121.207V66.0507Z" fill="white"/>
<path d="M114.165 66.0507H121.207V72.9952H114.165V66.0507Z" fill="white"/>
<path d="M112.154 59.1063H119.195V66.0507H112.154V59.1063Z" fill="white"/>
<path d="M109.639 52.1618H116.68V59.1063H109.639V52.1618Z" fill="white"/>
<path d="M111.148 45.2174H118.189V52.1618H111.148V45.2174Z" fill="white"/>
<path d="M115.674 38.2729H122.716V45.2174H115.674V38.2729Z" fill="white"/>
<path d="M29.5654 31.3285H36.6265V38.2729H29.5654V31.3285Z" fill="white"/>
<path d="M31.5829 24.3841H38.6439V31.3285H31.5829V24.3841Z" fill="white"/>
<path d="M38.6439 24.3841H45.705V31.3285H38.6439V24.3841Z" fill="white"/>
<path d="M45.705 24.3841H52.7661V31.3285H45.705V24.3841Z" fill="white"/>
<path d="M52.7661 24.3841H59.8271V31.3285H52.7661V24.3841Z" fill="white"/>
<path d="M59.8271 24.3841H66.8882V31.3285H59.8271V24.3841Z" fill="white"/>
<path d="M28.0523 38.2729H35.1134V45.2174H28.0523V38.2729Z" fill="white"/>
<path d="M26.5393 45.2174H33.6003V52.1618H26.5393V45.2174Z" fill="white"/>
<path d="M25.0262 52.1618H32.0872V59.1063H25.0262V52.1618Z" fill="white"/>
<path d="M32.0872 52.1618H39.1483V59.1063H32.0872V52.1618Z" fill="white"/>
<path d="M39.1483 52.1618H46.2094V59.1063H39.1483V52.1618Z" fill="white"/>
<path d="M46.2094 52.1618H53.2704V59.1063H46.2094V52.1618Z" fill="white"/>
<path d="M23.5131 59.1063H30.5741V66.0507H23.5131V59.1063Z" fill="white"/>
<path d="M22 66.0507H29.0611V72.9952H22V66.0507Z" fill="white"/>
<path d="M67.4183 25.1111C68.4671 25.1562 69.8123 25.2013 71.454 25.2464C73.1412 25.2915 74.8056 25.314 76.4472 25.314C78.6361 25.314 80.7109 25.2915 82.6717 25.2464C84.6782 25.2013 86.0918 25.1787 86.9126 25.1787C90.7887 25.1787 94.0035 25.6747 96.5571 26.6667C99.1564 27.6586 101.072 29.0564 102.303 30.8599C103.58 32.6184 104.218 34.6473 104.218 36.9469C104.218 38.3446 103.922 39.8325 103.329 41.4106C102.782 42.9436 101.801 44.3865 100.388 45.7391C98.974 47.0467 97.0588 48.1288 94.6419 48.9855C92.2251 49.8422 89.147 50.2705 85.4078 50.2705H78.8413V48.9179H84.7238C87.779 48.9179 90.1046 48.4219 91.7007 47.43C93.3423 46.3929 94.4367 45.0403 94.9839 43.372C95.5767 41.6586 95.8731 39.7649 95.8731 37.6908C95.8731 34.1288 95.0979 31.3784 93.5475 29.4396C91.9971 27.4557 89.3066 26.4638 85.4762 26.4638C83.5153 26.4638 82.2157 26.847 81.5773 27.6135C80.9845 28.38 80.6881 29.9356 80.6881 32.2802V65.8261C80.6881 67.4493 80.8249 68.6667 81.0985 69.4783C81.3721 70.2899 81.8965 70.8309 82.6717 71.1015C83.4469 71.372 84.587 71.5523 86.0918 71.6425V72.9952C84.9974 72.905 83.6065 72.8599 81.9193 72.8599C80.2777 72.8148 78.5905 72.7923 76.8576 72.7923C74.9424 72.7923 73.1412 72.8148 71.454 72.8599C69.8123 72.8599 68.4671 72.905 67.4183 72.9952V71.6425C68.9687 71.5523 70.1315 71.372 70.9067 71.1015C71.682 70.8309 72.1836 70.2899 72.4116 69.4783C72.6852 68.6667 72.822 67.4493 72.822 65.8261V32.2802C72.822 30.6119 72.6852 29.3945 72.4116 28.628C72.1836 27.8164 71.6592 27.2754 70.8383 27.0048C70.0631 26.6892 68.9231 26.5089 67.4183 26.4638V25.1111ZM78.9781 49.1208C81.3037 49.211 83.1733 49.3237 84.587 49.4589C86.0006 49.5491 87.1862 49.6393 88.1438 49.7295C89.1014 49.8196 89.9906 49.9324 90.8115 50.0676C94.2315 50.5185 96.7167 51.4203 98.2672 52.7729C99.8632 54.1256 100.958 56.1997 101.55 58.9952L103.26 65.8937C103.671 67.8325 104.104 69.2077 104.56 70.0193C105.062 70.8309 105.791 71.2367 106.749 71.2367C107.479 71.1916 108.071 70.9887 108.527 70.628C109.029 70.2222 109.553 69.6812 110.101 69.0048L111.058 69.7488C110.009 71.1465 108.915 72.2061 107.775 72.9275C106.635 73.6039 105.107 73.942 103.192 73.942C101.231 73.942 99.544 73.4461 98.1304 72.4541C96.7623 71.4171 95.7819 69.4783 95.1891 66.6377L93.8211 59.8744C93.4107 57.9356 92.9547 56.2673 92.4531 54.8696C91.9515 53.4267 91.2447 52.2995 90.3326 51.4879C89.4662 50.6763 88.1894 50.2705 86.5022 50.2705H79.1149L78.9781 49.1208Z" fill="white"/>
<path d="M198.765 25.1111V26.4638C197.215 26.5539 196.052 26.8245 195.277 27.2754C194.502 27.7262 193.977 28.4702 193.704 29.5072C193.476 30.4992 193.362 31.9195 193.362 33.7681V73.2657C192.997 73.2657 192.632 73.2657 192.267 73.2657C191.902 73.2657 191.515 73.2657 191.104 73.2657L162.102 31.6039V64.0676C162.102 65.9613 162.239 67.4493 162.513 68.5314C162.786 69.5684 163.379 70.3124 164.291 70.7633C165.203 71.2142 166.594 71.5072 168.464 71.6425V72.9952C167.597 72.905 166.48 72.8599 165.112 72.8599C163.79 72.8148 162.536 72.7923 161.35 72.7923C160.21 72.7923 159.07 72.8148 157.93 72.8599C156.79 72.8599 155.855 72.905 155.126 72.9952V71.6425C156.63 71.5072 157.77 71.2367 158.546 70.8309C159.321 70.38 159.845 69.6361 160.119 68.599C160.392 67.562 160.529 66.1417 160.529 64.3382V32.2802C160.529 30.6119 160.392 29.3945 160.119 28.628C159.845 27.8164 159.321 27.2754 158.546 27.0048C157.77 26.6892 156.63 26.5089 155.126 26.4638V25.1111C155.855 25.1562 156.79 25.2013 157.93 25.2464C159.07 25.2915 160.21 25.314 161.35 25.314C162.353 25.314 163.334 25.2915 164.291 25.2464C165.249 25.2013 166.092 25.1562 166.822 25.1111L191.788 60.4155V34.0386C191.788 32.0998 191.629 30.6119 191.31 29.5749C191.036 28.5378 190.443 27.7939 189.531 27.343C188.619 26.847 187.251 26.5539 185.427 26.4638V25.1111C186.248 25.1562 187.342 25.2013 188.71 25.2464C190.078 25.2915 191.355 25.314 192.541 25.314C193.681 25.314 194.821 25.2915 195.961 25.2464C197.101 25.2013 198.036 25.1562 198.765 25.1111Z" fill="white"/>
<path d="M200.198 25.6522H234.74V31.6039H220.581V72.9952H214.288V31.6039H200.198V25.6522Z" fill="white"/>
<path d="M271.474 25.1111C271.292 26.8245 271.155 28.4928 271.064 30.1159C271.018 31.694 270.995 32.9114 270.995 33.7681C270.995 34.6248 271.018 35.4364 271.064 36.2029C271.109 36.9694 271.155 37.6006 271.201 38.0966H269.627C269.308 35.2109 268.806 32.934 268.122 31.2657C267.484 29.5974 266.504 28.4251 265.181 27.7488C263.904 27.0274 262.103 26.6667 259.778 26.6667H255.058C253.599 26.6667 252.481 26.8019 251.706 27.0725C250.977 27.2979 250.475 27.7939 250.201 28.5604C249.928 29.2818 249.791 30.4316 249.791 32.0097V66.0966C249.791 67.6296 249.928 68.7794 250.201 69.5459C250.475 70.3124 250.977 70.8309 251.706 71.1015C252.481 71.3269 253.599 71.4396 255.058 71.4396H259.504C262.103 71.4396 264.155 71.0338 265.66 70.2222C267.21 69.4106 268.373 68.0805 269.148 66.2319C269.969 64.3833 270.585 61.8583 270.995 58.657H272.569C272.432 59.9646 272.363 61.6779 272.363 63.7971C272.363 64.6989 272.386 66.0064 272.432 67.7198C272.523 69.4332 272.66 71.1916 272.842 72.9952C270.517 72.905 267.894 72.8599 264.976 72.8599C262.058 72.8148 259.458 72.7923 257.178 72.7923C256.129 72.7923 254.784 72.7923 253.143 72.7923C251.501 72.7923 249.723 72.8148 247.807 72.8599C245.938 72.8599 244.022 72.8825 242.062 72.9275C240.146 72.9275 238.3 72.9501 236.521 72.9952V71.6425C238.072 71.5523 239.234 71.372 240.01 71.1015C240.785 70.8309 241.286 70.2899 241.514 69.4783C241.788 68.6667 241.925 67.4493 241.925 65.8261V32.2802C241.925 30.6119 241.788 29.3945 241.514 28.628C241.286 27.8164 240.762 27.2754 239.941 27.0048C239.166 26.6892 238.026 26.5089 236.521 26.4638V25.1111C238.3 25.1562 240.146 25.2013 242.062 25.2464C244.022 25.2464 245.938 25.2689 247.807 25.314C249.723 25.314 251.501 25.314 253.143 25.314C254.784 25.314 256.129 25.314 257.178 25.314C259.276 25.314 261.647 25.314 264.292 25.314C266.982 25.2689 269.376 25.2013 271.474 25.1111ZM260.12 48.2415C260.12 48.2415 260.12 48.467 260.12 48.9179C260.12 49.3688 260.12 49.5942 260.12 49.5942H247.739C247.739 49.5942 247.739 49.3688 247.739 48.9179C247.739 48.467 247.739 48.2415 247.739 48.2415H260.12ZM262.103 39.314C261.921 41.8841 261.83 43.8454 261.83 45.1981C261.875 46.5507 261.898 47.7907 261.898 48.9179C261.898 50.0451 261.921 51.285 261.966 52.6377C262.012 53.9903 262.126 55.9517 262.308 58.5217H260.735C260.507 57.0338 260.211 55.6135 259.846 54.2609C259.481 52.8631 258.82 51.7359 257.862 50.8792C256.95 50.0225 255.514 49.5942 253.553 49.5942V48.2415C255.012 48.2415 256.152 47.9485 256.973 47.3623C257.84 46.7762 258.501 46.0097 258.957 45.0628C259.413 44.1159 259.732 43.1465 259.914 42.1546C260.142 41.1176 260.348 40.1707 260.53 39.314H262.103Z" fill="white"/>
<path d="M308.766 73.3333L292.349 31.1304C292.349 31.1304 292.281 31.1981 292.144 31.3333C292.053 31.4235 291.939 31.5588 291.802 31.7391C291.665 31.8744 291.528 32.0097 291.392 32.1449C291.3 32.2351 291.255 32.2802 291.255 32.2802C291.62 30.6119 291.734 29.3945 291.597 28.628C291.506 27.8164 291.05 27.2754 290.229 27.0048C289.454 26.6892 288.177 26.5089 286.398 26.4638L286.74 25.1111C287.47 25.1562 288.359 25.2013 289.408 25.2464C290.502 25.2915 291.642 25.314 292.828 25.314C294.971 25.314 296.818 25.2464 298.369 25.1111L311.912 61.43C311.912 61.43 311.866 61.723 311.775 62.3092C311.684 62.8502 311.57 63.5717 311.433 64.4734C311.342 65.3752 311.228 66.3446 311.091 67.3816C310.954 68.4187 310.818 69.3881 310.681 70.2899C310.59 71.1465 310.498 71.868 310.407 72.4541C310.316 73.0403 310.27 73.3333 310.27 73.3333H308.766ZM329.628 23.3527C328.397 23.3977 327.325 23.7359 326.413 24.3671C325.501 24.9984 324.703 25.8325 324.019 26.8696C321.921 29.9356 319.778 35.3237 317.589 43.0338C315.4 50.744 312.961 60.8438 310.27 73.3333L309.313 71.4396C309.997 68.4187 310.726 65.1723 311.502 61.7005C312.277 58.1836 313.098 54.6667 313.964 51.1498C314.876 47.6328 315.788 44.2738 316.7 41.0725C317.658 37.8712 318.638 35.008 319.641 32.4831C320.69 29.913 321.739 27.8615 322.788 26.3285C323.654 25.1111 324.68 24.0966 325.866 23.285C327.051 22.4283 328.488 22 330.175 22C331.908 22 333.139 22.4283 333.869 23.285C334.644 24.0966 335.032 25.066 335.032 26.1932C335.032 27.5459 334.598 28.7858 333.732 29.913C332.911 30.9952 331.771 31.5362 330.312 31.5362C329.126 31.5362 328.26 31.2206 327.713 30.5894C327.211 29.913 326.96 29.1916 326.96 28.4251C326.96 27.3881 327.279 26.4412 327.918 25.5845C328.556 24.6828 329.309 23.9839 330.175 23.4879C330.084 23.4428 329.993 23.4203 329.901 23.4203C329.856 23.3752 329.765 23.3527 329.628 23.3527ZM274.291 76.6473C275.523 76.6023 276.617 76.2641 277.575 75.6329C278.532 75.0016 279.353 74.1449 280.037 73.0628C281.359 70.9887 282.682 67.7424 284.004 63.3237C285.372 58.905 286.74 53.562 288.108 47.2947C289.522 41.0274 290.936 34.1514 292.349 26.6667L293.512 28.087C292.782 31.7842 292.007 35.5491 291.186 39.3816C290.411 43.1691 289.613 46.8889 288.792 50.5411C287.972 54.1481 287.128 57.5072 286.262 60.6184C285.395 63.7295 284.529 66.4348 283.662 68.7343C282.796 70.9887 281.952 72.657 281.131 73.7391C280.311 74.8213 279.33 75.7907 278.19 76.6473C277.096 77.5491 275.637 78 273.813 78C272.034 78 270.78 77.5717 270.051 76.715C269.275 75.9034 268.888 74.9114 268.888 73.7391C268.888 72.3865 269.321 71.1691 270.187 70.087C271.054 69.0048 272.217 68.4638 273.676 68.4638C274.907 68.4638 275.751 68.8019 276.207 69.4783C276.708 70.1095 276.959 70.8084 276.959 71.5749C276.959 72.6119 276.64 73.5588 276.001 74.4155C275.409 75.3172 274.679 76.0161 273.813 76.5121C273.858 76.5572 273.927 76.5797 274.018 76.5797C274.109 76.6248 274.2 76.6473 274.291 76.6473Z" fill="white"/>
<path d="M348.034 25.1111C356.47 25.1111 362.74 27.1401 366.844 31.1981C370.948 35.2109 373 40.9823 373 48.5121C373 53.4267 371.997 57.7327 369.99 61.43C367.984 65.0821 365.065 67.9227 361.235 69.9517C357.45 71.9807 352.844 72.9952 347.418 72.9952C346.734 72.9952 345.799 72.9726 344.614 72.9275C343.474 72.8825 342.288 72.8599 341.057 72.8599C339.825 72.8148 338.708 72.7923 337.705 72.7923C335.972 72.7923 334.262 72.8148 332.575 72.8599C330.933 72.8599 329.588 72.905 328.539 72.9952V71.6425C330.09 71.5523 331.253 71.372 332.028 71.1015C332.803 70.8309 333.305 70.2899 333.533 69.4783C333.806 68.6667 333.943 67.4493 333.943 65.8261V32.2802C333.943 30.6119 333.806 29.3945 333.533 28.628C333.305 27.8164 332.78 27.2754 331.959 27.0048C331.184 26.6892 330.044 26.5089 328.539 26.4638V25.1111C329.588 25.1562 330.933 25.2238 332.575 25.314C334.262 25.3591 335.927 25.3591 337.568 25.314C339.21 25.2689 341.034 25.2238 343.04 25.1787C345.092 25.1337 346.757 25.1111 348.034 25.1111ZM346.871 26.3285C344.773 26.3285 343.405 26.7118 342.767 27.4783C342.128 28.2448 341.809 29.8003 341.809 32.1449V65.9613C341.809 68.306 342.128 69.8615 342.767 70.628C343.451 71.3945 344.842 71.7778 346.939 71.7778C351.545 71.7778 355.125 70.8986 357.678 69.1401C360.232 67.3366 362.033 64.7214 363.082 61.2947C364.131 57.868 364.655 53.6973 364.655 48.7826C364.655 43.7327 364.085 39.562 362.945 36.2705C361.805 32.934 359.935 30.4541 357.336 28.8309C354.783 27.1626 351.294 26.3285 346.871 26.3285Z" fill="white"/>
<rect x="102.23" y="226.586" width="19.1538" height="19.0977" fill="#EFEFEF"/>
<rect x="121.385" y="207.488" width="19.1538" height="19.0977" fill="#EFEFEF"/>
<rect x="140.538" y="226.586" width="19.1538" height="19.0977" fill="#EFEFEF"/>
<rect x="102.23" y="245.684" width="19.1538" height="19.0977" fill="#EFEFEF"/>
<rect x="159.692" y="245.685" width="19.1538" height="19.0977" fill="#EFEFEF"/>
<rect x="25.6152" y="226.587" width="19.1538" height="19.0977" fill="#EFEFEF"/>
<rect x="44.7695" y="245.684" width="19.1538" height="19.0977" fill="#EFEFEF"/>
<rect x="-12.6924" y="245.685" width="19.1538" height="19.0977" fill="#EFEFEF"/>
<rect x="83.0771" y="226.587" width="19.1538" height="19.0977" fill="#EFEFEF"/>
<rect x="63.9229" y="226.587" width="19.1538" height="19.0977" fill="#EFEFEF"/>
<rect x="63.9229" y="207.488" width="19.1538" height="19.0977" fill="#EFEFEF"/>
<rect x="44.7695" y="207.488" width="19.1538" height="19.0977" fill="#EFEFEF"/>
<rect x="25.6152" y="188.391" width="19.1538" height="19.0977" fill="#EFEFEF"/>
<rect x="25.6152" y="169.293" width="19.1538" height="19.0977" fill="#EFEFEF"/>
<rect x="25.6152" y="150.195" width="19.1538" height="19.0977" fill="#EFEFEF"/>
<rect x="25.6152" y="131.098" width="19.1538" height="19.0977" fill="#EFEFEF"/>
<rect x="6.46191" y="112" width="19.1538" height="19.0977" fill="#EFEFEF"/>
<rect x="143.846" y="69.5996" width="4.26923" height="42.9333" fill="white"/>
<rect x="147.167" y="72.4004" width="3.79487" height="39.2" fill="white"/>
<rect x="150.962" y="75.2002" width="2.84615" height="33.6" fill="white"/>
<rect x="153.808" y="78" width="2.84615" height="28" fill="white"/>
<rect x="156.654" y="80.7998" width="2.84615" height="25.2" fill="white"/>
<rect x="159.5" y="83.5996" width="2.84615" height="28" fill="white"/>
<rect x="162.346" y="86.4004" width="2.84615" height="30.8" fill="white"/>
<rect x="165" y="111" width="3" height="7" fill="white"/>
<rect x="165.192" y="89.2002" width="2.84615" height="11.6667" fill="white"/>
<rect x="168.038" y="92" width="2.84615" height="8.86667" fill="white"/>
<rect x="170.885" y="94.7998" width="2.84615" height="6.06667" fill="white"/>
<rect x="172.308" y="97.5996" width="2.84615" height="3.26667" fill="white"/>
<rect x="141" y="64" width="2.84615" height="50.4" fill="#1C1C1C"/>
<rect x="143.846" y="66.7998" width="2.84615" height="2.8" fill="#1C1C1C"/>
<rect x="141" y="64" width="2.84615" height="2.8" fill="#1C1C1C"/>
<rect x="146.692" y="69.5996" width="2.84615" height="2.8" fill="#1C1C1C"/>
<rect x="149.538" y="72.4004" width="2.84615" height="2.8" fill="#1C1C1C"/>
<rect x="152.385" y="75.2002" width="2.84615" height="2.8" fill="#1C1C1C"/>
<rect x="155.23" y="78" width="2.84615" height="2.8" fill="#1C1C1C"/>
<rect x="158.077" y="80.7998" width="2.84615" height="2.8" fill="#1C1C1C"/>
<rect x="160.923" y="83.5996" width="2.84615" height="2.8" fill="#1C1C1C"/>
<rect x="163.77" y="86.4004" width="2.84615" height="2.8" fill="#1C1C1C"/>
<rect x="166.615" y="89.2002" width="2.84615" height="2.8" fill="#1C1C1C"/>
<rect x="169.462" y="92" width="2.84615" height="2.8" fill="#1C1C1C"/>
<rect x="172.308" y="94.7998" width="2.84615" height="2.8" fill="#1C1C1C"/>
<rect x="175.154" y="97.5996" width="2.84615" height="2.8" fill="#1C1C1C"/>
<rect x="162.346" y="103.2" width="2.84615" height="2.8" fill="#1C1C1C"/>
<rect x="165.192" y="106" width="2.84615" height="2.8" fill="#1C1C1C"/>
<rect x="165.192" y="108.8" width="2.84615" height="2.8" fill="#1C1C1C"/>
<rect x="168.038" y="111.6" width="2.84615" height="2.8" fill="#1C1C1C"/>
<rect x="168.038" y="114.4" width="2.84615" height="2.8" fill="#1C1C1C"/>
<rect x="165.192" y="117.2" width="2.84615" height="2.8" fill="#1C1C1C"/>
<rect x="162.346" y="117.2" width="2.84615" height="2.8" fill="#1C1C1C"/>
<rect x="159.5" y="114.4" width="2.84615" height="2.8" fill="#1C1C1C"/>
<rect x="159.5" y="111.6" width="2.84615" height="2.8" fill="#1C1C1C"/>
<rect x="156.654" y="108.8" width="2.84615" height="2.8" fill="#1C1C1C"/>
<rect x="156.654" y="106" width="2.84615" height="2.8" fill="#1C1C1C"/>
<rect x="153.808" y="103.2" width="2.84615" height="2.8" fill="#1C1C1C"/>
<rect x="150.962" y="106" width="2.84615" height="2.8" fill="#1C1C1C"/>
<rect x="148.115" y="108.8" width="2.84615" height="2.8" fill="#1C1C1C"/>
<rect x="143.846" y="111.6" width="4.26923" height="2.8" fill="#1C1C1C"/>
<rect x="162.346" y="100.4" width="15.6538" height="2.8" fill="#1C1C1C"/>
<path d="M264.834 99.366C264.366 98.8633 263.954 98.352 263.599 97.832C263.244 97.3207 262.966 96.7617 262.767 96.155C262.576 95.5483 262.481 94.8637 262.481 94.101C262.481 93.373 262.624 92.658 262.91 91.956C263.205 91.2453 263.612 90.5607 264.132 89.902C264.661 89.2433 265.276 88.628 265.978 88.056C266.68 87.484 267.443 86.9727 268.266 86.522L268.396 86.691C267.469 87.3323 266.654 88.03 265.952 88.784C265.25 89.538 264.704 90.37 264.314 91.28C263.933 92.19 263.742 93.2083 263.742 94.335C263.742 94.9503 263.79 95.5397 263.885 96.103C263.98 96.6663 264.123 97.2037 264.314 97.715C264.513 98.2263 264.765 98.7203 265.068 99.197L264.834 99.366ZM268.15 94.088C268.592 93.932 268.995 93.7717 269.359 93.607C269.731 93.4423 270.035 93.2647 270.269 93.074C270.589 92.8053 270.841 92.489 271.023 92.125C271.213 91.7523 271.309 91.345 271.309 90.903C271.309 90.6777 271.291 90.5347 271.257 90.474C271.222 90.4047 271.17 90.37 271.101 90.37C270.893 90.37 270.667 90.4653 270.425 90.656C270.191 90.8467 269.957 91.111 269.723 91.449C269.489 91.7783 269.272 92.1553 269.073 92.58C268.882 92.996 268.726 93.4423 268.605 93.919C268.492 94.387 268.436 94.8507 268.436 95.31C268.436 95.7607 268.518 96.0813 268.683 96.272C268.856 96.4627 269.081 96.558 269.359 96.558C269.645 96.558 269.961 96.4713 270.308 96.298C270.654 96.116 270.997 95.7953 271.335 95.336L271.543 95.44C271.369 95.726 271.144 96.0033 270.867 96.272C270.589 96.5407 270.273 96.7617 269.918 96.935C269.571 97.0997 269.194 97.182 268.787 97.182C268.431 97.182 268.115 97.1127 267.838 96.974C267.56 96.8353 267.344 96.6317 267.188 96.363C267.04 96.0857 266.967 95.7477 266.967 95.349C266.967 94.9503 267.036 94.517 267.175 94.049C267.322 93.5723 267.526 93.1043 267.786 92.645C268.054 92.1857 268.371 91.7653 268.735 91.384C269.099 90.994 269.506 90.6863 269.957 90.461C270.407 90.2357 270.884 90.123 271.387 90.123C271.699 90.123 271.959 90.201 272.167 90.357C272.375 90.5043 272.479 90.7297 272.479 91.033C272.479 91.3797 272.379 91.7047 272.18 92.008C271.989 92.3027 271.729 92.5713 271.4 92.814C271.07 93.0567 270.711 93.2733 270.321 93.464C269.939 93.6547 269.554 93.8193 269.164 93.958C268.782 94.0967 268.44 94.2093 268.137 94.296L268.15 94.088ZM277.593 90.305L277.554 90.565H273.355L273.42 90.305H277.593ZM274.356 95.895C274.286 96.1637 274.304 96.3587 274.408 96.48C274.512 96.5927 274.65 96.649 274.824 96.649C275.014 96.649 275.205 96.5667 275.396 96.402C275.586 96.2287 275.768 95.8993 275.942 95.414L276.124 94.894H276.371L276.098 95.687C275.916 96.2417 275.669 96.6317 275.357 96.857C275.045 97.0737 274.681 97.182 274.265 97.182C273.892 97.182 273.606 97.104 273.407 96.948C273.216 96.7833 273.103 96.558 273.069 96.272C273.034 95.9773 273.069 95.648 273.173 95.284L275.162 88.342C275.422 88.3333 275.669 88.316 275.903 88.29C276.145 88.264 276.366 88.2207 276.566 88.16L274.356 95.895ZM281.399 90.383C281.07 90.383 280.745 90.5173 280.424 90.786C280.103 91.0547 279.813 91.423 279.553 91.891C279.293 92.359 279.085 92.8877 278.929 93.477C278.773 94.0663 278.695 94.6817 278.695 95.323C278.695 95.765 278.782 96.0857 278.955 96.285C279.128 96.4843 279.354 96.584 279.631 96.584C279.926 96.584 280.229 96.493 280.541 96.311C280.862 96.129 281.182 95.804 281.503 95.336L281.763 95.44C281.59 95.726 281.369 96.0033 281.1 96.272C280.831 96.5407 280.524 96.7617 280.177 96.935C279.839 97.0997 279.471 97.182 279.072 97.182C278.526 97.182 278.084 97.0217 277.746 96.701C277.408 96.3803 277.239 95.895 277.239 95.245C277.239 94.8377 277.3 94.4 277.421 93.932C277.542 93.464 277.716 93.0047 277.941 92.554C278.175 92.1033 278.461 91.696 278.799 91.332C279.137 90.968 279.518 90.6777 279.943 90.461C280.368 90.2357 280.831 90.123 281.334 90.123C281.741 90.123 282.084 90.227 282.361 90.435C282.647 90.643 282.79 90.9247 282.79 91.28C282.79 91.462 282.747 91.644 282.66 91.826C282.573 92.008 282.452 92.1597 282.296 92.281C282.14 92.3937 281.958 92.45 281.75 92.45C281.559 92.45 281.412 92.3937 281.308 92.281C281.204 92.1683 281.152 92.0297 281.152 91.865C281.152 91.579 281.256 91.3363 281.464 91.137C281.681 90.929 281.923 90.7947 282.192 90.734C282.114 90.63 282.01 90.5477 281.88 90.487C281.759 90.4177 281.598 90.383 281.399 90.383ZM282.782 96.48C282.782 96.194 282.89 95.9427 283.107 95.726C283.324 95.5093 283.571 95.401 283.848 95.401C284.073 95.401 284.251 95.4703 284.381 95.609C284.511 95.739 284.576 95.908 284.576 96.116C284.576 96.3067 284.524 96.4843 284.42 96.649C284.325 96.805 284.195 96.9307 284.03 97.026C283.874 97.13 283.701 97.182 283.51 97.182C283.285 97.182 283.107 97.117 282.977 96.987C282.847 96.857 282.782 96.688 282.782 96.48ZM288.253 86.522C288.721 87.016 289.133 87.523 289.488 88.043C289.843 88.563 290.116 89.1263 290.307 89.733C290.506 90.3397 290.606 91.0243 290.606 91.787C290.606 92.515 290.459 93.2343 290.164 93.945C289.878 94.647 289.471 95.3273 288.942 95.986C288.422 96.6447 287.811 97.26 287.109 97.832C286.407 98.404 285.644 98.9153 284.821 99.366L284.691 99.197C285.618 98.5557 286.433 97.858 287.135 97.104C287.837 96.35 288.379 95.518 288.76 94.608C289.15 93.6893 289.345 92.671 289.345 91.553C289.345 90.9377 289.297 90.3483 289.202 89.785C289.107 89.2217 288.959 88.6843 288.76 88.173C288.569 87.653 288.322 87.159 288.019 86.691L288.253 86.522Z" fill="white"/>
</g>
<defs>
<clipPath id="clip0_1116_19645">
<rect width="380" height="260" rx="21" fill="white"/>
</clipPath>
</defs>
</svg>
