<svg width="380" height="260" viewBox="0 0 380 260" fill="none" xmlns="http://www.w3.org/2000/svg">
<g clip-path="url(#clip0_1116_20158)">
<rect width="380" height="260" rx="21" fill="#1C1C1C"/>
<path d="M151.06 69H225.35V83.11L182 188H165.51L208.52 83.96H151.06V69Z" fill="#A8FD32"/>
<rect x="6.62643" y="209.108" width="204.822" height="47.8221" rx="23.9111" transform="rotate(-3.77414 6.62643 209.108)" fill="#1C1C1C"/>
<path d="M42.084 224.026L42.9523 237.19L41.2035 237.305L40.4443 225.796L34.389 226.196L35.1482 237.704L33.3993 237.82L32.531 224.656L42.084 224.026ZM52.9011 235.344C51.9987 236.36 50.8579 236.914 49.4789 237.005C48.0998 237.096 46.8962 236.697 45.868 235.807C44.8524 234.918 44.2986 233.777 44.2069 232.385C44.1151 230.994 44.5141 229.79 45.4041 228.774C46.3065 227.758 47.4473 227.204 48.8264 227.113C50.2054 227.022 51.409 227.421 52.4372 228.31C53.4654 229.199 54.0254 230.34 54.1172 231.731C54.209 233.123 53.8036 234.327 52.9011 235.344ZM49.3734 235.406C50.3137 235.344 51.0824 234.972 51.6796 234.291C52.2768 233.609 52.544 232.792 52.4811 231.839C52.4183 230.887 52.0461 230.112 51.3645 229.514C50.683 228.917 49.8721 228.65 48.9318 228.712C48.0041 228.773 47.2416 229.144 46.6444 229.826C46.0472 230.507 45.78 231.324 45.8429 232.277C45.9058 233.23 46.278 234.005 46.9595 234.602C47.6411 235.199 48.4457 235.467 49.3734 235.406ZM61.9979 226.49L63.3142 226.403L63.9345 235.806L62.3172 235.912L61.8818 229.312L57.1082 236.256L55.7918 236.343L55.1716 226.94L56.7888 226.833L57.2243 233.434L61.9979 226.49ZM70.296 235.631C68.8794 235.725 67.6699 235.333 66.6676 234.454C65.6645 233.564 65.1166 232.416 65.024 231.012C64.9314 229.608 65.3242 228.405 66.2024 227.402C67.0798 226.388 68.2269 225.833 69.6435 225.74C70.5712 225.679 71.4198 225.849 72.1893 226.252C72.9579 226.642 73.5488 227.201 73.962 227.929L72.6413 228.81C72.37 228.324 71.9737 227.947 71.4524 227.679C70.9436 227.411 70.3758 227.297 69.749 227.338C68.8087 227.4 68.04 227.772 67.4428 228.454C66.8581 229.134 66.5972 229.951 66.6601 230.904C66.7221 231.844 67.0876 232.613 67.7566 233.211C68.4382 233.809 69.2491 234.076 70.1893 234.014C70.8162 233.973 71.3708 233.791 71.8533 233.47C72.3349 233.136 72.6908 232.71 72.921 232.191L74.3659 232.908C74.0135 233.674 73.4761 234.307 72.7537 234.808C72.0304 235.297 71.2112 235.571 70.296 235.631ZM83.5352 234.513L81.5042 234.647L76.9226 230.473L77.2166 234.929L75.5806 235.037L74.9603 225.635L76.5964 225.527L76.8705 229.683L80.6583 225.259L82.7645 225.12L78.5703 229.967L83.5352 234.513ZM95.0049 224.312L95.1091 225.892L91.9122 226.103L92.4282 233.926L90.7922 234.034L90.2761 226.211L87.0605 226.423L86.9563 224.843L95.0049 224.312ZM103.985 231.974C103.083 232.99 101.942 233.544 100.563 233.635C99.1837 233.726 97.9801 233.327 96.9519 232.438C95.9363 231.548 95.3826 230.407 95.2908 229.015C95.199 227.624 95.598 226.42 96.488 225.405C97.3905 224.388 98.5312 223.834 99.9103 223.743C101.289 223.652 102.493 224.051 103.521 224.941C104.549 225.83 105.109 226.97 105.201 228.362C105.293 229.753 104.888 230.957 103.985 231.974ZM100.457 232.036C101.398 231.974 102.166 231.603 102.764 230.921C103.361 230.239 103.628 229.422 103.565 228.47C103.502 227.517 103.13 226.742 102.448 226.145C101.767 225.547 100.956 225.28 100.016 225.342C99.088 225.403 98.3255 225.774 97.7283 226.456C97.1311 227.137 96.864 227.955 96.9268 228.907C96.9897 229.86 97.3619 230.635 98.0434 231.232C98.725 231.83 99.5296 232.098 100.457 232.036ZM111.977 223.193L113.613 223.085L114.233 232.488L112.597 232.595L112.374 229.211C111.643 229.586 110.808 229.805 109.868 229.867C108.664 229.946 107.712 229.726 107.01 229.206C106.32 228.672 105.938 227.847 105.865 226.731L105.659 223.61L107.295 223.502L107.494 226.529C107.541 227.231 107.762 227.721 108.158 227.997C108.566 228.272 109.14 228.385 109.88 228.336C110.77 228.278 111.568 228.061 112.274 227.687L111.977 223.193ZM117.042 228.336C117.26 229.165 117.685 229.792 118.318 230.216C118.963 230.639 119.73 230.822 120.62 230.763C121.861 230.681 122.734 230.164 123.238 229.212L124.681 229.91C123.86 231.387 122.527 232.186 120.684 232.308C119.192 232.406 117.946 232.022 116.944 231.157C115.955 230.278 115.413 229.123 115.318 227.694C115.225 226.278 115.605 225.069 116.458 224.068C117.311 223.068 118.465 222.519 119.919 222.423C121.298 222.332 122.452 222.747 123.382 223.668C124.323 224.576 124.839 225.713 124.929 227.079C124.945 227.317 124.942 227.563 124.921 227.816L117.042 228.336ZM120.021 223.965C119.143 224.023 118.432 224.322 117.889 224.862C117.344 225.389 117.031 226.07 116.947 226.907L123.228 226.492C123.032 225.611 122.636 224.958 122.041 224.531C121.446 224.104 120.773 223.916 120.021 223.965ZM134.509 231.15L132.478 231.284L127.896 227.11L128.19 231.567L126.554 231.675L125.934 222.272L127.57 222.164L127.844 226.32L131.632 221.896L133.738 221.757L129.544 226.605L134.509 231.15ZM144.157 220.825C145.474 220.738 146.627 221.146 147.619 222.05C148.609 222.942 149.15 224.077 149.241 225.456C149.332 226.835 148.946 228.038 148.082 229.065C147.217 230.079 146.126 230.629 144.81 230.716C143.255 230.819 142.029 230.276 141.133 229.089L141.487 234.467L139.851 234.575L138.983 221.411L140.619 221.303L140.726 222.921C141.459 221.626 142.603 220.927 144.157 220.825ZM144.499 229.15C145.439 229.088 146.208 228.716 146.805 228.035C147.401 227.341 147.668 226.517 147.605 225.564C147.542 224.612 147.17 223.837 146.488 223.239C145.806 222.63 144.995 222.356 144.055 222.418C143.102 222.481 142.327 222.859 141.731 223.553C141.134 224.235 140.866 225.052 140.929 226.005C140.992 226.958 141.365 227.739 142.047 228.349C142.729 228.946 143.546 229.213 144.499 229.15ZM158.797 228.358C157.894 229.374 156.754 229.928 155.375 230.019C153.996 230.11 152.792 229.711 151.764 228.822C150.748 227.932 150.194 226.791 150.103 225.4C150.011 224.008 150.41 222.804 151.3 221.789C152.202 220.772 153.343 220.219 154.722 220.128C156.101 220.037 157.305 220.436 158.333 221.325C159.361 222.214 159.921 223.354 160.013 224.746C160.105 226.137 159.699 227.341 158.797 228.358ZM155.269 228.421C156.209 228.359 156.978 227.987 157.575 227.305C158.173 226.624 158.44 225.807 158.377 224.854C158.314 223.901 157.942 223.126 157.26 222.529C156.579 221.932 155.768 221.664 154.828 221.726C153.9 221.787 153.137 222.159 152.54 222.84C151.943 223.522 151.676 224.339 151.739 225.292C151.802 226.244 152.174 227.019 152.855 227.617C153.537 228.214 154.341 228.482 155.269 228.421ZM166.123 229.31C164.706 229.404 163.497 229.011 162.495 228.133C161.491 227.242 160.944 226.095 160.851 224.691C160.758 223.286 161.151 222.083 162.029 221.081C162.907 220.066 164.054 219.512 165.47 219.419C166.398 219.357 167.247 219.528 168.016 219.931C168.785 220.321 169.376 220.88 169.789 221.608L168.468 222.488C168.197 222.002 167.801 221.626 167.279 221.358C166.771 221.089 166.203 220.976 165.576 221.017C164.636 221.079 163.867 221.451 163.27 222.132C162.685 222.813 162.424 223.63 162.487 224.583C162.549 225.523 162.915 226.292 163.584 226.89C164.265 227.487 165.076 227.755 166.016 227.693C166.643 227.651 167.198 227.47 167.68 227.149C168.162 226.815 168.518 226.388 168.748 225.869L170.193 226.586C169.84 227.352 169.303 227.986 168.581 228.487C167.857 228.975 167.038 229.25 166.123 229.31ZM177.618 218.863L177.722 220.442L174.525 220.653L175.041 228.476L173.405 228.584L172.889 220.761L169.673 220.973L169.569 219.394L177.618 218.863ZM185.905 218.316L187.541 218.208L188.161 227.611L186.525 227.719L186.419 226.101C185.686 227.396 184.542 228.095 182.987 228.198C181.671 228.284 180.518 227.882 179.527 226.99C178.536 226.086 177.994 224.945 177.903 223.566C177.812 222.187 178.199 220.99 179.064 219.976C179.928 218.95 181.019 218.393 182.335 218.306C183.889 218.204 185.115 218.746 186.012 219.933L185.905 218.316ZM183.09 226.604C184.043 226.541 184.818 226.169 185.415 225.488C186.011 224.794 186.278 223.97 186.215 223.017C186.152 222.065 185.78 221.29 185.099 220.692C184.416 220.083 183.599 219.809 182.646 219.872C181.706 219.934 180.937 220.312 180.341 221.006C179.744 221.688 179.477 222.505 179.539 223.458C179.602 224.411 179.975 225.192 180.657 225.802C181.339 226.399 182.15 226.666 183.09 226.604Z" fill="white"/>
<rect x="6.62643" y="209.108" width="204.822" height="47.8221" rx="23.9111" transform="rotate(-3.77414 6.62643 209.108)" stroke="#606060" stroke-width="1.17788"/>
<rect x="220.152" y="196.703" width="83.8221" height="47.8221" rx="23.9111" transform="rotate(12.6205 220.152 196.703)" fill="#1C1C1C"/>
<path d="M252.66 221.627L249.778 234.501L248.086 234.122L250.338 224.062L244.558 230.126L244.337 230.077L241.69 222.146L239.442 232.187L237.732 231.804L240.614 218.93L242.545 219.363L245.123 227.086L250.729 221.195L252.66 221.627ZM255.344 235.747L253.629 221.844L255.468 222.256L256.797 233.832L262.916 223.924L264.774 224.34L257.275 236.18L255.344 235.747ZM270.403 225.6C271.592 225.866 272.49 226.486 273.096 227.459C273.718 228.422 273.896 229.492 273.633 230.669C273.372 231.833 272.754 232.725 271.779 233.344C270.816 233.965 269.739 234.142 268.55 233.876L265.589 233.213L264.56 237.811L262.849 237.428L265.732 224.554L270.403 225.6ZM268.908 232.276C269.619 232.435 270.262 232.328 270.834 231.954C271.41 231.568 271.779 231.013 271.941 230.29C272.106 229.554 272.009 228.895 271.65 228.313C271.291 227.73 270.756 227.359 270.045 227.2L267.084 226.537L265.947 231.613L268.908 232.276Z" fill="white"/>
<rect x="220.152" y="196.703" width="83.8221" height="47.8221" rx="23.9111" transform="rotate(12.6205 220.152 196.703)" stroke="#606060" stroke-width="1.17788"/>
<rect x="86.6047" y="150.313" width="210.822" height="47.8221" rx="23.9111" transform="rotate(-1.55147 86.6047 150.313)" fill="#1C1C1C"/>
<path d="M119.594 172.998C120.205 173.271 120.693 173.672 121.06 174.203C121.438 174.733 121.637 175.35 121.656 176.053C121.685 177.108 121.339 178.003 120.617 178.739C119.895 179.475 119.001 179.858 117.933 179.887L112.244 180.041L111.887 166.853L117.162 166.71C118.191 166.683 119.074 167.004 119.808 167.676C120.543 168.347 120.924 169.191 120.951 170.209C120.983 171.377 120.531 172.307 119.594 172.998ZM117.206 168.349L113.683 168.445L113.792 172.476L117.315 172.381C117.868 172.366 118.327 172.159 118.693 171.759C119.06 171.36 119.235 170.877 119.22 170.312C119.205 169.76 118.997 169.294 118.598 168.915C118.21 168.523 117.746 168.335 117.206 168.349ZM117.889 178.248C118.479 178.232 118.97 178.011 119.36 177.586C119.751 177.16 119.938 176.646 119.922 176.043C119.906 175.453 119.685 174.956 119.259 174.553C118.846 174.149 118.351 173.955 117.773 173.971L113.836 174.078L113.951 178.354L117.889 178.248ZM129.683 170.142L131.002 170.106L131.257 179.526L129.637 179.57L129.458 172.957L124.418 179.711L123.1 179.747L122.844 170.327L124.465 170.283L124.644 176.896L129.683 170.142ZM138.142 174.513C139.196 174.912 139.738 175.645 139.767 176.712C139.788 177.504 139.492 178.184 138.879 178.754C138.266 179.311 137.382 179.605 136.226 179.636C134.342 179.687 133.06 178.968 132.378 177.478L133.732 176.631C134.124 177.651 134.948 178.144 136.204 178.11C136.832 178.093 137.312 177.948 137.644 177.675C137.988 177.389 138.154 177.033 138.143 176.606C138.132 176.229 137.98 175.925 137.684 175.694C137.402 175.463 137.022 175.354 136.544 175.367L135.169 175.404L135.129 173.916L136.146 173.888C136.623 173.875 136.991 173.752 137.248 173.519C137.506 173.273 137.629 172.949 137.618 172.548C137.607 172.146 137.441 171.823 137.12 171.581C136.812 171.338 136.388 171.223 135.848 171.238C134.793 171.267 134.089 171.732 133.737 172.634L132.378 171.898C133.006 170.498 134.149 169.776 135.807 169.731C136.837 169.703 137.654 169.945 138.259 170.456C138.876 170.968 139.195 171.606 139.216 172.372C139.242 173.327 138.884 174.04 138.142 174.513ZM146.999 169.673L148.751 169.625L145.179 179.733C144.806 180.812 144.263 181.637 143.549 182.209C142.836 182.794 142.014 183.068 141.083 183.03L141.042 181.504C142.199 181.561 143.03 180.91 143.534 179.551L143.675 179.208L139.332 169.881L141.065 169.834L144.486 177.131L146.999 169.673ZM156.986 169.402L158.625 169.358L158.88 178.778L157.241 178.822L157.197 177.202C156.415 178.467 155.245 179.121 153.687 179.163C152.369 179.199 151.232 178.752 150.276 177.823C149.321 176.881 148.824 175.719 148.787 174.338C148.749 172.956 149.182 171.776 150.086 170.796C150.989 169.804 152.1 169.29 153.419 169.254C154.976 169.212 156.18 169.801 157.03 171.023L156.986 169.402ZM153.852 177.575C154.806 177.549 155.595 177.207 156.218 176.55C156.841 175.879 157.14 175.067 157.114 174.112C157.088 173.158 156.746 172.369 156.088 171.746C155.43 171.11 154.624 170.805 153.669 170.831C152.727 170.856 151.945 171.204 151.322 171.875C150.699 172.533 150.4 173.339 150.426 174.293C150.452 175.248 150.794 176.043 151.452 176.679C152.11 177.302 152.91 177.601 153.852 177.575ZM168.399 169.093L168.654 178.513L167.015 178.557L166.803 170.72L163.092 170.821L163.196 174.664C163.238 176.209 162.953 177.297 162.342 177.93C161.743 178.549 160.876 178.824 159.743 178.754L159.702 177.209C160.344 177.28 160.818 177.129 161.122 176.756C161.438 176.371 161.583 175.675 161.556 174.671L161.41 169.283L168.399 169.093ZM177.156 168.856L178.475 168.82L178.73 178.24L177.11 178.284L176.931 171.671L171.891 178.425L170.573 178.461L170.317 169.041L171.938 168.997L172.117 175.61L177.156 168.856ZM185.616 173.227C186.67 173.626 187.211 174.359 187.24 175.427C187.261 176.218 186.966 176.898 186.353 177.468C185.739 178.025 184.855 178.319 183.699 178.35C181.815 178.401 180.533 177.682 179.851 176.192L181.205 175.345C181.597 176.365 182.421 176.858 183.677 176.824C184.305 176.807 184.785 176.662 185.117 176.389C185.461 176.103 185.627 175.747 185.616 175.32C185.605 174.943 185.453 174.639 185.157 174.408C184.875 174.177 184.495 174.068 184.017 174.081L182.642 174.118L182.602 172.63L183.619 172.602C184.096 172.59 184.464 172.466 184.721 172.233C184.979 171.987 185.102 171.664 185.091 171.262C185.08 170.86 184.914 170.538 184.594 170.295C184.285 170.052 183.861 169.938 183.321 169.952C182.266 169.981 181.562 170.446 181.21 171.348L179.851 170.612C180.479 169.212 181.622 168.49 183.28 168.445C184.31 168.417 185.127 168.659 185.732 169.171C186.349 169.682 186.668 170.32 186.689 171.086C186.715 172.041 186.357 172.755 185.616 173.227ZM196.065 168.344L197.704 168.3L197.959 177.719L196.32 177.764L196.276 176.143C195.493 177.409 194.323 178.063 192.766 178.105C191.447 178.141 190.31 177.694 189.355 176.764C188.399 175.823 187.903 174.661 187.865 173.279C187.828 171.898 188.261 170.717 189.165 169.737C190.068 168.745 191.179 168.231 192.498 168.195C194.055 168.153 195.259 168.743 196.109 169.964L196.065 168.344ZM192.93 176.517C193.885 176.491 194.674 176.149 195.297 175.491C195.92 174.821 196.218 174.008 196.192 173.054C196.167 172.099 195.825 171.31 195.167 170.687C194.509 170.051 193.702 169.747 192.748 169.772C191.806 169.798 191.023 170.146 190.4 170.816C189.777 171.474 189.479 172.28 189.504 173.235C189.53 174.189 189.872 174.985 190.531 175.62C191.188 176.243 191.988 176.542 192.93 176.517ZM207.747 175.889L209.292 175.847L209.403 179.935L207.782 179.979L207.714 177.455L199.877 177.667L199.622 168.248L201.261 168.203L201.474 176.059L206.108 175.934L205.895 168.078L207.534 168.033L207.747 175.889ZM217.099 167.774L218.418 167.739L218.673 177.158L217.053 177.202L216.874 170.589L211.835 177.343L210.516 177.379L210.261 167.959L211.881 167.916L212.06 174.528L217.099 167.774ZM227.394 167.495L227.649 176.915L226.029 176.959L225.937 173.568L224.562 173.605L222.016 177.068L220.019 177.122L222.675 173.562C221.967 173.405 221.386 173.069 220.932 172.553C220.478 172.038 220.242 171.428 220.223 170.725C220.199 169.858 220.487 169.128 221.087 168.533C221.687 167.939 222.452 167.629 223.381 167.604L227.394 167.495ZM223.561 172.162L225.897 172.098L225.815 169.065L223.479 169.129C223.014 169.141 222.622 169.29 222.303 169.575C221.984 169.86 221.831 170.235 221.843 170.7C221.856 171.152 222.029 171.512 222.363 171.779C222.697 172.047 223.096 172.174 223.561 172.162ZM240.296 167.146L241.615 167.11L241.87 176.53L240.25 176.574L240.07 169.961L235.031 176.715L233.712 176.751L233.457 167.331L235.077 167.287L235.256 173.9L240.296 167.146ZM251.858 174.694L253.158 174.659L253.268 178.747L251.648 178.791L251.58 176.267L244.515 176.458L244.584 178.983L242.963 179.026L242.853 174.938L244.002 174.907C244.582 174.062 244.852 172.892 244.812 171.398L244.693 167.027L251.645 166.839L251.858 174.694ZM245.867 174.857L250.238 174.738L250.066 168.408L246.355 168.509L246.432 171.354C246.47 172.76 246.282 173.928 245.867 174.857ZM255.076 172.213C255.262 173.05 255.662 173.693 256.278 174.141C256.906 174.589 257.666 174.801 258.557 174.777C259.801 174.743 260.693 174.26 261.233 173.328L262.649 174.082C261.77 175.526 260.408 176.273 258.562 176.323C257.067 176.363 255.836 175.932 254.869 175.028C253.914 174.111 253.417 172.937 253.379 171.505C253.34 170.086 253.767 168.893 254.658 167.926C255.549 166.959 256.723 166.456 258.18 166.416C259.562 166.379 260.699 166.838 261.592 167.795C262.498 168.738 262.969 169.894 263.006 171.263C263.012 171.502 263 171.747 262.969 171.999L255.076 172.213ZM258.222 167.961C257.343 167.985 256.621 168.256 256.057 168.774C255.493 169.28 255.153 169.949 255.037 170.781L261.329 170.611C261.167 169.723 260.797 169.054 260.219 168.605C259.641 168.155 258.976 167.941 258.222 167.961ZM271.035 166.313L272.354 166.278L272.609 175.697L270.989 175.741L270.81 169.129L265.77 175.882L264.452 175.918L264.197 166.499L265.817 166.455L265.996 173.067L271.035 166.313Z" fill="white"/>
<rect x="86.6047" y="150.313" width="210.822" height="47.8221" rx="23.9111" transform="rotate(-1.55147 86.6047 150.313)" stroke="#606060" stroke-width="1.17788"/>
<rect x="8.45371" y="66.7155" width="158.822" height="47.8221" rx="23.9111" transform="rotate(14.2082 8.45371 66.7155)" fill="#1C1C1C"/>
<path d="M31.8252 95.7412C32.9336 96.0218 33.7758 96.6368 34.3519 97.5862C34.9311 98.5235 35.0835 99.5341 34.8091 100.618C34.5284 101.726 33.9104 102.555 32.955 103.104C32.0117 103.655 30.9798 103.789 29.8593 103.506L25.0544 102.289L28.2924 89.5005L35.9656 91.4433L35.5585 93.051L29.5844 91.5384L28.7194 94.9548L31.8252 95.7412ZM30.2617 101.916C30.8951 102.077 31.4865 101.993 32.036 101.666C32.5976 101.341 32.9617 100.85 33.1283 100.193C33.2917 99.547 33.2036 98.9479 32.864 98.3954C32.5365 97.8459 32.0561 97.491 31.4228 97.3306L28.317 96.5442L27.1559 101.13L30.2617 101.916ZM37.1147 101.26C37.0664 102.116 37.2775 102.844 37.7481 103.442C38.2308 104.044 38.9045 104.454 39.7693 104.673C40.975 104.979 41.9645 104.756 42.7377 104.006L43.8954 105.115C42.6578 106.267 41.1438 106.616 39.3534 106.162C37.904 105.795 36.8367 105.046 36.1514 103.913C35.4814 102.771 35.3222 101.506 35.6737 100.118C36.0222 98.7414 36.7566 97.7091 37.877 97.0207C38.9974 96.3323 40.2641 96.167 41.6769 96.5247C43.0167 96.8639 43.9865 97.615 44.5863 98.7778C45.2015 99.9315 45.341 101.172 45.0048 102.5C44.9462 102.731 44.8678 102.964 44.7696 103.198L37.1147 101.26ZM41.2976 98.0228C40.445 97.807 39.6769 97.8717 38.9933 98.217C38.3128 98.5502 37.8037 99.1017 37.4662 99.8717L43.5683 101.417C43.6532 100.518 43.4787 99.7739 43.0447 99.1845C42.6108 98.5951 42.0284 98.2079 41.2976 98.0228ZM53.7661 99.8383L55.3556 100.241L53.0428 109.376L51.4533 108.973L52.4201 105.155L47.6883 103.957L46.7215 107.775L45.1321 107.373L47.4449 98.2379L49.0343 98.6403L48.0722 102.44L52.804 103.638L53.7661 99.8383ZM62.9818 102.172L64.5713 102.574L62.2585 111.709L60.669 111.306L61.5016 108.018C60.6907 108.15 59.8285 108.1 58.915 107.868C57.7457 107.572 56.9077 107.069 56.401 106.357C55.9095 105.636 55.801 104.734 56.0754 103.65L56.8433 100.617L58.4327 101.02L57.688 103.961C57.5153 104.643 57.5746 105.177 57.866 105.562C58.1696 105.95 58.6807 106.234 59.3993 106.416C60.264 106.635 61.0897 106.676 61.8763 106.538L62.9818 102.172ZM75.5728 105.36L73.26 114.494L71.7071 114.101L73.3862 107.469L69.2972 111.411L69.0962 111.36L67.3755 105.947L65.6964 112.579L64.1252 112.182L66.4381 103.047L68.1371 103.477L69.8352 108.825L73.8738 104.929L75.5728 105.36ZM85.0148 107.75L86.6042 108.153L84.2914 117.287L82.7019 116.885L83.0997 115.314C82.0028 116.319 80.6991 116.631 79.1888 116.248C77.91 115.924 76.9371 115.186 76.2702 114.032C75.6063 112.866 75.444 111.613 75.7832 110.273C76.1224 108.933 76.8599 107.915 77.9955 107.217C79.1343 106.508 80.3431 106.315 81.6219 106.638C83.1322 107.021 84.1306 107.915 84.6169 109.321L85.0148 107.75ZM79.7784 114.764C80.704 114.999 81.5561 114.884 82.3345 114.42C83.116 113.944 83.624 113.243 83.8583 112.318C84.0927 111.392 83.9779 110.54 83.5141 109.761C83.0532 108.971 82.36 108.458 81.4344 108.224C80.5209 107.993 79.6734 108.115 78.8919 108.591C78.1134 109.055 77.607 109.75 77.3727 110.675C77.1383 111.601 77.2515 112.459 77.7123 113.25C78.1762 114.028 78.8649 114.533 79.7784 114.764ZM93.5668 109.663C94.8457 109.987 95.817 110.731 96.4809 111.898C97.1478 113.051 97.3117 114.298 96.9724 115.638C96.6332 116.978 95.8942 118.002 94.7555 118.712C93.6198 119.41 92.4126 119.596 91.1337 119.273C89.6234 118.89 88.6251 117.996 88.1387 116.59L86.8158 121.815L85.2263 121.412L88.4643 108.624L90.0537 109.026L89.6559 110.597C90.7529 109.592 92.0565 109.28 93.5668 109.663ZM91.3213 117.687C92.2348 117.918 93.0807 117.802 93.8592 117.338C94.6407 116.862 95.1486 116.161 95.383 115.236C95.6174 114.31 95.5026 113.458 95.0387 112.679C94.5779 111.889 93.8908 111.378 92.9773 111.147C92.0516 110.912 91.198 111.033 90.4165 111.509C89.6381 111.973 89.1317 112.668 88.8973 113.593C88.6629 114.519 88.7762 115.377 89.237 116.168C89.7009 116.946 90.3956 117.453 91.3213 117.687ZM104.893 122.503L102.919 122.004L99.8503 116.619L98.754 120.949L97.1645 120.547L99.4774 111.412L101.067 111.814L100.045 115.852L105.013 112.814L107.059 113.332L101.573 116.647L104.893 122.503ZM114.767 115.283L116.046 115.607L113.733 124.742L112.162 124.344L113.786 117.931L107.101 123.063L105.823 122.739L108.135 113.604L109.707 114.002L108.083 120.415L114.767 115.283ZM124.239 117.681L125.828 118.084L123.515 127.219L121.926 126.816L122.893 122.998L118.161 121.8L117.194 125.618L115.605 125.216L117.917 116.081L119.507 116.483L118.545 120.283L123.277 121.481L124.239 117.681ZM133.692 120.075L133.303 121.609L128.9 120.495L126.976 128.095L125.387 127.692L127.7 118.558L133.692 120.075Z" fill="white"/>
<rect x="8.45371" y="66.7155" width="158.822" height="47.8221" rx="23.9111" transform="rotate(14.2082 8.45371 66.7155)" stroke="#606060" stroke-width="1.17788"/>
<rect x="252.728" y="102.583" width="122.822" height="47.8221" rx="23.9111" transform="rotate(-16.0004 252.728 102.583)" fill="#1C1C1C"/>
<path d="M285.939 110.973C287.11 110.637 288.195 110.751 289.193 111.314C290.2 111.862 290.87 112.716 291.202 113.875C291.531 115.023 291.416 116.101 290.856 117.112C290.308 118.118 289.448 118.79 288.277 119.125L285.36 119.962L286.659 124.491L284.974 124.974L281.338 112.293L285.939 110.973ZM287.825 117.549C288.525 117.349 289.037 116.947 289.361 116.344C289.682 115.729 289.74 115.066 289.535 114.353C289.328 113.629 288.927 113.097 288.333 112.757C287.739 112.418 287.091 112.349 286.391 112.549L283.474 113.386L284.908 118.386L287.825 117.549ZM301.581 118.977C300.914 120.161 299.916 120.944 298.588 121.325C297.259 121.706 295.998 121.571 294.805 120.92C293.624 120.265 292.841 119.267 292.457 117.927C292.073 116.586 292.208 115.325 292.862 114.144C293.529 112.96 294.527 112.177 295.855 111.796C297.184 111.415 298.445 111.55 299.638 112.201C300.831 112.853 301.62 113.848 302.004 115.189C302.389 116.53 302.247 117.792 301.581 118.977ZM298.146 119.785C299.052 119.525 299.725 118.999 300.164 118.207C300.603 117.414 300.691 116.559 300.428 115.641C300.165 114.723 299.637 114.045 298.844 113.605C298.052 113.166 297.203 113.076 296.297 113.336C295.403 113.592 294.737 114.117 294.297 114.909C293.858 115.702 293.77 116.557 294.033 117.475C294.296 118.393 294.824 119.071 295.617 119.511C296.409 119.95 297.252 120.041 298.146 119.785ZM309.52 108.133L311.096 107.681L313.693 116.739L312.117 117.19L311.671 115.632C311.228 117.053 310.259 117.978 308.761 118.408C307.493 118.771 306.28 118.622 305.123 117.961C303.963 117.287 303.192 116.286 302.811 114.958C302.43 113.629 302.555 112.378 303.186 111.204C303.813 110.017 304.76 109.242 306.028 108.879C307.526 108.449 308.839 108.72 309.967 109.69L309.52 108.133ZM308.524 116.829C309.442 116.566 310.12 116.038 310.56 115.245C310.996 114.441 311.082 113.579 310.819 112.661C310.555 111.744 310.028 111.065 309.235 110.626C308.439 110.174 307.582 110.08 306.664 110.343C305.758 110.603 305.087 111.135 304.652 111.94C304.212 112.733 304.124 113.588 304.387 114.506C304.651 115.424 305.18 116.108 305.976 116.56C306.769 116.999 307.618 117.089 308.524 116.829ZM322.897 112.472L324.147 112.114L325.274 116.045L323.716 116.492L323.02 114.064L316.226 116.012L316.922 118.44L315.364 118.887L314.237 114.955L315.342 114.638C315.693 113.675 315.663 112.475 315.251 111.038L314.046 106.835L320.73 104.918L322.897 112.472ZM317.136 114.124L321.339 112.919L319.593 106.832L316.024 107.855L316.809 110.591C317.197 111.944 317.306 113.121 317.136 114.124ZM332.194 101.631L334.791 110.689L333.251 111.13L331.365 104.554L329.815 110.018L329.616 110.075L325.405 106.263L327.291 112.839L325.733 113.286L323.136 104.228L324.82 103.745L328.979 107.513L330.509 102.114L332.194 101.631ZM341.556 98.946L343.132 98.4941L345.73 107.552L344.153 108.004L343.707 106.446C343.265 107.867 342.295 108.792 340.797 109.221C339.529 109.585 338.316 109.436 337.16 108.774C335.999 108.101 335.229 107.1 334.848 105.771C334.467 104.443 334.591 103.191 335.222 102.017C335.849 100.831 336.797 100.056 338.065 99.6923C339.562 99.2629 340.875 99.5335 342.003 100.504L341.556 98.946ZM340.56 107.642C341.478 107.379 342.157 106.851 342.596 106.059C343.032 105.254 343.118 104.393 342.855 103.475C342.592 102.557 342.064 101.879 341.271 101.439C340.475 100.988 339.618 100.894 338.7 101.157C337.794 101.417 337.124 101.949 336.688 102.754C336.248 103.546 336.16 104.401 336.424 105.319C336.687 106.237 337.216 106.922 338.012 107.373C338.805 107.812 339.654 107.902 340.56 107.642ZM352.821 95.7158L355.418 104.774L353.842 105.226L351.676 97.6714L346.984 99.0169L349.15 106.571L347.574 107.023L344.977 97.9652L352.821 95.7158Z" fill="white"/>
<rect x="252.728" y="102.583" width="122.822" height="47.8221" rx="23.9111" transform="rotate(-16.0004 252.728 102.583)" stroke="#606060" stroke-width="1.17788"/>
<rect x="279.797" y="190.849" width="95.8221" height="47.8221" rx="23.9111" transform="rotate(-28.0455 279.797 190.849)" fill="#1C1C1C"/>
<path d="M323.673 201.933L321.334 199.826L316.094 202.617L316.537 205.734L314.891 206.611L313.029 192.655L314.776 191.725L325.319 201.055L323.673 201.933ZM315.856 200.887L320.03 198.663L314.878 194.041L315.856 200.887ZM326.753 189.615L328.3 188.791L329.612 199.431C329.759 200.562 329.641 201.543 329.258 202.374C328.88 203.215 328.267 203.827 327.417 204.209L326.699 202.862C327.76 202.396 328.214 201.443 328.058 200.002L328.032 199.632L319.983 193.221L321.513 192.406L327.831 197.411L326.753 189.615ZM339.336 191.816L340.484 191.204L342.407 194.814L340.977 195.576L339.789 193.347L333.552 196.67L334.739 198.899L333.309 199.661L331.386 196.051L332.4 195.511C332.543 194.495 332.263 193.328 331.56 192.008L329.504 188.149L335.641 184.88L339.336 191.816ZM334.047 194.634L337.906 192.578L334.929 186.989L331.652 188.735L332.99 191.246C333.652 192.488 334.004 193.617 334.047 194.634ZM343.888 180.487L345.052 179.867L349.482 188.183L348.052 188.945L344.942 183.107L343.445 191.4L342.28 192.02L337.85 183.703L339.28 182.941L342.391 188.779L343.888 180.487ZM352.943 175.663L353.688 177.06L350.86 178.566L354.546 185.486L353.099 186.256L349.413 179.337L346.569 180.852L345.824 179.455L352.943 175.663Z" fill="white"/>
<rect x="279.797" y="190.849" width="95.8221" height="47.8221" rx="23.9111" transform="rotate(-28.0455 279.797 190.849)" stroke="#606060" stroke-width="1.17788"/>
</g>
<defs>
<clipPath id="clip0_1116_20158">
<rect width="380" height="260" rx="21" fill="white"/>
</clipPath>
</defs>
</svg>
