<svg width="380" height="260" viewBox="0 0 380 260" fill="none" xmlns="http://www.w3.org/2000/svg">
<g clip-path="url(#clip0_1116_20060)">
<rect width="380" height="260" rx="21" fill="#E1FD32"/>
<path fill-rule="evenodd" clip-rule="evenodd" d="M199.833 86.0172C188.886 82.1417 180.469 83.4445 172.133 90.9469C168.602 94.1245 165.724 98.823 163.098 106.685C161.145 112.529 159.903 118.038 158.389 124.747C157.607 128.217 156.752 132.009 155.688 136.334C152.951 147.469 148.911 161.374 140.472 173.867C131.447 187.228 118.285 197.729 99.7687 203.475C61.3333 215.404 28.6968 203.145 5.37704 184.994C-17.1952 167.425 -32.4573 143.529 -40 126.476L7.63144 105.408C12.5668 116.567 23.102 132.791 37.3674 143.894C50.8852 154.416 66.1268 159.383 84.3314 153.733C91.4494 151.524 94.8685 148.333 97.3131 144.714C100.343 140.228 102.661 133.867 105.112 123.9C105.662 121.659 106.257 119.034 106.906 116.172C108.694 108.282 110.89 98.5895 113.698 90.1821C117.862 77.7183 124.546 63.7049 137.291 52.2342C161.507 30.4401 190.524 27.4706 217.215 36.9209C242.256 45.7867 264.851 65.1723 283.163 87.7283C295.941 103.467 306.855 107.794 317.866 108.522C331.21 109.405 347.795 105.244 372.343 96.6524L389.549 145.811C365.27 154.309 339.538 162.152 314.429 160.491C286.99 158.677 263.317 145.914 242.729 120.556C227.676 102.016 212.43 90.4772 199.833 86.0172Z" fill="white" stroke="black" stroke-width="0.911836"/>
<path d="M-13.5254 139.856C-14.6035 138.217 -14.9564 136.496 -14.5841 134.692C-14.1973 132.88 -13.1916 131.439 -11.5672 130.37C-9.94266 129.302 -8.22873 128.954 -6.42535 129.326C-4.60747 129.689 -3.15949 130.69 -2.0814 132.328C-1.3754 133.402 -1.00202 134.538 -0.961285 135.737C-0.906042 136.927 -1.17521 138.018 -1.7688 139.011L-3.72727 138.024C-3.32837 137.367 -3.14568 136.634 -3.1792 135.825C-3.20317 135.03 -3.45368 134.27 -3.93071 133.545C-4.64626 132.457 -5.61718 131.787 -6.84347 131.533C-8.06023 131.295 -9.21977 131.538 -10.3221 132.263C-11.4099 132.979 -12.0852 133.942 -12.3479 135.154C-12.601 136.38 -12.3698 137.537 -11.6543 138.625C-11.1773 139.351 -10.5811 139.894 -9.86591 140.254C-9.13618 140.605 -8.38105 140.743 -7.60052 140.665L-7.47705 142.891C-8.63811 142.99 -9.76594 142.776 -10.8605 142.249C-11.9406 141.712 -12.8289 140.915 -13.5254 139.856Z" fill="#1C1C1C"/>
<path d="M-4.66979 151.818C-5.90525 150.294 -6.42727 148.616 -6.23583 146.785C-6.03092 144.943 -5.17326 143.409 -3.66286 142.185C-2.15246 140.96 -0.481554 140.444 1.34987 140.635C3.19478 140.816 4.73496 141.668 5.97042 143.192C6.77949 144.19 7.26381 145.283 7.42338 146.472C7.59645 147.651 7.43694 148.763 6.94487 149.81L4.89807 149.023C5.22977 148.329 5.33878 147.581 5.2251 146.78C5.12236 145.991 4.79766 145.26 4.251 144.586C3.431 143.574 2.39832 143.003 1.15295 142.873C-0.0814834 142.756 -1.21116 143.114 -2.23607 143.945C-3.2475 144.765 -3.82376 145.79 -3.96487 147.022C-4.09504 148.268 -3.75013 149.396 -2.93014 150.408C-2.38347 151.082 -1.73639 151.563 -0.988886 151.851C-0.227899 152.128 0.537109 152.189 1.30614 152.035L1.6499 154.237C0.504381 154.451 -0.639121 154.35 -1.7806 153.934C-2.9086 153.508 -3.87166 152.802 -4.66979 151.818Z" fill="#1C1C1C"/>
<path d="M18.0605 156.578L8.8802 165.811L7.27354 164.214L14.9115 156.532L11.2735 152.915L7.52792 156.682C6.02235 158.196 4.66189 158.949 3.44654 158.94C2.25574 158.931 1.15528 158.327 0.145161 157.127L1.65073 155.612C2.19293 156.323 2.79541 156.653 3.45817 156.602C4.14548 156.55 4.97876 156.032 5.95798 155.048L11.2091 149.766L18.0605 156.578Z" fill="#1C1C1C"/>
<path d="M16.5255 165.152C15.996 166.212 15.8661 167.25 16.1358 168.267C16.4192 169.295 17.0497 170.184 18.0273 170.935C19.3904 171.982 20.7677 172.24 22.1593 171.711L23.0214 173.752C20.8214 174.536 18.7093 174.151 16.6853 172.597C15.0468 171.338 14.1025 169.803 13.8523 167.991C13.6265 166.176 14.1164 164.484 15.3218 162.914C16.5167 161.358 18.0133 160.45 19.8115 160.189C21.6097 159.928 23.3074 160.411 24.9046 161.638C26.4192 162.801 27.2391 164.284 27.3644 166.088C27.5139 167.888 27.0124 169.539 25.8598 171.04C25.6589 171.301 25.4321 171.554 25.1793 171.798L16.5255 165.152ZM23.604 163.331C22.6401 162.591 21.6301 162.253 20.5737 162.318C19.5279 162.368 18.5804 162.79 17.731 163.582L24.6292 168.88C25.2285 167.786 25.414 166.746 25.1857 165.761C24.9573 164.776 24.4301 163.966 23.604 163.331Z" fill="#1C1C1C"/>
<path d="M35.3703 181.3L36.9465 182.163L34.2334 187.12L32.2689 186.045L33.9442 182.984L25.3778 178.295L23.7025 181.356L21.7379 180.281L24.451 175.324L25.8444 176.087C27.1256 175.482 28.2621 174.273 29.2539 172.461L32.1546 167.161L40.5839 171.774L35.3703 181.3ZM28.106 177.324L33.4057 180.225L37.6066 172.549L33.1064 170.086L31.2185 173.536C30.285 175.242 29.2475 176.504 28.106 177.324Z" fill="#1C1C1C"/>
<path d="M49.8982 187.151C48.2169 187.988 46.469 188.109 44.6543 187.514C42.8396 186.92 41.5026 185.787 40.6433 184.117C39.8005 182.452 39.6792 180.704 40.2795 178.873C40.8798 177.042 42.0123 175.705 43.6771 174.862C45.3583 174.025 47.1063 173.903 48.921 174.498C50.7357 175.093 52.0727 176.226 52.932 177.896C53.7913 179.566 53.9208 181.317 53.3205 183.148C52.7202 184.979 51.5795 186.313 49.8982 187.151ZM45.3438 185.411C46.581 185.817 47.7583 185.737 48.8754 185.171C49.9926 184.606 50.7566 183.696 51.1676 182.442C51.5786 181.188 51.5013 180.003 50.9358 178.886C50.3702 177.769 49.4688 177.007 48.2315 176.602C47.0107 176.201 45.8417 176.284 44.7246 176.85C43.6074 177.415 42.8434 178.325 42.4324 179.579C42.0214 180.832 42.0987 182.018 42.6642 183.135C43.2298 184.252 44.123 185.011 45.3438 185.411Z" fill="#1C1C1C"/>
<path d="M64.4178 184.384C65.6737 185.104 66.2095 186.187 66.0253 187.634C65.8894 188.702 65.4159 189.534 64.6049 190.131C63.8132 190.712 62.7544 190.919 61.4283 190.75L54.9701 189.928L56.6147 177.011L62.5563 177.768C63.8479 177.932 64.8051 178.387 65.4279 179.131C66.0528 179.858 66.2984 180.747 66.1647 181.797C66.0068 183.037 65.4245 183.9 64.4178 184.384ZM62.1964 179.77L58.554 179.306L58.1231 182.69L61.7655 183.154C63.0744 183.32 63.8022 182.827 63.9492 181.673C64.0895 180.571 63.5052 179.936 62.1964 179.77ZM61.559 188.693C62.2134 188.776 62.7326 188.685 63.1165 188.418C63.5176 188.155 63.7544 187.738 63.8267 187.17C63.8947 186.636 63.7665 186.2 63.4421 185.861C63.1372 185.507 62.6575 185.289 62.003 185.205L57.8698 184.679L57.4257 188.166L61.559 188.693Z" fill="#1C1C1C"/>
<path d="M78.8466 177.611L81.1065 177.451L82.0256 190.439L79.7656 190.599L79.6076 188.365C78.6032 190.159 77.0274 191.132 74.88 191.284C73.0617 191.413 71.4652 190.864 70.0905 189.639C68.7147 188.396 67.9593 186.822 67.8246 184.917C67.6898 183.012 68.2166 181.357 69.4049 179.95C70.5921 178.526 72.0948 177.749 73.9132 177.62C76.0605 177.469 77.7577 178.21 79.0047 179.845L78.8466 177.611ZM75.0113 189.082C76.3275 188.989 77.3959 188.469 78.2166 187.524C79.0361 186.561 79.3992 185.421 79.3061 184.105C79.213 182.789 78.6936 181.72 77.7479 180.9C76.801 180.062 75.6694 179.689 74.3533 179.782C73.0545 179.874 71.9953 180.402 71.1759 181.365C70.3552 182.31 69.9914 183.441 70.0845 184.757C70.1776 186.074 70.6977 187.151 71.6446 187.989C72.5903 188.809 73.7125 189.174 75.0113 189.082Z" fill="#1C1C1C"/>
<path d="M91.3489 174.678L93.5377 174.093L96.8999 186.672L94.7112 187.257L93.3058 181.999L86.7898 183.74L88.1952 188.998L86.0065 189.583L82.6442 177.004L84.8329 176.419L86.2317 181.652L92.7476 179.911L91.3489 174.678Z" fill="#1C1C1C"/>
<path d="M103.607 169.078L105.217 168.223L111.323 179.724L109.345 180.774L105.059 172.701L102.974 184.156L101.364 185.011L95.2579 173.511L97.236 172.461L101.522 180.534L103.607 169.078Z" fill="#1C1C1C"/>
<path d="M113.653 160.169L122.736 169.5L121.131 171.062L117.861 167.703L116.499 169.029L117.156 174.931L115.178 176.856L114.542 170.752C113.676 171.256 112.771 171.459 111.827 171.36C110.883 171.261 110.072 170.864 109.394 170.167C108.558 169.309 108.167 168.297 108.219 167.131C108.272 165.965 108.758 164.935 109.679 164.039L113.653 160.169ZM114.131 168.5L116.444 166.247L113.52 163.243L111.206 165.495C110.746 165.944 110.487 166.462 110.43 167.05C110.373 167.639 110.569 168.163 111.017 168.624C111.453 169.071 111.966 169.275 112.555 169.234C113.145 169.192 113.67 168.948 114.131 168.5Z" fill="#1C1C1C"/>
<path d="M131.713 160.726L131.127 161.946L114.518 142.403L115.104 141.182L131.713 160.726Z" fill="#1C1C1C"/>
<path d="M126.462 129.353L127.044 127.163L139.628 130.504L139.047 132.694L133.786 131.297L132.056 137.816L137.316 139.213L136.735 141.402L124.15 138.061L124.731 135.871L129.967 137.261L131.697 130.743L126.462 129.353Z" fill="#1C1C1C"/>
<path d="M135.263 124.81C136.447 124.846 137.444 124.529 138.255 123.858C139.069 123.17 139.613 122.225 139.885 121.023C140.264 119.347 139.922 117.988 138.859 116.946L140.351 115.308C141.984 116.977 142.519 119.056 141.956 121.546C141.5 123.56 140.501 125.061 138.961 126.047C137.407 127.013 135.665 127.277 133.735 126.84C131.822 126.407 130.37 125.428 129.38 123.905C128.39 122.381 128.117 120.637 128.562 118.673C128.983 116.811 129.987 115.445 131.572 114.575C133.144 113.685 134.853 113.449 136.699 113.867C137.021 113.94 137.345 114.04 137.672 114.168L135.263 124.81ZM130.644 119.145C130.376 120.33 130.492 121.389 130.993 122.321C131.477 123.249 132.257 123.933 133.332 124.373L135.253 115.889C134.009 115.803 132.987 116.071 132.188 116.691C131.389 117.311 130.874 118.129 130.644 119.145Z" fill="#1C1C1C"/>
<path d="M129.513 107.515L127.602 107L129.434 100.211L131.345 100.727L129.513 107.515ZM133.305 100.959L133.78 99.1993L146.351 102.591L145.768 104.753L136.943 102.372L143.889 111.718L143.414 113.478L130.843 110.086L131.426 107.924L140.251 110.305L133.305 100.959Z" fill="#1C1C1C"/>
<path d="M139.507 84.5181L151.548 89.4722L150.706 91.5192L141.964 87.9225L146.554 94.2882L146.445 94.5531L138.704 95.8457L147.446 99.4424L146.594 101.514L134.553 96.5594L135.474 94.3197L143.123 93.0455L138.585 86.7577L139.507 84.5181Z" fill="#1C1C1C"/>
<path d="M146.74 73.8341L147.801 72.3522L158.387 79.9344L157.083 81.755L149.652 76.4324L152.882 87.6193L151.821 89.1012L141.235 81.5191L142.539 79.6984L149.97 85.0211L146.74 73.8341Z" fill="#1C1C1C"/>
<path d="M157.538 63.9937L159.301 62.5702L167.482 72.6994L165.72 74.1229L162.3 69.8889L157.053 74.127L160.473 78.361L158.711 79.7845L150.529 69.6554L152.291 68.2318L155.695 72.4455L160.942 68.2075L157.538 63.9937Z" fill="#1C1C1C"/>
<path d="M170.026 57.0273L171.005 58.9835L165.393 61.7924L170.242 71.48L168.216 72.494L162.388 60.8503L170.026 57.0273Z" fill="#1C1C1C"/>
<path d="M180.386 70.1299L179.039 70.2743L186.897 45.8599L188.244 45.7155L180.386 70.1299Z" fill="#1C1C1C"/>
<path d="M208.995 57.1907L211.183 57.7779L207.809 70.3536L205.62 69.7664L206.201 67.6034C204.665 68.9709 202.858 69.3756 200.779 68.8176C199.018 68.3451 197.689 67.3052 196.79 65.6979C195.896 64.0738 195.696 62.3396 196.191 60.4951C196.686 58.6507 197.725 57.2578 199.308 56.3164C200.895 55.3583 202.569 55.1155 204.329 55.588C206.409 56.146 207.77 57.4012 208.415 59.3537L208.995 57.1907ZM201.623 66.7792C202.897 67.1211 204.076 66.9793 205.161 66.3537C206.25 65.7112 206.966 64.7529 207.308 63.4785C207.65 62.2042 207.508 61.0247 206.882 59.9401C206.261 58.8387 205.313 58.117 204.039 57.775C202.782 57.4375 201.608 57.5899 200.519 58.2324C199.434 58.858 198.721 59.808 198.379 61.0823C198.037 62.3567 198.177 63.5446 198.798 64.646C199.423 65.7306 200.365 66.4417 201.623 66.7792Z" fill="#1C1C1C"/>
<path d="M216.996 58.3684L217.871 56.593L224.178 59.6999L223.304 61.4753L216.996 58.3684ZM222.698 63.354L224.333 64.1595L218.579 75.84L216.57 74.8504L220.609 66.6507L210.099 71.6629L208.464 70.8574L214.218 59.1769L216.227 60.1665L212.188 68.3662L222.698 63.354Z" fill="#1C1C1C"/>
<path d="M230.183 81.1251L231.666 82.1386L228.479 86.8047L226.63 85.5414L228.598 82.6601L220.534 77.1515L218.566 80.0329L216.717 78.7696L219.904 74.1035L221.216 74.9995C222.551 74.5235 223.8 73.4325 224.966 71.7266L228.374 66.738L236.308 72.1584L230.183 81.1251ZM223.345 76.4538L228.334 79.8618L233.269 72.6368L229.033 69.743L226.815 72.9899C225.718 74.5954 224.561 75.7501 223.345 76.4538Z" fill="#1C1C1C"/>
<path d="M235.6 81.2731C235.012 82.3017 234.824 83.3312 235.036 84.3618C235.261 85.4037 235.841 86.3269 236.774 87.1314C238.077 88.2532 239.437 88.5889 240.856 88.1386L241.602 90.2251C239.362 90.8842 237.275 90.3809 235.341 88.7153C233.776 87.3669 232.919 85.7811 232.771 83.9579C232.648 82.1329 233.232 80.4707 234.524 78.9712C235.804 77.4849 237.349 76.6621 239.159 76.5028C240.969 76.3434 242.637 76.921 244.163 78.2354C245.61 79.4818 246.345 81.0089 246.369 82.8167C246.417 84.6227 245.824 86.2425 244.589 87.6762C244.373 87.9261 244.133 88.1656 243.867 88.3947L235.6 81.2731ZM242.769 79.8532C241.849 79.0601 240.859 78.6659 239.801 78.6708C238.754 78.6626 237.784 79.0302 236.892 79.7736L243.481 85.4505C244.141 84.392 244.385 83.3645 244.212 82.3679C244.039 81.3713 243.559 80.5331 242.769 79.8532Z" fill="#1C1C1C"/>
<path d="M256.616 90.6749L258.198 92.2969L248.877 101.388L247.295 99.766L251.191 95.9659L246.482 91.1374L242.586 94.9375L241.004 93.3155L250.325 84.2245L251.907 85.8464L248.03 89.6283L252.739 94.4568L256.616 90.6749Z" fill="#1C1C1C"/>
<path d="M266.589 102.098L264.924 103.517L262.054 100.146L253.806 107.17L252.337 105.445L260.585 98.4214L257.697 95.0312L259.363 93.6129L266.589 102.098Z" fill="#1C1C1C"/>
<path d="M274.022 110.523L275.263 111.858L265.73 120.727L264.205 119.087L270.897 112.861L259.291 113.806L258.05 112.471L267.583 103.602L269.108 105.242L262.416 111.468L274.022 110.523Z" fill="#1C1C1C"/>
<path d="M277.072 130.222L274.892 128.445L274.188 119.91L270.289 124.695L268.533 123.264L276.758 113.17L278.514 114.601L274.879 119.062L282.875 118.154L285.136 119.997L276.33 120.95L277.072 130.222Z" fill="#1C1C1C"/>
<path d="M295.102 125.482L297.095 126.56L290.901 138.013L288.909 136.935L289.974 134.965C288.164 135.94 286.312 135.916 284.418 134.892C282.815 134.025 281.762 132.705 281.259 130.933C280.765 129.146 280.973 127.413 281.881 125.733C282.789 124.053 284.122 122.939 285.88 122.389C287.646 121.825 289.331 121.976 290.934 122.843C292.828 123.867 293.862 125.403 294.037 127.452L295.102 125.482ZM285.711 133.104C286.871 133.732 288.052 133.867 289.252 133.509C290.46 133.136 291.378 132.369 292.005 131.209C292.633 130.048 292.768 128.868 292.411 127.668C292.061 126.453 291.306 125.531 290.146 124.903C289 124.284 287.824 124.161 286.615 124.534C285.415 124.891 284.501 125.65 283.874 126.811C283.246 127.972 283.107 129.16 283.456 130.375C283.814 131.575 284.565 132.484 285.711 133.104Z" fill="#1C1C1C"/>
<path d="M301.32 144.028L299.989 143.777L314.567 122.675L315.897 122.925L301.32 144.028Z" fill="#1C1C1C"/>
<path d="M330.565 130.234L332.384 130.124L333.169 143.121L330.934 143.256L330.383 134.132L323.733 143.691L321.914 143.801L321.129 130.804L323.364 130.669L323.915 139.793L330.565 130.234Z" fill="#1C1C1C"/>
<path d="M345.187 127.83L347.529 140.638L345.301 141.046L343.352 130.389L338.306 131.312L339.261 136.538C339.645 138.639 339.487 140.185 338.786 141.178C338.099 142.151 336.975 142.71 335.413 142.854L335.029 140.754C335.921 140.714 336.536 140.407 336.872 139.834C337.223 139.24 337.273 138.261 337.023 136.894L335.683 129.568L345.187 127.83Z" fill="#1C1C1C"/>
<path d="M358.378 124.385L361.725 136.968L359.536 137.551L356.751 127.082L351.793 128.401L353.159 133.534C353.708 135.598 353.672 137.152 353.052 138.198C352.444 139.222 351.367 139.867 349.822 140.135L349.273 138.071C350.16 137.961 350.748 137.607 351.038 137.009C351.34 136.389 351.313 135.409 350.956 134.067L349.041 126.869L358.378 124.385Z" fill="#1C1C1C"/>
<path d="M371.546 119.832C373.361 119.237 375.1 119.362 376.765 120.205C378.446 121.043 379.586 122.377 380.186 124.209C380.786 126.04 380.656 127.791 379.796 129.461C378.953 131.125 377.624 132.255 375.809 132.849C374.176 133.384 372.595 133.326 371.067 132.676C369.539 132.026 368.4 130.946 367.65 129.438L365.348 130.192L367.042 135.364L364.889 136.069L360.836 123.696L362.99 122.99L364.675 128.138L366.977 127.384C366.689 125.725 366.972 124.189 367.825 122.777C368.689 121.343 369.929 120.361 371.546 119.832ZM375.12 130.745C376.341 130.346 377.235 129.587 377.8 128.47C378.366 127.353 378.444 126.168 378.033 124.914C377.623 123.66 376.859 122.75 375.742 122.184C374.625 121.618 373.456 121.535 372.235 121.935C370.997 122.341 370.096 123.102 369.53 124.219C368.964 125.336 368.887 126.521 369.297 127.775C369.708 129.029 370.472 129.939 371.589 130.505C372.706 131.07 373.883 131.151 375.12 130.745Z" fill="#1C1C1C"/>
<path fill-rule="evenodd" clip-rule="evenodd" d="M43.3756 105.724C26.1032 68.5275 29.3465 22.4898 34.6523 -12.5L89.218 -4.22569C84.052 29.8422 83.6167 61.3437 93.4317 82.4805C97.875 92.0494 104.346 99.3202 114.183 104.282C124.462 109.468 140.454 113.133 165.272 111.421C199.686 109.048 226.8 113.996 248.662 124.918C270.599 135.878 284.73 151.608 295.038 166.29C299.923 173.247 304.145 180.266 307.7 186.176L308.018 186.706C311.841 193.059 314.81 197.946 317.855 202.14C323.642 210.109 327.285 212.178 331.098 212.965C354.958 217.888 372.342 217.774 389.808 210.875C408.133 203.637 429.907 187.595 459.203 153.62L501 189.66C469.163 226.582 440.392 250.234 410.083 262.206C378.915 274.517 349.576 273.13 319.945 267.015C297.012 262.283 282.878 247.901 273.195 234.564C268.573 228.197 264.438 221.324 260.882 215.413L260.728 215.156C256.935 208.853 253.595 203.308 249.871 198.004C242.667 187.744 234.935 179.754 223.997 174.289C212.984 168.787 196.212 164.608 169.069 166.48C137.59 168.651 110.97 164.475 89.3268 153.558C67.2406 142.417 52.476 125.322 43.3756 105.724Z" fill="white" stroke="black" stroke-width="0.849069"/>
<path d="M50.797 3.21264L51.1968 0.305616L58.42 -4.9542L52.0407 -5.83144L52.3627 -8.17321L65.8212 -6.32249L65.4991 -3.98072L59.5505 -4.79874L64.6996 1.83333L64.2851 4.84802L58.6558 -2.48086L50.797 3.21264Z" fill="#1C1C1C"/>
<path d="M51.1778 16.5814C49.9443 15.0586 49.4252 13.3057 49.6203 11.3228C49.8154 9.33987 50.6662 7.7218 52.1728 6.46857C53.6776 5.23337 55.4305 4.71421 57.4315 4.9111C59.4324 5.10799 61.0505 5.95884 62.2857 7.46365C63.5191 8.98649 64.0382 10.7394 63.8431 12.7223C63.648 14.7052 62.7972 16.3232 61.2906 17.5765C59.784 18.8297 58.0302 19.3579 56.0293 19.161C54.0284 18.9641 52.4112 18.1042 51.1778 16.5814ZM51.9187 11.5489C51.7856 12.9009 52.1335 14.0818 52.9624 15.0916C53.7913 16.1014 54.8908 16.6737 56.2608 16.8085C57.6308 16.9433 58.8207 16.5963 59.8305 15.7674C60.8403 14.9385 61.4117 13.8481 61.5448 12.4961C61.676 11.1622 61.3272 9.99028 60.4983 8.98047C59.6694 7.97066 58.57 7.39835 57.2 7.26355C55.83 7.12874 54.6401 7.47578 53.6303 8.30467C52.6204 9.13355 52.0499 10.215 51.9187 11.5489Z" fill="#1C1C1C"/>
<path d="M62.275 30.7315L62.1623 33.0927L48.5926 32.4449L48.7053 30.0838L54.3775 30.3546L54.713 23.3255L49.0408 23.0547L49.1535 20.6936L62.7232 21.3413L62.6105 23.7025L56.9655 23.433L56.63 30.4621L62.275 30.7315Z" fill="#1C1C1C"/>
<path d="M50.9691 47.0099L51.0033 49.2376L45.108 49.3281L45.0722 46.9918L48.7125 46.9359L48.539 35.6344L62.1225 35.4258L62.1588 37.7894L50.8302 37.9633L50.9328 44.6464L62.2614 44.4725L62.2977 46.836L50.9691 47.0099Z" fill="#1C1C1C"/>
<path d="M54.7602 52.5143C53.5751 52.8661 52.691 53.5071 52.1081 54.4373C51.5268 55.3855 51.2984 56.4996 51.4228 57.7796C51.5963 59.5645 52.3804 60.7986 53.7754 61.482L52.834 63.5935C50.6689 62.4754 49.4576 60.5912 49.2 57.941C48.9916 55.7956 49.4887 53.982 50.6914 52.5003C51.9139 51.0347 53.5528 50.2021 55.608 50.0024C57.6453 49.8044 59.4039 50.2978 60.8839 51.4825C62.364 52.6672 63.2056 54.3052 63.4088 56.3965C63.6015 58.3797 63.0552 60.0615 61.7699 61.4421C60.5043 62.839 58.889 63.633 56.9238 63.8239C56.5813 63.8572 56.2271 63.8643 55.8613 63.8453L54.7602 52.5143ZM61.1913 56.612C61.0687 55.35 60.6065 54.3394 59.8048 53.5801C59.0211 52.8192 58.0246 52.3973 56.8155 52.3146L57.6932 61.3469C58.9539 61.0242 59.8784 60.4248 60.4666 59.5487C61.0549 58.6726 61.2964 57.6937 61.1913 56.612Z" fill="#1C1C1C"/>
<path d="M66.442 76.7009L53.1345 79.4333L52.6591 77.1178L63.7575 74.839L62.3421 67.9457L51.2437 70.2246L50.7682 67.9091L64.0757 65.1766L66.442 76.7009Z" fill="#1C1C1C"/>
<path d="M59.9734 93.0371L60.7044 95.1417L55.1349 97.0762L54.3682 94.8689L57.8075 93.6743L54.0989 82.9972L66.932 78.5399L67.7076 80.7728L57.0048 84.4903L59.1978 90.8041L69.9006 87.0867L70.6762 89.3196L59.9734 93.0371Z" fill="#1C1C1C"/>
<path d="M76.5778 100.733L77.491 102.402L65.5746 108.925L64.4526 106.875L72.8179 102.296L60.8387 100.274L59.9254 98.6054L71.8419 92.0821L72.9639 94.1317L64.5985 98.7111L76.5778 100.733Z" fill="#1C1C1C"/>
<path d="M85.1082 111.885L74.5749 120.464L73.0992 118.652L76.8912 115.564L75.6387 114.026L69.4445 114.165L67.6257 111.932L74.0281 111.834C73.5842 110.887 73.457 109.928 73.6465 108.956C73.836 107.984 74.324 107.177 75.1104 106.537C76.0795 105.748 77.1673 105.434 78.3739 105.596C79.5804 105.758 80.607 106.358 81.4534 107.398L85.1082 111.885ZM76.4068 111.613L78.5344 114.226L81.9262 111.463L79.7985 108.851C79.3753 108.331 78.8605 108.015 78.2541 107.901C77.6477 107.788 77.0847 107.942 76.565 108.366C76.0594 108.777 75.8008 109.292 75.7893 109.909C75.7777 110.525 75.9835 111.094 76.4068 111.613Z" fill="#1C1C1C"/>
<path d="M81.673 130.608L80.5177 129.795L103.481 116.056L104.636 116.869L81.673 130.608Z" fill="#1C1C1C"/>
<path d="M116.966 130.688L112.184 143.404L109.971 142.572L113.96 131.967L107.373 129.49L103.385 140.095L101.172 139.263L105.954 126.547L116.966 130.688Z" fill="#1C1C1C"/>
<path d="M127.605 145.224C125.955 146.28 124.155 146.601 122.206 146.187C120.257 145.773 118.744 144.747 117.666 143.111C116.606 141.478 116.285 139.678 116.703 137.711C117.121 135.745 118.146 134.231 119.779 133.171C121.43 132.115 123.229 131.794 125.178 132.208C127.127 132.622 128.641 133.648 129.719 135.284C130.797 136.921 131.127 138.723 130.708 140.689C130.29 142.656 129.256 144.167 127.605 145.224ZM122.687 143.928C124.015 144.211 125.228 143.996 126.323 143.285C127.419 142.573 128.11 141.544 128.396 140.198C128.683 138.851 128.47 137.63 127.759 136.534C127.047 135.439 126.027 134.749 124.698 134.467C123.387 134.188 122.184 134.404 121.088 135.116C119.992 135.827 119.301 136.856 119.015 138.203C118.729 139.549 118.941 140.771 119.653 141.866C120.364 142.962 121.375 143.649 122.687 143.928Z" fill="#1C1C1C"/>
<path d="M140.688 141.458C142.124 142.218 142.767 143.364 142.617 144.897C142.505 146.032 141.96 146.953 140.981 147.657C140.003 148.344 138.685 148.606 137.027 148.443C134.323 148.177 132.617 146.918 131.91 144.664L133.998 143.695C134.376 145.225 135.466 146.078 137.269 146.255C138.17 146.344 138.883 146.223 139.407 145.892C139.95 145.545 140.252 145.065 140.312 144.452C140.366 143.911 140.202 143.449 139.821 143.066C139.458 142.684 138.934 142.46 138.249 142.393L136.275 142.199L136.485 140.063L137.945 140.206C138.63 140.273 139.177 140.163 139.588 139.876C140 139.571 140.234 139.13 140.291 138.553C140.348 137.976 140.168 137.485 139.753 137.08C139.356 136.677 138.77 136.438 137.995 136.362C136.48 136.213 135.39 136.752 134.724 137.979L132.913 136.682C134.063 134.793 135.828 133.965 138.207 134.198C139.685 134.344 140.811 134.836 141.584 135.677C142.375 136.519 142.716 137.49 142.608 138.589C142.474 139.959 141.834 140.916 140.688 141.458Z" fill="#1C1C1C"/>
<path d="M155.498 135.313L157.4 135.338L157.222 148.922L154.885 148.891L155.011 139.355L147.36 148.793L145.458 148.768L145.636 135.184L147.973 135.214L147.848 144.75L155.498 135.313Z" fill="#1C1C1C"/>
<path d="M171.107 145.888L173.331 145.751L173.693 151.635L171.361 151.779L171.137 148.145L159.856 148.84L159.02 135.281L161.38 135.136L162.077 146.444L168.748 146.033L168.051 134.724L170.41 134.579L171.107 145.888Z" fill="#1C1C1C"/>
<path d="M185.637 134.256L187.539 134.253L187.557 147.838L185.221 147.842L185.208 138.305L177.694 147.852L175.793 147.854L175.774 134.269L178.111 134.266L178.124 143.803L185.637 134.256Z" fill="#1C1C1C"/>
<path d="M200.135 147.091C198.631 148.346 196.885 148.891 194.9 148.724C192.914 148.558 191.284 147.73 190.009 146.242C188.753 144.755 188.208 143.01 188.376 141.007C188.544 139.003 189.371 137.373 190.858 136.116C192.363 134.861 194.108 134.316 196.094 134.483C198.079 134.649 199.71 135.477 200.984 136.965C202.259 138.453 202.813 140.199 202.645 142.203C202.477 144.206 201.64 145.836 200.135 147.091ZM195.093 146.423C196.447 146.536 197.622 146.171 198.62 145.328C199.618 144.485 200.174 143.377 200.289 142.005C200.404 140.633 200.04 139.449 199.197 138.451C198.353 137.453 197.255 136.898 195.901 136.784C194.565 136.672 193.398 137.038 192.401 137.881C191.403 138.725 190.847 139.832 190.732 141.204C190.617 142.576 190.981 143.761 191.824 144.758C192.668 145.756 193.757 146.311 195.093 146.423Z" fill="#1C1C1C"/>
<path d="M214.798 137.607L217.117 138.063L214.493 151.393L212.174 150.936L213.271 145.364L206.366 144.005L205.269 149.577L202.95 149.12L205.574 135.791L207.893 136.248L206.802 141.793L213.706 143.152L214.798 137.607Z" fill="#1C1C1C"/>
<path d="M229.829 142.102L231.63 142.715L227.254 155.576L225.042 154.823L228.114 145.795L217.917 152.399L216.116 151.786L220.492 138.925L222.704 139.678L219.632 148.706L229.829 142.102Z" fill="#1C1C1C"/>
<path d="M242.315 147.65C243.985 148.56 245.075 149.948 245.585 151.814C246.103 153.664 245.886 155.464 244.933 157.214C243.979 158.963 242.581 160.13 240.736 160.713C238.901 161.281 237.148 161.11 235.478 160.2C233.505 159.125 232.431 157.519 232.255 155.381L228.537 162.204L226.462 161.073L235.561 144.372L237.637 145.503L236.519 147.555C238.411 146.544 240.343 146.575 242.315 147.65ZM236.307 158.053C237.5 158.703 238.723 158.843 239.976 158.474C241.238 158.089 242.198 157.292 242.857 156.083C243.516 154.874 243.66 153.643 243.291 152.39C242.931 151.121 242.154 150.161 240.961 149.511C239.752 148.853 238.517 148.716 237.255 149.101C236.002 149.47 235.046 150.259 234.387 151.468C233.729 152.677 233.579 153.916 233.94 155.185C234.309 156.438 235.098 157.394 236.307 158.053Z" fill="#1C1C1C"/>
<path d="M251.092 168.816C249.142 169.017 247.391 168.494 245.836 167.247C244.282 166.001 243.392 164.404 243.166 162.457C242.953 160.522 243.476 158.77 244.734 157.202C245.993 155.634 247.589 154.743 249.525 154.531C251.474 154.33 253.226 154.853 254.78 156.1C256.334 157.347 257.224 158.943 257.451 160.89C257.677 162.837 257.161 164.594 255.903 166.162C254.645 167.731 253.041 168.615 251.092 168.816ZM247.282 165.446C248.341 166.296 249.52 166.65 250.819 166.507C252.118 166.365 253.198 165.757 254.059 164.683C254.921 163.609 255.28 162.423 255.138 161.124C254.995 159.826 254.394 158.751 253.335 157.901C252.289 157.063 251.117 156.714 249.818 156.857C248.52 156.999 247.44 157.607 246.578 158.681C245.717 159.755 245.357 160.941 245.5 162.24C245.642 163.538 246.236 164.607 247.282 165.446Z" fill="#1C1C1C"/>
<path d="M263.423 174.208C263.939 175.627 263.636 176.851 262.515 177.88C261.688 178.639 260.75 178.984 259.702 178.913C258.679 178.844 257.696 178.295 256.753 177.267L252.161 172.263L262.17 163.077L266.395 167.682C267.314 168.683 267.771 169.689 267.766 170.702C267.774 171.702 267.371 172.576 266.557 173.323C265.596 174.205 264.551 174.5 263.423 174.208ZM264.76 169.035L262.17 166.212L259.548 168.618L262.138 171.441C263.069 172.455 263.981 172.552 264.875 171.732C265.729 170.948 265.691 170.049 264.76 169.035ZM258.243 175.716C258.708 176.223 259.184 176.5 259.669 176.546C260.166 176.606 260.635 176.434 261.075 176.03C261.489 175.65 261.681 175.216 261.651 174.728C261.646 174.24 261.411 173.743 260.945 173.236L258.006 170.033L255.304 172.513L258.243 175.716Z" fill="#1C1C1C"/>
<path d="M277.372 181.804L278.757 183.719L267.749 191.68L266.364 189.764L268.257 188.395C266.114 188.492 264.385 187.63 263.068 185.81C261.954 184.269 261.562 182.552 261.892 180.659C262.237 178.755 263.216 177.22 264.831 176.052C266.445 174.885 268.203 174.441 270.104 174.72C272.02 174.989 273.535 175.894 274.649 177.436C275.965 179.256 276.242 181.168 275.479 183.173L277.372 181.804ZM265.093 184.715C265.9 185.83 266.948 186.492 268.238 186.699C269.542 186.896 270.752 186.591 271.868 185.784C272.983 184.977 273.645 183.929 273.852 182.639C274.074 181.339 273.782 180.131 272.975 179.015C272.179 177.914 271.129 177.265 269.824 177.069C268.534 176.862 267.332 177.161 266.216 177.968C265.1 178.775 264.432 179.828 264.21 181.129C264.003 182.419 264.297 183.614 265.093 184.715Z" fill="#1C1C1C"/>
<path d="M285.329 194.408L286.571 196.419L275.013 203.558L273.771 201.547L278.602 198.563L274.905 192.576L270.073 195.56L268.831 193.549L280.389 186.41L281.631 188.421L276.823 191.391L280.521 197.378L285.329 194.408Z" fill="#1C1C1C"/>
<path d="M293.054 207.201L294.044 208.825L282.443 215.895L281.227 213.899L289.371 208.936L277.311 207.473L276.321 205.849L287.921 198.779L289.137 200.774L280.994 205.737L293.054 207.201Z" fill="#1C1C1C"/>
<path d="M289.793 216.743C288.946 217.644 288.505 218.643 288.47 219.74C288.445 220.852 288.809 221.93 289.561 222.973C290.609 224.428 291.908 225.099 293.458 224.987L293.708 227.285C291.274 227.41 289.279 226.392 287.722 224.232C286.461 222.483 285.977 220.666 286.27 218.78C286.588 216.898 287.585 215.354 289.26 214.146C290.92 212.949 292.688 212.49 294.564 212.768C296.439 213.046 297.991 214.038 299.219 215.742C300.385 217.358 300.76 219.087 300.344 220.927C299.954 222.771 298.959 224.27 297.357 225.425C297.078 225.626 296.775 225.811 296.45 225.978L289.793 216.743ZM297.412 217.045C296.671 216.017 295.762 215.376 294.687 215.124C293.627 214.861 292.554 214.998 291.468 215.536L296.774 222.897C297.701 221.984 298.198 221 298.265 219.947C298.332 218.894 298.048 217.927 297.412 217.045Z" fill="#1C1C1C"/>
<path d="M298.181 239.671L297.044 238.832L320.31 225.613L321.447 226.452L298.181 239.671Z" fill="#1C1C1C"/>
<path d="M330.796 243.532C332.05 244.374 332.527 245.541 332.228 247.033C332.008 248.134 331.453 248.965 330.565 249.526C329.698 250.073 328.581 250.209 327.213 249.935L320.553 248.602L323.221 235.281L329.348 236.508C330.681 236.775 331.643 237.319 332.236 238.139C332.833 238.942 333.022 239.886 332.805 240.969C332.549 242.248 331.88 243.102 330.796 243.532ZM328.826 238.565L325.069 237.813L324.37 241.303L328.127 242.055C329.477 242.325 330.271 241.865 330.509 240.675C330.737 239.539 330.176 238.835 328.826 238.565ZM327.502 247.804C328.177 247.939 328.724 247.883 329.143 247.634C329.58 247.389 329.857 246.974 329.975 246.387C330.085 245.837 329.984 245.373 329.671 244.997C329.38 244.606 328.897 244.343 328.222 244.208L323.959 243.354L323.239 246.95L327.502 247.804Z" fill="#1C1C1C"/>
<path d="M345.291 239.019L347.176 239.274L345.355 252.737L343.039 252.424L344.317 242.973L335.581 251.415L333.696 251.16L335.517 237.697L337.833 238.01L336.554 247.461L345.291 239.019Z" fill="#1C1C1C"/>
<path d="M356.227 246.416C357.696 247.109 358.392 248.224 358.312 249.762C358.253 250.901 357.751 251.846 356.806 252.595C355.861 253.326 354.557 253.649 352.892 253.563C350.179 253.423 348.417 252.244 347.606 250.025L349.647 248.961C350.095 250.471 351.224 251.273 353.033 251.366C353.937 251.413 354.644 251.259 355.152 250.904C355.679 250.533 355.958 250.039 355.99 249.424C356.018 248.881 355.833 248.428 355.434 248.062C355.054 247.698 354.52 247.498 353.833 247.463L351.852 247.361L351.963 245.217L353.428 245.293C354.115 245.328 354.657 245.193 355.054 244.887C355.452 244.563 355.665 244.111 355.695 243.532C355.725 242.954 355.523 242.472 355.09 242.086C354.674 241.702 354.078 241.49 353.3 241.45C351.78 241.371 350.716 241.96 350.107 243.217L348.238 242.005C349.299 240.064 351.024 239.156 353.412 239.279C354.895 239.356 356.042 239.796 356.853 240.599C357.682 241.404 358.068 242.358 358.012 243.461C357.941 244.836 357.346 245.821 356.227 246.416Z" fill="#1C1C1C"/>
<path d="M370.011 239.471L372.535 239.345L367.716 254.03C367.214 255.597 366.458 256.804 365.448 257.652C364.439 258.519 363.263 258.94 361.92 258.916L361.811 256.718C363.481 256.762 364.658 255.796 365.339 253.822L365.532 253.323L358.966 240.02L361.463 239.896L366.633 250.303L370.011 239.471Z" fill="#1C1C1C"/>
<path d="M384.856 237.086L387.178 236.642L389.728 249.986L387.406 250.43L386.968 248.134C386.148 250.117 384.635 251.319 382.429 251.74C380.56 252.097 378.839 251.725 377.264 250.625C375.686 249.507 374.709 247.969 374.335 246.012C373.961 244.055 374.304 242.274 375.362 240.671C376.417 239.049 377.878 238.06 379.746 237.703C381.952 237.281 383.802 237.841 385.295 239.381L384.856 237.086ZM382.294 249.442C383.646 249.184 384.689 248.515 385.423 247.434C386.153 246.335 386.39 245.11 386.131 243.758C385.873 242.406 385.203 241.363 384.123 240.629C383.038 239.877 381.82 239.63 380.468 239.888C379.134 240.143 378.101 240.82 377.371 241.919C376.637 242.999 376.399 244.216 376.657 245.568C376.916 246.92 377.587 247.972 378.671 248.724C379.752 249.458 380.959 249.697 382.294 249.442Z" fill="#1C1C1C"/>
</g>
<defs>
<clipPath id="clip0_1116_20060">
<rect width="380" height="260" rx="21" fill="white"/>
</clipPath>
</defs>
</svg>
