<svg width="380" height="260" viewBox="0 0 380 260" fill="none" xmlns="http://www.w3.org/2000/svg">
<rect width="380" height="260" rx="21" fill="#FD5099"/>
<g clip-path="url(#clip0_1116_19734)">
<rect x="10" y="43" width="3.33333" height="3.33333" fill="white"/>
<rect x="13.333" y="46.333" width="3.33333" height="3.33333" fill="white"/>
<rect x="13.333" y="43" width="3.33333" height="3.33333" fill="#E8E8E8"/>
<rect x="10" y="46.333" width="3.33333" height="3.33333" fill="#E8E8E8"/>
<rect x="16.667" y="43" width="3.33333" height="3.33333" fill="white"/>
<rect x="20" y="46.333" width="3.33333" height="3.33333" fill="white"/>
<rect x="20" y="43" width="3.33333" height="3.33333" fill="#E8E8E8"/>
<rect x="16.667" y="46.333" width="3.33333" height="3.33333" fill="#E8E8E8"/>
<rect x="23.333" y="43" width="3.33333" height="3.33333" fill="white"/>
<rect x="26.666" y="46.333" width="3.33333" height="3.33333" fill="white"/>
<rect x="26.666" y="43" width="3.33333" height="3.33333" fill="#E8E8E8"/>
<rect x="23.333" y="46.333" width="3.33333" height="3.33333" fill="#E8E8E8"/>
<rect x="30" y="43" width="3.33333" height="3.33333" fill="white"/>
<rect x="33.333" y="46.333" width="3.33333" height="3.33333" fill="white"/>
<rect x="33.333" y="43" width="3.33333" height="3.33333" fill="#E8E8E8"/>
<rect x="30" y="46.333" width="3.33333" height="3.33333" fill="#E8E8E8"/>
<rect x="36.667" y="43" width="3.33333" height="3.33333" fill="white"/>
<rect x="40" y="46.333" width="3.33333" height="3.33333" fill="white"/>
<rect x="40" y="43" width="3.33333" height="3.33333" fill="#E8E8E8"/>
<rect x="36.667" y="46.333" width="3.33333" height="3.33333" fill="#E8E8E8"/>
<rect x="43.333" y="43" width="3.33333" height="3.33333" fill="white"/>
<rect x="46.666" y="46.333" width="3.33333" height="3.33333" fill="white"/>
<rect x="46.666" y="43" width="3.33333" height="3.33333" fill="#E8E8E8"/>
<rect x="43.333" y="46.333" width="3.33333" height="3.33333" fill="#E8E8E8"/>
<rect x="50" y="43" width="3.33333" height="3.33333" fill="white"/>
<rect x="53.333" y="46.333" width="3.33333" height="3.33333" fill="white"/>
<rect x="53.333" y="43" width="3.33333" height="3.33333" fill="#E8E8E8"/>
<rect x="50" y="46.333" width="3.33333" height="3.33333" fill="#E8E8E8"/>
<rect x="56.667" y="43" width="3.33333" height="3.33333" fill="white"/>
<rect x="60" y="46.333" width="3.33333" height="3.33333" fill="white"/>
<rect x="60" y="43" width="3.33333" height="3.33333" fill="#E8E8E8"/>
<rect x="56.667" y="46.333" width="3.33333" height="3.33333" fill="#E8E8E8"/>
<rect x="63.333" y="43" width="3.33333" height="3.33333" fill="white"/>
<rect x="66.666" y="46.333" width="3.33333" height="3.33333" fill="white"/>
<rect x="66.666" y="43" width="3.33333" height="3.33333" fill="#E8E8E8"/>
<rect x="63.333" y="46.333" width="3.33333" height="3.33333" fill="#E8E8E8"/>
<rect x="70" y="43" width="3.33333" height="3.33333" fill="white"/>
<rect x="73.333" y="46.333" width="3.33333" height="3.33333" fill="white"/>
<rect x="73.333" y="43" width="3.33333" height="3.33333" fill="#E8E8E8"/>
<rect x="70" y="46.333" width="3.33333" height="3.33333" fill="#E8E8E8"/>
<rect x="76.667" y="43" width="3.33333" height="3.33333" fill="white"/>
<rect x="80" y="46.333" width="3.33333" height="3.33333" fill="white"/>
<rect x="80" y="43" width="3.33333" height="3.33333" fill="#E8E8E8"/>
<rect x="76.667" y="46.333" width="3.33333" height="3.33333" fill="#E8E8E8"/>
<rect x="83.333" y="43" width="3.33333" height="3.33333" fill="white"/>
<rect x="86.666" y="46.333" width="3.33333" height="3.33333" fill="white"/>
<rect x="86.666" y="43" width="3.33333" height="3.33333" fill="#E8E8E8"/>
<rect x="83.333" y="46.333" width="3.33333" height="3.33333" fill="#E8E8E8"/>
<rect x="90" y="43" width="3.33333" height="3.33333" fill="white"/>
<rect x="93.333" y="46.333" width="3.33333" height="3.33333" fill="white"/>
<rect x="93.333" y="43" width="3.33333" height="3.33333" fill="#E8E8E8"/>
<rect x="90" y="46.333" width="3.33333" height="3.33333" fill="#E8E8E8"/>
<rect x="96.667" y="43" width="3.33333" height="3.33333" fill="white"/>
<rect x="100" y="46.333" width="3.33333" height="3.33333" fill="white"/>
<rect x="100" y="43" width="3.33333" height="3.33333" fill="#E8E8E8"/>
<rect x="96.667" y="46.333" width="3.33333" height="3.33333" fill="#E8E8E8"/>
<rect x="103.333" y="43" width="3.33333" height="3.33333" fill="white"/>
<rect x="106.666" y="46.333" width="3.33333" height="3.33333" fill="white"/>
<rect x="106.666" y="43" width="3.33333" height="3.33333" fill="#E8E8E8"/>
<rect x="103.333" y="46.333" width="3.33333" height="3.33333" fill="#E8E8E8"/>
<rect x="110" y="43" width="3.33333" height="3.33333" fill="white"/>
<rect x="113.333" y="46.333" width="3.33333" height="3.33333" fill="white"/>
<rect x="113.333" y="43" width="3.33333" height="3.33333" fill="#E8E8E8"/>
<rect x="110" y="46.333" width="3.33333" height="3.33333" fill="#E8E8E8"/>
<rect x="116.667" y="43" width="3.33333" height="3.33333" fill="white"/>
<rect x="120" y="46.333" width="3.33333" height="3.33333" fill="white"/>
<rect x="120" y="43" width="3.33333" height="3.33333" fill="#E8E8E8"/>
<rect x="116.667" y="46.333" width="3.33333" height="3.33333" fill="#E8E8E8"/>
<rect x="123.333" y="43" width="3.33333" height="3.33333" fill="white"/>
<rect x="126.666" y="46.333" width="3.33333" height="3.33333" fill="white"/>
<rect x="126.666" y="43" width="3.33333" height="3.33333" fill="#E8E8E8"/>
<rect x="123.333" y="46.333" width="3.33333" height="3.33333" fill="#E8E8E8"/>
<rect x="130" y="43" width="3.33333" height="3.33333" fill="white"/>
<rect x="133.333" y="46.333" width="3.33333" height="3.33333" fill="white"/>
<rect x="133.333" y="43" width="3.33333" height="3.33333" fill="#E8E8E8"/>
<rect x="130" y="46.333" width="3.33333" height="3.33333" fill="#E8E8E8"/>
<rect x="136.667" y="43" width="3.33333" height="3.33333" fill="white"/>
<rect x="136.667" y="46.333" width="3.33333" height="3.33333" fill="#E8E8E8"/>
<rect x="10" y="49.667" width="3.33333" height="3.33333" fill="white"/>
<rect x="13.333" y="53" width="3.33333" height="3.33333" fill="white"/>
<rect x="13.333" y="49.667" width="3.33333" height="3.33333" fill="#E8E8E8"/>
<rect x="10" y="53" width="3.33333" height="3.33333" fill="#E8E8E8"/>
<rect x="16.667" y="49.667" width="3.33333" height="3.33333" fill="white"/>
<rect x="20" y="53" width="3.33333" height="3.33333" fill="white"/>
<rect x="20" y="49.667" width="3.33333" height="3.33333" fill="#E8E8E8"/>
<rect x="16.667" y="53" width="3.33333" height="3.33333" fill="#E8E8E8"/>
<rect x="23.333" y="49.667" width="3.33333" height="3.33333" fill="white"/>
<rect x="26.666" y="53" width="3.33333" height="3.33333" fill="white"/>
<rect x="26.666" y="49.667" width="3.33333" height="3.33333" fill="#E8E8E8"/>
<rect x="23.333" y="53" width="3.33333" height="3.33333" fill="#E8E8E8"/>
<rect x="30" y="49.667" width="3.33333" height="3.33333" fill="white"/>
<rect x="33.333" y="53" width="3.33333" height="3.33333" fill="white"/>
<rect x="33.333" y="49.667" width="3.33333" height="3.33333" fill="#E8E8E8"/>
<rect x="30" y="53" width="3.33333" height="3.33333" fill="#E8E8E8"/>
<rect x="36.667" y="49.667" width="3.33333" height="3.33333" fill="white"/>
<rect x="40" y="53" width="3.33333" height="3.33333" fill="white"/>
<rect x="40" y="49.667" width="3.33333" height="3.33333" fill="#E8E8E8"/>
<rect x="36.667" y="53" width="3.33333" height="3.33333" fill="#E8E8E8"/>
<rect x="43.333" y="49.667" width="3.33333" height="3.33333" fill="white"/>
<rect x="46.666" y="53" width="3.33333" height="3.33333" fill="white"/>
<rect x="46.666" y="49.667" width="3.33333" height="3.33333" fill="#E8E8E8"/>
<rect x="43.333" y="53" width="3.33333" height="3.33333" fill="#E8E8E8"/>
<rect x="50" y="49.667" width="3.33333" height="3.33333" fill="white"/>
<rect x="53.333" y="53" width="3.33333" height="3.33333" fill="white"/>
<rect x="53.333" y="49.667" width="3.33333" height="3.33333" fill="#E8E8E8"/>
<rect x="50" y="53" width="3.33333" height="3.33333" fill="#E8E8E8"/>
<rect x="56.667" y="49.667" width="3.33333" height="3.33333" fill="white"/>
<rect x="60" y="53" width="3.33333" height="3.33333" fill="white"/>
<rect x="60" y="49.667" width="3.33333" height="3.33333" fill="#E8E8E8"/>
<rect x="56.667" y="53" width="3.33333" height="3.33333" fill="#E8E8E8"/>
<rect x="63.333" y="49.667" width="3.33333" height="3.33333" fill="white"/>
<rect x="66.666" y="53" width="3.33333" height="3.33333" fill="white"/>
<rect x="66.666" y="49.667" width="3.33333" height="3.33333" fill="#E8E8E8"/>
<rect x="63.333" y="53" width="3.33333" height="3.33333" fill="#E8E8E8"/>
<rect x="70" y="49.667" width="3.33333" height="3.33333" fill="white"/>
<rect x="73.333" y="53" width="3.33333" height="3.33333" fill="white"/>
<rect x="73.333" y="49.667" width="3.33333" height="3.33333" fill="#E8E8E8"/>
<rect x="70" y="53" width="3.33333" height="3.33333" fill="#E8E8E8"/>
<rect x="76.667" y="49.667" width="3.33333" height="3.33333" fill="white"/>
<rect x="80" y="53" width="3.33333" height="3.33333" fill="white"/>
<rect x="80" y="49.667" width="3.33333" height="3.33333" fill="#E8E8E8"/>
<rect x="76.667" y="53" width="3.33333" height="3.33333" fill="#E8E8E8"/>
<rect x="83.333" y="49.667" width="3.33333" height="3.33333" fill="white"/>
<rect x="86.666" y="53" width="3.33333" height="3.33333" fill="white"/>
<rect x="86.666" y="49.667" width="3.33333" height="3.33333" fill="#E8E8E8"/>
<rect x="83.333" y="53" width="3.33333" height="3.33333" fill="#E8E8E8"/>
<rect x="90" y="49.667" width="3.33333" height="3.33333" fill="white"/>
<rect x="93.333" y="53" width="3.33333" height="3.33333" fill="white"/>
<rect x="93.333" y="49.667" width="3.33333" height="3.33333" fill="#E8E8E8"/>
<rect x="90" y="53" width="3.33333" height="3.33333" fill="#E8E8E8"/>
<rect x="96.667" y="49.667" width="3.33333" height="3.33333" fill="white"/>
<rect x="100" y="53" width="3.33333" height="3.33333" fill="white"/>
<rect x="100" y="49.667" width="3.33333" height="3.33333" fill="#E8E8E8"/>
<rect x="96.667" y="53" width="3.33333" height="3.33333" fill="#E8E8E8"/>
<rect x="103.333" y="49.667" width="3.33333" height="3.33333" fill="white"/>
<rect x="106.666" y="53" width="3.33333" height="3.33333" fill="white"/>
<rect x="106.666" y="49.667" width="3.33333" height="3.33333" fill="#E8E8E8"/>
<rect x="103.333" y="53" width="3.33333" height="3.33333" fill="#E8E8E8"/>
<rect x="110" y="49.667" width="3.33333" height="3.33333" fill="white"/>
<rect x="113.333" y="53" width="3.33333" height="3.33333" fill="white"/>
<rect x="113.333" y="49.667" width="3.33333" height="3.33333" fill="#E8E8E8"/>
<rect x="110" y="53" width="3.33333" height="3.33333" fill="#E8E8E8"/>
<rect x="116.667" y="49.667" width="3.33333" height="3.33333" fill="white"/>
<rect x="120" y="53" width="3.33333" height="3.33333" fill="white"/>
<rect x="120" y="49.667" width="3.33333" height="3.33333" fill="#E8E8E8"/>
<rect x="116.667" y="53" width="3.33333" height="3.33333" fill="#E8E8E8"/>
<rect x="123.333" y="49.667" width="3.33333" height="3.33333" fill="white"/>
<rect x="126.666" y="53" width="3.33333" height="3.33333" fill="white"/>
<rect x="126.666" y="49.667" width="3.33333" height="3.33333" fill="#E8E8E8"/>
<rect x="123.333" y="53" width="3.33333" height="3.33333" fill="#E8E8E8"/>
<rect x="130" y="49.667" width="3.33333" height="3.33333" fill="white"/>
<rect x="133.333" y="53" width="3.33333" height="3.33333" fill="white"/>
<rect x="133.333" y="49.667" width="3.33333" height="3.33333" fill="#E8E8E8"/>
<rect x="130" y="53" width="3.33333" height="3.33333" fill="#E8E8E8"/>
<rect x="136.667" y="49.667" width="3.33333" height="3.33333" fill="white"/>
<rect x="136.667" y="53" width="3.33333" height="3.33333" fill="#E8E8E8"/>
<rect x="10" y="56.333" width="3.33333" height="3.33333" fill="white"/>
<rect x="13.333" y="59.666" width="3.33333" height="3.33333" fill="white"/>
<rect x="13.333" y="56.333" width="3.33333" height="3.33333" fill="#E8E8E8"/>
<rect x="10" y="59.666" width="3.33333" height="3.33333" fill="#E8E8E8"/>
<rect x="16.667" y="56.333" width="3.33333" height="3.33333" fill="white"/>
<rect x="20" y="59.666" width="3.33333" height="3.33333" fill="white"/>
<rect x="20" y="56.333" width="3.33333" height="3.33333" fill="#E8E8E8"/>
<rect x="16.667" y="59.666" width="3.33333" height="3.33333" fill="#E8E8E8"/>
<rect x="23.333" y="56.333" width="3.33333" height="3.33333" fill="white"/>
<rect x="26.666" y="59.666" width="3.33333" height="3.33333" fill="white"/>
<rect x="26.666" y="56.333" width="3.33333" height="3.33333" fill="#E8E8E8"/>
<rect x="23.333" y="59.666" width="3.33333" height="3.33333" fill="#E8E8E8"/>
<rect x="30" y="56.333" width="3.33333" height="3.33333" fill="white"/>
<rect x="33.333" y="59.666" width="3.33333" height="3.33333" fill="white"/>
<rect x="33.333" y="56.333" width="3.33333" height="3.33333" fill="#E8E8E8"/>
<rect x="30" y="59.666" width="3.33333" height="3.33333" fill="#E8E8E8"/>
<rect x="36.667" y="56.333" width="3.33333" height="3.33333" fill="white"/>
<rect x="40" y="59.666" width="3.33333" height="3.33333" fill="white"/>
<rect x="40" y="56.333" width="3.33333" height="3.33333" fill="#E8E8E8"/>
<rect x="36.667" y="59.666" width="3.33333" height="3.33333" fill="#E8E8E8"/>
<rect x="43.333" y="56.333" width="3.33333" height="3.33333" fill="white"/>
<rect x="46.666" y="59.666" width="3.33333" height="3.33333" fill="white"/>
<rect x="46.666" y="56.333" width="3.33333" height="3.33333" fill="#E8E8E8"/>
<rect x="43.333" y="59.666" width="3.33333" height="3.33333" fill="#E8E8E8"/>
<rect x="50" y="56.333" width="3.33333" height="3.33333" fill="white"/>
<rect x="53.333" y="59.666" width="3.33333" height="3.33333" fill="white"/>
<rect x="53.333" y="56.333" width="3.33333" height="3.33333" fill="#E8E8E8"/>
<rect x="50" y="59.666" width="3.33333" height="3.33333" fill="#E8E8E8"/>
<rect x="56.667" y="56.333" width="3.33333" height="3.33333" fill="white"/>
<rect x="60" y="59.666" width="3.33333" height="3.33333" fill="white"/>
<rect x="60" y="56.333" width="3.33333" height="3.33333" fill="#E8E8E8"/>
<rect x="56.667" y="59.666" width="3.33333" height="3.33333" fill="#E8E8E8"/>
<rect x="63.333" y="56.333" width="3.33333" height="3.33333" fill="white"/>
<rect x="66.666" y="59.666" width="3.33333" height="3.33333" fill="white"/>
<rect x="66.666" y="56.333" width="3.33333" height="3.33333" fill="#E8E8E8"/>
<rect x="63.333" y="59.666" width="3.33333" height="3.33333" fill="#E8E8E8"/>
<rect x="70" y="56.333" width="3.33333" height="3.33333" fill="white"/>
<rect x="73.333" y="59.666" width="3.33333" height="3.33333" fill="white"/>
<rect x="73.333" y="56.333" width="3.33333" height="3.33333" fill="#E8E8E8"/>
<rect x="70" y="59.666" width="3.33333" height="3.33333" fill="#E8E8E8"/>
<rect x="76.667" y="56.333" width="3.33333" height="3.33333" fill="white"/>
<rect x="80" y="59.666" width="3.33333" height="3.33333" fill="white"/>
<rect x="80" y="56.333" width="3.33333" height="3.33333" fill="#E8E8E8"/>
<rect x="76.667" y="59.666" width="3.33333" height="3.33333" fill="#E8E8E8"/>
<rect x="83.333" y="56.333" width="3.33333" height="3.33333" fill="white"/>
<rect x="86.666" y="59.666" width="3.33333" height="3.33333" fill="white"/>
<rect x="86.666" y="56.333" width="3.33333" height="3.33333" fill="#E8E8E8"/>
<rect x="83.333" y="59.666" width="3.33333" height="3.33333" fill="#E8E8E8"/>
<rect x="90" y="56.333" width="3.33333" height="3.33333" fill="white"/>
<rect x="93.333" y="59.666" width="3.33333" height="3.33333" fill="white"/>
<rect x="93.333" y="56.333" width="3.33333" height="3.33333" fill="#E8E8E8"/>
<rect x="90" y="59.666" width="3.33333" height="3.33333" fill="#E8E8E8"/>
<rect x="96.667" y="56.333" width="3.33333" height="3.33333" fill="white"/>
<rect x="100" y="59.666" width="3.33333" height="3.33333" fill="white"/>
<rect x="100" y="56.333" width="3.33333" height="3.33333" fill="#E8E8E8"/>
<rect x="96.667" y="59.666" width="3.33333" height="3.33333" fill="#E8E8E8"/>
<rect x="103.333" y="56.333" width="3.33333" height="3.33333" fill="white"/>
<rect x="106.666" y="59.666" width="3.33333" height="3.33333" fill="white"/>
<rect x="106.666" y="56.333" width="3.33333" height="3.33333" fill="#E8E8E8"/>
<rect x="103.333" y="59.666" width="3.33333" height="3.33333" fill="#E8E8E8"/>
<rect x="110" y="56.333" width="3.33333" height="3.33333" fill="white"/>
<rect x="113.333" y="59.666" width="3.33333" height="3.33333" fill="white"/>
<rect x="113.333" y="56.333" width="3.33333" height="3.33333" fill="#E8E8E8"/>
<rect x="110" y="59.666" width="3.33333" height="3.33333" fill="#E8E8E8"/>
<rect x="116.667" y="56.333" width="3.33333" height="3.33333" fill="white"/>
<rect x="120" y="59.666" width="3.33333" height="3.33333" fill="white"/>
<rect x="120" y="56.333" width="3.33333" height="3.33333" fill="#E8E8E8"/>
<rect x="116.667" y="59.666" width="3.33333" height="3.33333" fill="#E8E8E8"/>
<rect x="123.333" y="56.333" width="3.33333" height="3.33333" fill="white"/>
<rect x="126.666" y="59.666" width="3.33333" height="3.33333" fill="white"/>
<rect x="126.666" y="56.333" width="3.33333" height="3.33333" fill="#E8E8E8"/>
<rect x="123.333" y="59.666" width="3.33333" height="3.33333" fill="#E8E8E8"/>
<rect x="130" y="56.333" width="3.33333" height="3.33333" fill="white"/>
<rect x="133.333" y="59.666" width="3.33333" height="3.33333" fill="white"/>
<rect x="133.333" y="56.333" width="3.33333" height="3.33333" fill="#E8E8E8"/>
<rect x="130" y="59.666" width="3.33333" height="3.33333" fill="#E8E8E8"/>
<rect x="136.667" y="56.333" width="3.33333" height="3.33333" fill="white"/>
<rect x="136.667" y="59.666" width="3.33333" height="3.33333" fill="#E8E8E8"/>
</g>
<rect x="10" y="43" width="136" height="20" rx="6" fill="url(#paint0_linear_1116_19734)"/>
<path d="M313.304 71L309.656 60.952H289.496L285.848 71H279.512L296.216 26.2H302.936L319.64 71H313.304ZM291.544 55.384H307.608L299.544 33.304L291.544 55.384ZM347.535 39H353.103V71H347.535V65.496C344.762 69.72 340.73 71.832 335.439 71.832C330.959 71.832 327.14 70.2107 323.983 66.968C320.826 63.6827 319.247 59.6933 319.247 55C319.247 50.3067 320.826 46.3387 323.983 43.096C327.14 39.8107 330.959 38.168 335.439 38.168C340.73 38.168 344.762 40.28 347.535 44.504V39ZM336.143 66.456C339.386 66.456 342.095 65.368 344.271 63.192C346.447 60.9733 347.535 58.2427 347.535 55C347.535 51.7573 346.447 49.048 344.271 46.872C342.095 44.6533 339.386 43.544 336.143 43.544C332.943 43.544 330.255 44.6533 328.079 46.872C325.903 49.048 324.815 51.7573 324.815 55C324.815 58.2427 325.903 60.9733 328.079 63.192C330.255 65.368 332.943 66.456 336.143 66.456Z" fill="white"/>
<path d="M38.464 177L25.6 132.2H31.872L42.112 169.064L52.992 132.2H59.008L69.888 169.064L80.128 132.2H86.4L73.536 177H66.624L56 141.224L45.376 177H38.464ZM89.7555 163.56C90.3102 166.419 91.6115 168.637 93.6595 170.216C95.7502 171.795 98.3102 172.584 101.34 172.584C105.563 172.584 108.635 171.027 110.556 167.912L115.292 170.6C112.177 175.421 107.483 177.832 101.212 177.832C96.1342 177.832 91.9955 176.253 88.7955 173.096C85.6382 169.896 84.0595 165.864 84.0595 161C84.0595 156.179 85.6168 152.168 88.7315 148.968C91.8462 145.768 95.8782 144.168 100.827 144.168C105.521 144.168 109.34 145.832 112.284 149.16C115.27 152.445 116.764 156.413 116.764 161.064C116.764 161.875 116.699 162.707 116.571 163.56H89.7555ZM100.827 149.416C97.8408 149.416 95.3662 150.269 93.4035 151.976C91.4408 153.64 90.2248 155.88 89.7555 158.696H111.132C110.662 155.667 109.468 153.363 107.548 151.784C105.627 150.205 103.387 149.416 100.827 149.416ZM138.268 144.168C142.748 144.168 146.567 145.811 149.724 149.096C152.881 152.339 154.46 156.307 154.46 161C154.46 165.693 152.881 169.683 149.724 172.968C146.567 176.211 142.748 177.832 138.268 177.832C132.977 177.832 128.945 175.72 126.172 171.496V177H120.604V132.2H126.172V150.504C128.945 146.28 132.977 144.168 138.268 144.168ZM137.564 172.456C140.764 172.456 143.452 171.368 145.628 169.192C147.804 166.973 148.892 164.243 148.892 161C148.892 157.757 147.804 155.048 145.628 152.872C143.452 150.653 140.764 149.544 137.564 149.544C134.321 149.544 131.612 150.653 129.436 152.872C127.26 155.048 126.172 157.757 126.172 161C126.172 164.243 127.26 166.973 129.436 169.192C131.612 171.368 134.321 172.456 137.564 172.456ZM64.896 233.144L59.904 236.024L55.36 231.16C52.032 234.275 47.7653 235.832 42.56 235.832C38.08 235.832 34.4533 234.68 31.68 232.376C28.9067 230.029 27.52 226.872 27.52 222.904C27.52 220.173 28.2027 217.677 29.568 215.416C30.976 213.112 33.024 211.299 35.712 209.976C33.792 207.544 32.832 204.835 32.832 201.848C32.832 198.136 34.112 195.128 36.672 192.824C39.2747 190.52 42.3893 189.368 46.016 189.368C49.0027 189.368 51.712 190.179 54.144 191.8C56.576 193.421 58.3253 195.661 59.392 198.52L54.4 201.4C53.76 199.437 52.6933 197.901 51.2 196.792C49.7493 195.683 48.064 195.128 46.144 195.128C44.096 195.128 42.3467 195.747 40.896 196.984C39.488 198.221 38.784 199.821 38.784 201.784C38.784 203.192 39.104 204.472 39.744 205.624C40.4267 206.733 41.4293 207.992 42.752 209.4L54.976 222.456C56.0427 220.237 56.8107 217.528 57.28 214.328L62.4 217.272C61.8027 220.813 60.6507 223.992 58.944 226.808L64.896 233.144ZM42.688 230.2C46.2293 230.2 49.1733 229.155 51.52 227.064L39.424 214.072C37.376 214.925 35.8613 216.12 34.88 217.656C33.9413 219.192 33.472 220.813 33.472 222.52C33.472 224.909 34.2827 226.787 35.904 228.152C37.5253 229.517 39.7867 230.2 42.688 230.2ZM123.975 190.2V235H118.087V199.992L103.431 224.376H102.663L88.007 200.056V235H82.055V190.2H88.775L103.047 213.88L117.255 190.2H123.975ZM157.427 230.968C154.142 234.211 150.152 235.832 145.459 235.832C140.766 235.832 136.776 234.211 133.491 230.968C130.248 227.725 128.627 223.736 128.627 219C128.627 214.264 130.248 210.275 133.491 207.032C136.776 203.789 140.766 202.168 145.459 202.168C150.152 202.168 154.142 203.789 157.427 207.032C160.712 210.275 162.355 214.264 162.355 219C162.355 223.736 160.712 227.725 157.427 230.968ZM145.459 230.392C148.659 230.392 151.347 229.304 153.523 227.128C155.699 224.952 156.787 222.243 156.787 219C156.787 215.757 155.699 213.048 153.523 210.872C151.347 208.696 148.659 207.608 145.459 207.608C142.302 207.608 139.635 208.696 137.459 210.872C135.283 213.048 134.195 215.757 134.195 219C134.195 222.243 135.283 224.952 137.459 227.128C139.635 229.304 142.302 230.392 145.459 230.392ZM184.023 202.168C188.503 202.168 192.322 203.811 195.479 207.096C198.636 210.339 200.215 214.307 200.215 219C200.215 223.693 198.636 227.683 195.479 230.968C192.322 234.211 188.503 235.832 184.023 235.832C178.732 235.832 174.7 233.72 171.927 229.496V235H166.359V190.2H171.927V208.504C174.7 204.28 178.732 202.168 184.023 202.168ZM183.319 230.456C186.519 230.456 189.207 229.368 191.383 227.192C193.559 224.973 194.647 222.243 194.647 219C194.647 215.757 193.559 213.048 191.383 210.872C189.207 208.653 186.519 207.544 183.319 207.544C180.076 207.544 177.367 208.653 175.191 210.872C173.015 213.048 171.927 215.757 171.927 219C171.927 222.243 173.015 224.973 175.191 227.192C177.367 229.368 180.076 230.456 183.319 230.456ZM207.115 197.176C206.048 197.176 205.152 196.813 204.427 196.088C203.702 195.363 203.339 194.488 203.339 193.464C203.339 192.44 203.702 191.565 204.427 190.84C205.152 190.072 206.048 189.688 207.115 189.688C208.139 189.688 209.014 190.072 209.739 190.84C210.464 191.565 210.827 192.44 210.827 193.464C210.827 194.488 210.464 195.363 209.739 196.088C209.014 196.813 208.139 197.176 207.115 197.176ZM204.299 235V203H209.867V235H204.299ZM215.801 235V188.28H221.37V235H215.801ZM231.208 221.56C231.763 224.419 233.064 226.637 235.112 228.216C237.203 229.795 239.763 230.584 242.792 230.584C247.016 230.584 250.088 229.027 252.008 225.912L256.744 228.6C253.629 233.421 248.936 235.832 242.664 235.832C237.587 235.832 233.448 234.253 230.248 231.096C227.091 227.896 225.512 223.864 225.512 219C225.512 214.179 227.069 210.168 230.184 206.968C233.299 203.768 237.331 202.168 242.28 202.168C246.973 202.168 250.792 203.832 253.736 207.16C256.723 210.445 258.216 214.413 258.216 219.064C258.216 219.875 258.152 220.707 258.024 221.56H231.208ZM242.28 207.416C239.293 207.416 236.819 208.269 234.856 209.976C232.893 211.64 231.677 213.88 231.208 216.696H252.584C252.115 213.667 250.92 211.363 249 209.784C247.08 208.205 244.84 207.416 242.28 207.416Z" fill="white"/>
<path d="M189.04 52.52H187.184L186.896 54.28H188.768L188.576 55.432H186.704L186.24 58.2H185.024L185.488 55.432H183.536L183.072 58.2H181.84L182.304 55.432H180.448L180.64 54.28H182.496L182.784 52.52H180.912L181.104 51.352H182.976L183.44 48.6H184.672L184.208 51.352H186.16L186.624 48.6H187.84L187.376 51.352H189.232L189.04 52.52ZM185.68 54.28L185.968 52.52H184.016L183.728 54.28H185.68ZM197.311 59L196.399 56.488H191.359L190.447 59H188.863L193.039 47.8H194.719L198.895 59H197.311ZM191.871 55.096H195.887L193.871 49.576L191.871 55.096ZM204.748 53.208C205.292 53.4853 205.719 53.8587 206.028 54.328C206.337 54.7973 206.492 55.3307 206.492 55.928C206.492 56.952 206.135 57.7573 205.42 58.344C204.705 58.92 203.783 59.208 202.652 59.208C201.532 59.208 200.615 58.92 199.9 58.344C199.185 57.7573 198.828 56.952 198.828 55.928C198.828 55.3307 198.983 54.7973 199.292 54.328C199.601 53.8587 200.028 53.4853 200.572 53.208C199.655 52.632 199.196 51.816 199.196 50.76C199.196 49.7467 199.532 48.968 200.204 48.424C200.887 47.8693 201.703 47.592 202.652 47.592C203.612 47.592 204.428 47.8693 205.1 48.424C205.783 48.968 206.124 49.7467 206.124 50.76C206.124 51.816 205.665 52.632 204.748 53.208ZM202.652 49.016C202.087 49.016 201.612 49.1653 201.228 49.464C200.855 49.7627 200.668 50.2053 200.668 50.792C200.668 51.3573 200.86 51.8 201.244 52.12C201.628 52.4293 202.097 52.584 202.652 52.584C203.207 52.584 203.676 52.4293 204.06 52.12C204.444 51.8 204.636 51.3573 204.636 50.792C204.636 50.2053 204.449 49.7627 204.076 49.464C203.703 49.1653 203.228 49.016 202.652 49.016ZM202.652 57.784C203.367 57.784 203.937 57.6187 204.364 57.288C204.801 56.9467 205.02 56.4613 205.02 55.832C205.02 55.2133 204.801 54.7387 204.364 54.408C203.937 54.0667 203.367 53.896 202.652 53.896C201.948 53.896 201.377 54.0667 200.94 54.408C200.513 54.7387 200.3 55.2133 200.3 55.832C200.3 56.4613 200.513 56.9467 200.94 57.288C201.377 57.6187 201.948 57.784 202.652 57.784ZM214.103 49.208H209.143V52.84H213.895V54.248H209.143V59H207.655V47.8H214.103V49.208ZM219.633 47.8C221.158 47.8 222.422 48.344 223.425 49.432C224.438 50.5093 224.945 51.832 224.945 53.4C224.945 54.968 224.438 56.296 223.425 57.384C222.422 58.4613 221.158 59 219.633 59H215.265V47.8H219.633ZM219.633 57.592C220.774 57.592 221.708 57.192 222.433 56.392C223.158 55.592 223.521 54.5947 223.521 53.4C223.521 52.2053 223.158 51.208 222.433 50.408C221.708 49.608 220.774 49.208 219.633 49.208H216.753V57.592H219.633ZM229.653 52.392C230.506 52.552 231.205 52.92 231.749 53.496C232.293 54.072 232.565 54.8027 232.565 55.688C232.565 56.776 232.192 57.6347 231.445 58.264C230.698 58.8933 229.792 59.208 228.725 59.208C227.872 59.208 227.114 59.016 226.453 58.632C225.792 58.2373 225.322 57.672 225.045 56.936L226.293 56.2C226.624 57.2347 227.434 57.752 228.725 57.752C229.418 57.752 229.984 57.5707 230.421 57.208C230.858 56.8453 231.077 56.3387 231.077 55.688C231.077 55.0373 230.858 54.5307 230.421 54.168C229.984 53.7947 229.418 53.608 228.725 53.608H228.341L227.749 52.696L230.341 49.192H225.365V47.8H232.085V49.112L229.653 52.392ZM233.048 59V57.784L237.001 53.752C238.057 52.696 238.585 51.7893 238.585 51.032C238.585 50.4027 238.393 49.912 238.009 49.56C237.624 49.208 237.155 49.032 236.601 49.032C235.545 49.032 234.776 49.5333 234.296 50.536L233.048 49.8C233.4 49.0747 233.886 48.5253 234.504 48.152C235.134 47.7787 235.827 47.592 236.584 47.592C237.523 47.592 238.339 47.9013 239.033 48.52C239.726 49.1387 240.073 49.9707 240.073 51.016C240.073 52.1467 239.406 53.3787 238.073 54.712L235.208 57.56H240.281V59H233.048Z" fill="white"/>
<path d="M10.5 128V227.5C10.5 239.65 20.3497 249.5 32.5 249.5H255.5C267.65 249.5 277.5 239.65 277.5 227.5V190C277.5 177.85 267.65 168 255.5 168H196C183.85 168 174 158.15 174 146V128C174 115.85 164.15 106 152 106H32.5C20.3497 106 10.5 115.85 10.5 128Z" stroke="white" stroke-width="2"/>
<rect x="141" y="40" width="26" height="26" rx="7" fill="#A8FD32" stroke="#1C1C1C" stroke-width="2"/>
<rect x="187.148" y="108.148" width="86.8889" height="47.7037" rx="23.8519" fill="white"/>
<rect x="191.407" y="112.407" width="39.1852" height="39.1852" rx="19.5926" fill="#A8FD32"/>
<rect x="191.407" y="112.407" width="39.1852" height="39.1852" rx="19.5926" stroke="#1C1C1C" stroke-width="1.7037"/>
<rect x="187.148" y="108.148" width="86.8889" height="47.7037" rx="23.8519" stroke="#1C1C1C" stroke-width="1.7037"/>
<path d="M268 78.5V12.5H367V78.5H268Z" stroke="white" stroke-width="2"/>
<rect x="265" y="76" width="6" height="6" fill="white"/>
<rect x="265" y="10" width="6" height="6" fill="white"/>
<rect x="364" y="10" width="6" height="6" fill="white"/>
<rect x="364" y="76" width="6" height="6" fill="white"/>
<path d="M337.11 77.7289C335.735 76.8107 333.733 77.7989 333.882 79.586L333.925 80.1072C334.588 88.0596 335.988 95.9379 338.11 103.647C338.616 105.482 341.156 105.641 341.927 103.939L345.12 96.8935C345.425 96.22 346.166 95.7876 346.971 95.8738L354.87 96.7198C356.684 96.9139 357.965 94.7 356.512 93.2972C350.679 87.6658 344.334 82.5548 337.554 78.026L337.11 77.7289Z" fill="white" stroke="#1C1C1C" stroke-width="1.5"/>
<defs>
<linearGradient id="paint0_linear_1116_19734" x1="146" y1="53" x2="10" y2="53" gradientUnits="userSpaceOnUse">
<stop stop-color="#A8FD32"/>
<stop offset="1" stop-color="#A8FD32" stop-opacity="0"/>
</linearGradient>
<clipPath id="clip0_1116_19734">
<rect x="10" y="43" width="130" height="20" rx="5" fill="white"/>
</clipPath>
</defs>
</svg>
