<svg width="380" height="260" viewBox="0 0 380 260" fill="none" xmlns="http://www.w3.org/2000/svg">
<g clip-path="url(#clip0_1116_19617)">
<rect width="380" height="260" rx="21" fill="#FFC700"/>
<rect x="-8.41106" y="99.5889" width="229.091" height="30.8894" rx="15.4447" fill="white"/>
<path d="M14.1809 112.11H15.8205V121.533H14.1809V119.912C13.3642 121.156 12.1769 121.778 10.619 121.778C9.29974 121.778 8.17526 121.301 7.24552 120.346C6.31578 119.378 5.85091 118.204 5.85091 116.822C5.85091 115.44 6.31578 114.271 7.24552 113.316C8.17526 112.349 9.29974 111.865 10.619 111.865C12.1769 111.865 13.3642 112.487 14.1809 113.731V112.11ZM10.8263 120.195C11.7811 120.195 12.5789 119.875 13.2197 119.234C13.8605 118.581 14.1809 117.777 14.1809 116.822C14.1809 115.867 13.8605 115.069 13.2197 114.428C12.5789 113.775 11.7811 113.448 10.8263 113.448C9.88396 113.448 9.09243 113.775 8.45167 114.428C7.8109 115.069 7.49052 115.867 7.49052 116.822C7.49052 117.777 7.8109 118.581 8.45167 119.234C9.09243 119.875 9.88396 120.195 10.8263 120.195ZM24.2599 112.11H25.8996V121.533H24.2599V117.594H19.3788V121.533H17.7392V112.11H19.3788V116.03H24.2599V112.11ZM35.6322 112.11H37.2718V121.533H35.6322V119.912C34.8155 121.156 33.6282 121.778 32.0703 121.778C30.7511 121.778 29.6266 121.301 28.6969 120.346C27.7671 119.378 27.3023 118.204 27.3023 116.822C27.3023 115.44 27.7671 114.271 28.6969 113.316C29.6266 112.349 30.7511 111.865 32.0703 111.865C33.6282 111.865 34.8155 112.487 35.6322 113.731V112.11ZM32.2776 120.195C33.2325 120.195 34.0303 119.875 34.6711 119.234C35.3118 118.581 35.6322 117.777 35.6322 116.822C35.6322 115.867 35.3118 115.069 34.6711 114.428C34.0303 113.775 33.2325 113.448 32.2776 113.448C31.3353 113.448 30.5438 113.775 29.903 114.428C29.2622 115.069 28.9419 115.867 28.9419 116.822C28.9419 117.777 29.2622 118.581 29.903 119.234C30.5438 119.875 31.3353 120.195 32.2776 120.195ZM47.0494 112.11V121.533H45.4098V113.693H41.6971V117.538C41.6971 119.083 41.383 120.164 40.7548 120.779C40.1391 121.382 39.2659 121.634 38.1352 121.533V119.988C38.776 120.076 39.2534 119.938 39.5675 119.573C39.8942 119.196 40.0575 118.505 40.0575 117.5V112.11H47.0494ZM55.8095 112.11H57.1287V121.533H55.508V114.918L50.2876 121.533H48.9684V112.11H50.5892V118.725L55.8095 112.11ZM64.1476 116.709C65.1904 117.136 65.7118 117.883 65.7118 118.951C65.7118 119.743 65.3977 120.415 64.7695 120.968C64.1413 121.508 63.2492 121.778 62.0933 121.778C60.2087 121.778 58.9461 121.024 58.3053 119.517L59.6811 118.706C60.0454 119.737 60.8558 120.252 62.1122 120.252C62.7404 120.252 63.2241 120.12 63.5633 119.856C63.9151 119.579 64.091 119.228 64.091 118.801C64.091 118.424 63.9465 118.116 63.6576 117.877C63.3812 117.638 63.0042 117.519 62.5268 117.519H61.151V116.03H62.1687C62.6462 116.03 63.0168 115.917 63.2806 115.691C63.5445 115.452 63.6764 115.132 63.6764 114.73C63.6764 114.328 63.5194 114.001 63.2053 113.75C62.9037 113.499 62.4828 113.373 61.9426 113.373C60.8872 113.373 60.171 113.819 59.7941 114.711L58.4561 113.938C59.122 112.556 60.2841 111.865 61.9426 111.865C62.9728 111.865 63.7832 112.129 64.3737 112.657C64.9768 113.184 65.2783 113.831 65.2783 114.598C65.2783 115.553 64.9014 116.256 64.1476 116.709ZM77.3448 116.69C78.3122 117.092 78.7959 117.821 78.7959 118.876C78.7959 119.655 78.5321 120.296 78.0044 120.798C77.4893 121.288 76.748 121.533 75.7806 121.533H71.0691V112.11H75.4036C76.3459 112.11 77.0747 112.349 77.5898 112.826C78.1049 113.291 78.3625 113.907 78.3625 114.673C78.3625 115.578 78.0232 116.25 77.3448 116.69ZM75.3283 113.58H72.671V116.049H75.3283C76.2831 116.049 76.7606 115.628 76.7606 114.786C76.7606 113.982 76.2831 113.58 75.3283 113.58ZM75.6863 120.044C76.1638 120.044 76.5281 119.931 76.7794 119.705C77.0432 119.479 77.1752 119.159 77.1752 118.744C77.1752 118.355 77.0432 118.053 76.7794 117.839C76.5281 117.613 76.1638 117.5 75.6863 117.5H72.671V120.044H75.6863ZM85.0887 116.709C86.1315 117.136 86.653 117.883 86.653 118.951C86.653 119.743 86.3389 120.415 85.7107 120.968C85.0825 121.508 84.1904 121.778 83.0345 121.778C81.1499 121.778 79.8872 121.024 79.2465 119.517L80.6222 118.706C80.9866 119.737 81.797 120.252 83.0534 120.252C83.6816 120.252 84.1653 120.12 84.5045 119.856C84.8563 119.579 85.0322 119.228 85.0322 118.801C85.0322 118.424 84.8877 118.116 84.5987 117.877C84.3223 117.638 83.9454 117.519 83.468 117.519H82.0922V116.03H83.1099C83.5873 116.03 83.958 115.917 84.2218 115.691C84.4857 115.452 84.6176 115.132 84.6176 114.73C84.6176 114.328 84.4605 114.001 84.1464 113.75C83.8449 113.499 83.424 113.373 82.8837 113.373C81.8284 113.373 81.1122 113.819 80.7353 114.711L79.3972 113.938C80.0631 112.556 81.2253 111.865 82.8837 111.865C83.914 111.865 84.7244 112.129 85.3149 112.657C85.918 113.184 86.2195 113.831 86.2195 114.598C86.2195 115.553 85.8426 116.256 85.0887 116.709ZM95.6664 112.11H97.306V121.533H95.6664V119.912C94.8497 121.156 93.6624 121.778 92.1045 121.778C90.7852 121.778 89.6608 121.301 88.731 120.346C87.8013 119.378 87.3364 118.204 87.3364 116.822C87.3364 115.44 87.8013 114.271 88.731 113.316C89.6608 112.349 90.7852 111.865 92.1045 111.865C93.6624 111.865 94.8497 112.487 95.6664 113.731V112.11ZM92.3118 120.195C93.2666 120.195 94.0645 119.875 94.7052 119.234C95.346 118.581 95.6664 117.777 95.6664 116.822C95.6664 115.867 95.346 115.069 94.7052 114.428C94.0645 113.775 93.2666 113.448 92.3118 113.448C91.3695 113.448 90.5779 113.775 89.9372 114.428C89.2964 115.069 88.976 115.867 88.976 116.822C88.976 117.777 89.2964 118.581 89.9372 119.234C90.5779 119.875 91.3695 120.195 92.3118 120.195ZM106.066 112.11H107.385V121.533H105.764V114.918L100.544 121.533H99.2247V112.11H100.845V118.725L106.066 112.11ZM118.738 112.11V121.533H117.137V114.692L114.14 119.517H113.933L110.936 114.692V121.533H109.315V112.11H111.068L114.027 116.878L116.986 112.11H118.738ZM128.629 120.346C127.662 121.301 126.487 121.778 125.105 121.778C123.723 121.778 122.548 121.301 121.581 120.346C120.626 119.391 120.148 118.216 120.148 116.822C120.148 115.427 120.626 114.252 121.581 113.297C122.548 112.343 123.723 111.865 125.105 111.865C126.487 111.865 127.662 112.343 128.629 113.297C129.597 114.252 130.08 115.427 130.08 116.822C130.08 118.216 129.597 119.391 128.629 120.346ZM125.105 120.176C126.047 120.176 126.839 119.856 127.479 119.215C128.12 118.574 128.441 117.777 128.441 116.822C128.441 115.867 128.12 115.069 127.479 114.428C126.839 113.787 126.047 113.467 125.105 113.467C124.175 113.467 123.39 113.787 122.749 114.428C122.108 115.069 121.788 115.867 121.788 116.822C121.788 117.777 122.108 118.574 122.749 119.215C123.39 119.856 124.175 120.176 125.105 120.176ZM139.183 119.969H140.484V124.059H138.863V121.533H131.796V124.059H130.175V119.969H131.325C131.928 119.14 132.229 117.978 132.229 116.482V112.11H139.183V119.969ZM133.19 119.969H137.563V113.637H133.85V116.482C133.85 117.89 133.63 119.052 133.19 119.969ZM142.467 117.576C142.631 118.417 143.014 119.071 143.617 119.536C144.232 120 144.986 120.233 145.878 120.233C147.122 120.233 148.027 119.774 148.592 118.857L149.987 119.649C149.07 121.068 147.688 121.778 145.841 121.778C144.346 121.778 143.127 121.313 142.185 120.384C141.255 119.441 140.79 118.254 140.79 116.822C140.79 115.402 141.249 114.221 142.166 113.279C143.083 112.336 144.27 111.865 145.728 111.865C147.11 111.865 148.234 112.355 149.101 113.335C149.981 114.303 150.42 115.471 150.42 116.841C150.42 117.079 150.401 117.324 150.364 117.576H142.467ZM145.728 113.411C144.848 113.411 144.119 113.662 143.541 114.164C142.964 114.654 142.605 115.314 142.467 116.143H148.762C148.624 115.251 148.272 114.573 147.706 114.108C147.141 113.643 146.481 113.411 145.728 113.411ZM153.285 110.697V109.264H158.373V110.697H153.285ZM158.581 112.11H159.9V121.533H158.279V114.918L153.059 121.533H151.74V112.11H153.36V118.725L158.581 112.11ZM166.259 121.778C164.839 121.778 163.658 121.307 162.716 120.365C161.774 119.41 161.303 118.229 161.303 116.822C161.303 115.415 161.774 114.24 162.716 113.297C163.658 112.343 164.839 111.865 166.259 111.865C167.189 111.865 168.024 112.091 168.766 112.544C169.507 112.983 170.06 113.58 170.424 114.334L169.048 115.126C168.81 114.623 168.439 114.221 167.936 113.919C167.446 113.618 166.887 113.467 166.259 113.467C165.317 113.467 164.525 113.787 163.885 114.428C163.256 115.069 162.942 115.867 162.942 116.822C162.942 117.764 163.256 118.556 163.885 119.196C164.525 119.837 165.317 120.157 166.259 120.157C166.887 120.157 167.453 120.013 167.955 119.724C168.458 119.422 168.841 119.02 169.105 118.518L170.5 119.328C170.097 120.069 169.52 120.666 168.766 121.119C168.012 121.558 167.176 121.778 166.259 121.778ZM178.416 112.11V113.693H175.213V121.533H173.573V113.693H170.35V112.11H178.416ZM185.564 116.69C186.531 117.092 187.015 117.821 187.015 118.876C187.015 119.655 186.751 120.296 186.223 120.798C185.708 121.288 184.967 121.533 183.999 121.533H179.288V112.11H183.623C184.565 112.11 185.294 112.349 185.809 112.826C186.324 113.291 186.581 113.907 186.581 114.673C186.581 115.578 186.242 116.25 185.564 116.69ZM183.547 113.58H180.89V116.049H183.547C184.502 116.049 184.979 115.628 184.979 114.786C184.979 113.982 184.502 113.58 183.547 113.58ZM183.905 120.044C184.383 120.044 184.747 119.931 184.998 119.705C185.262 119.479 185.394 119.159 185.394 118.744C185.394 118.355 185.262 118.053 184.998 117.839C184.747 117.613 184.383 117.5 183.905 117.5H180.89V120.044H183.905ZM195.06 112.11H196.38V121.533H194.759V114.918L189.538 121.533H188.219V112.11H189.84V118.725L195.06 112.11ZM205.358 112.11V121.533H203.738V118.141H202.362L199.723 121.533H197.726L200.477 118.047C199.774 117.871 199.202 117.519 198.762 116.991C198.322 116.464 198.103 115.848 198.103 115.144C198.103 114.277 198.41 113.555 199.026 112.977C199.642 112.399 200.414 112.11 201.344 112.11H205.358ZM201.401 116.671H203.738V113.637H201.401C200.936 113.637 200.54 113.775 200.213 114.051C199.887 114.328 199.723 114.698 199.723 115.163C199.723 115.616 199.887 115.98 200.213 116.256C200.54 116.533 200.936 116.671 201.401 116.671Z" fill="#1C1C1C"/>
<rect x="-8.41106" y="99.5889" width="229.091" height="30.8894" rx="15.4447" stroke="#1C1C1C" stroke-width="1.17788"/>
<rect x="212.435" y="99.5889" width="92.0912" height="30.8894" rx="15.4447" fill="white"/>
<path d="M231.653 121.778C230.233 121.778 229.052 121.307 228.11 120.365C227.168 119.41 226.697 118.229 226.697 116.822C226.697 115.415 227.168 114.24 228.11 113.297C229.052 112.343 230.233 111.865 231.653 111.865C232.583 111.865 233.418 112.091 234.16 112.544C234.901 112.983 235.454 113.58 235.818 114.334L234.442 115.126C234.204 114.623 233.833 114.221 233.33 113.919C232.84 113.618 232.281 113.467 231.653 113.467C230.711 113.467 229.919 113.787 229.279 114.428C228.65 115.069 228.336 115.867 228.336 116.822C228.336 117.764 228.65 118.556 229.279 119.196C229.919 119.837 230.711 120.157 231.653 120.157C232.281 120.157 232.847 120.013 233.349 119.724C233.852 119.422 234.235 119.02 234.499 118.518L235.893 119.328C235.491 120.069 234.913 120.666 234.16 121.119C233.406 121.558 232.57 121.778 231.653 121.778ZM243.467 112.11H245.107V121.533H243.467V120.176C242.801 121.244 241.784 121.778 240.414 121.778C239.309 121.778 238.423 121.433 237.757 120.742C237.091 120.038 236.758 119.09 236.758 117.896V112.11H238.398V117.802C238.398 118.568 238.605 119.165 239.02 119.592C239.434 120.007 240.006 120.214 240.735 120.214C241.551 120.214 242.211 119.963 242.713 119.46C243.216 118.945 243.467 118.16 243.467 117.104V112.11ZM248.433 114.654C248.433 115.019 248.615 115.314 248.979 115.54C249.344 115.754 249.783 115.93 250.298 116.068C250.814 116.193 251.329 116.344 251.844 116.52C252.359 116.683 252.799 116.972 253.163 117.387C253.527 117.789 253.71 118.311 253.71 118.951C253.71 119.806 253.377 120.49 252.711 121.006C252.057 121.521 251.216 121.778 250.185 121.778C249.268 121.778 248.483 121.577 247.83 121.175C247.176 120.773 246.711 120.239 246.435 119.573L247.848 118.763C247.999 119.215 248.282 119.573 248.697 119.837C249.111 120.101 249.607 120.233 250.185 120.233C250.726 120.233 251.172 120.132 251.523 119.931C251.875 119.718 252.051 119.391 252.051 118.951C252.051 118.587 251.869 118.298 251.505 118.084C251.14 117.858 250.701 117.682 250.185 117.557C249.67 117.418 249.155 117.261 248.64 117.086C248.125 116.91 247.685 116.621 247.321 116.219C246.956 115.817 246.774 115.301 246.774 114.673C246.774 113.857 247.088 113.184 247.717 112.657C248.357 112.129 249.155 111.865 250.11 111.865C250.876 111.865 251.555 112.041 252.145 112.393C252.748 112.732 253.201 113.21 253.502 113.825L252.127 114.598C251.787 113.794 251.115 113.392 250.11 113.392C249.645 113.392 249.249 113.505 248.923 113.731C248.596 113.945 248.433 114.252 248.433 114.654ZM259.844 113.693H257.337V118.801C257.337 119.265 257.425 119.598 257.601 119.799C257.789 119.988 258.072 120.088 258.449 120.101C258.826 120.101 259.291 120.088 259.844 120.063V121.533C258.411 121.722 257.362 121.609 256.696 121.194C256.03 120.767 255.697 119.969 255.697 118.801V113.693H253.832V112.11H255.697V109.962L257.337 109.472V112.11H259.844V113.693ZM268.543 108.341H270.183V121.533H268.543V119.912C267.726 121.156 266.539 121.778 264.981 121.778C263.662 121.778 262.537 121.301 261.608 120.346C260.678 119.378 260.213 118.204 260.213 116.822C260.213 115.44 260.678 114.271 261.608 113.316C262.537 112.349 263.662 111.865 264.981 111.865C266.539 111.865 267.726 112.487 268.543 113.731V108.341ZM265.188 120.195C266.143 120.195 266.941 119.875 267.582 119.234C268.223 118.581 268.543 117.777 268.543 116.822C268.543 115.867 268.223 115.069 267.582 114.428C266.941 113.775 266.143 113.448 265.188 113.448C264.246 113.448 263.455 113.775 262.814 114.428C262.173 115.069 261.853 115.867 261.853 116.822C261.853 117.777 262.173 118.581 262.814 119.234C263.455 119.875 264.246 120.195 265.188 120.195ZM273.251 117.576C273.414 118.417 273.798 119.071 274.401 119.536C275.016 120 275.77 120.233 276.662 120.233C277.906 120.233 278.811 119.774 279.376 118.857L280.771 119.649C279.853 121.068 278.471 121.778 276.624 121.778C275.129 121.778 273.911 121.313 272.968 120.384C272.039 119.441 271.574 118.254 271.574 116.822C271.574 115.402 272.032 114.221 272.949 113.279C273.867 112.336 275.054 111.865 276.511 111.865C277.893 111.865 279.018 112.355 279.885 113.335C280.764 114.303 281.204 115.471 281.204 116.841C281.204 117.079 281.185 117.324 281.147 117.576H273.251ZM276.511 113.411C275.632 113.411 274.903 113.662 274.325 114.164C273.747 114.654 273.389 115.314 273.251 116.143H279.546C279.407 115.251 279.056 114.573 278.49 114.108C277.925 113.643 277.265 113.411 276.511 113.411ZM288.751 112.11H290.523L286.754 121.533H284.831L281.062 112.11H282.834L285.793 119.781L288.751 112.11Z" fill="#1C1C1C"/>
<rect x="212.435" y="99.5889" width="92.0912" height="30.8894" rx="15.4447" stroke="#1C1C1C" stroke-width="1.17788"/>
<rect x="296.281" y="99.5889" width="120.091" height="30.8894" rx="15.4447" fill="white"/>
<path d="M319.043 121.533H317.007L312.711 117.067V121.533H311.071V112.11H312.711V116.275L316.781 112.11H318.892L314.388 116.671L319.043 121.533ZM326.939 112.11H328.579V121.533H326.939V119.912C326.123 121.156 324.936 121.778 323.378 121.778C322.058 121.778 320.934 121.301 320.004 120.346C319.074 119.378 318.61 118.204 318.61 116.822C318.61 115.44 319.074 114.271 320.004 113.316C320.934 112.349 322.058 111.865 323.378 111.865C324.936 111.865 326.123 112.487 326.939 113.731V112.11ZM323.585 120.195C324.54 120.195 325.338 119.875 325.978 119.234C326.619 118.581 326.939 117.777 326.939 116.822C326.939 115.867 326.619 115.069 325.978 114.428C325.338 113.775 324.54 113.448 323.585 113.448C322.643 113.448 321.851 113.775 321.21 114.428C320.57 115.069 320.249 115.867 320.249 116.822C320.249 117.777 320.57 118.581 321.21 119.234C321.851 119.875 322.643 120.195 323.585 120.195ZM335.699 111.865C337.019 111.865 338.143 112.349 339.073 113.316C340.003 114.271 340.467 115.44 340.467 116.822C340.467 118.204 340.003 119.378 339.073 120.346C338.143 121.301 337.019 121.778 335.699 121.778C334.141 121.778 332.954 121.156 332.137 119.912V125.302H330.498V112.11H332.137V113.731C332.954 112.487 334.141 111.865 335.699 111.865ZM335.492 120.195C336.434 120.195 337.226 119.875 337.867 119.234C338.507 118.581 338.828 117.777 338.828 116.822C338.828 115.867 338.507 115.069 337.867 114.428C337.226 113.775 336.434 113.448 335.492 113.448C334.537 113.448 333.739 113.775 333.099 114.428C332.458 115.069 332.137 115.867 332.137 116.822C332.137 117.777 332.458 118.581 333.099 119.234C333.739 119.875 334.537 120.195 335.492 120.195ZM348.501 112.11V113.693H345.297V121.533H343.658V113.693H340.435V112.11H348.501ZM353.349 115.502C354.291 115.502 355.07 115.785 355.686 116.351C356.314 116.903 356.628 117.626 356.628 118.518C356.628 119.41 356.314 120.139 355.686 120.704C355.07 121.257 354.291 121.533 353.349 121.533H349.373V112.11H351.012V115.502H353.349ZM357.853 112.11H359.493V121.533H357.853V112.11ZM353.349 120.007C353.814 120.007 354.203 119.875 354.518 119.611C354.844 119.335 355.008 118.97 355.008 118.518C355.008 118.066 354.844 117.701 354.518 117.425C354.203 117.148 353.814 117.01 353.349 117.01H351.012V120.007H353.349ZM373.739 112.11V121.533H372.099V113.674H367.218V121.533H365.579V112.11H373.739ZM382.247 112.11H383.999L380.155 122.117C379.753 123.185 379.187 123.996 378.459 124.549C377.73 125.114 376.901 125.365 375.971 125.302V123.776C377.127 123.864 377.975 123.236 378.515 121.891L378.666 121.552L374.576 112.11H376.31L379.533 119.498L382.247 112.11ZM391.869 112.11V113.693H388.665V121.533H387.026V113.693H383.803V112.11H391.869ZM399.582 112.11H400.901V121.533H399.28V114.918L394.06 121.533H392.741V112.11H394.361V118.725L399.582 112.11Z" fill="#1C1C1C"/>
<rect x="296.281" y="99.5889" width="120.091" height="30.8894" rx="15.4447" stroke="#1C1C1C" stroke-width="1.17788"/>
<rect x="-14.4111" y="130.089" width="112.091" height="30.8894" rx="15.4447" fill="white"/>
<path d="M9.23624 152.033L8.16201 149.074H2.22551L1.15129 152.033H-0.714466L4.20435 138.841H6.18318L11.102 152.033H9.23624ZM2.82859 147.435H7.55894L5.18434 140.933L2.82859 147.435ZM12.3756 153.918H11.3956L18.934 136.956H19.914L12.3756 153.918ZM29.0226 145.192C29.6257 145.481 30.1032 145.896 30.4549 146.436C30.8193 146.976 31.0015 147.598 31.0015 148.302C31.0015 149.357 30.6308 150.243 29.8896 150.959C29.1483 151.675 28.2437 152.033 27.1757 152.033H21.4842V138.841H26.7611C27.7914 138.841 28.6646 139.186 29.3807 139.878C30.0969 140.569 30.4549 141.423 30.4549 142.441C30.4549 143.609 29.9775 144.526 29.0226 145.192ZM26.7611 140.481H23.2369V144.514H26.7611C27.3139 144.514 27.7788 144.319 28.1557 143.929C28.5327 143.54 28.7211 143.062 28.7211 142.497C28.7211 141.944 28.5264 141.473 28.1369 141.084C27.76 140.682 27.3014 140.481 26.7611 140.481ZM27.1757 150.394C27.7662 150.394 28.2625 150.186 28.6646 149.772C29.0666 149.357 29.2676 148.848 29.2676 148.245C29.2676 147.655 29.0603 147.152 28.6457 146.737C28.2437 146.323 27.7537 146.116 27.1757 146.116H23.2369V150.394H27.1757ZM43.5008 142.61V144.193H40.297V152.033H38.6574V144.193H35.4347V142.61H43.5008ZM45.1538 148.076C45.3171 148.917 45.7004 149.571 46.3034 150.036C46.9191 150.5 47.6729 150.733 48.5649 150.733C49.8088 150.733 50.7134 150.274 51.2788 149.357L52.6734 150.149C51.7562 151.568 50.3742 152.278 48.5273 152.278C47.0321 152.278 45.8134 151.813 44.8711 150.884C43.9414 149.941 43.4765 148.754 43.4765 147.322C43.4765 145.902 43.9351 144.721 44.8523 143.779C45.7695 142.836 46.9568 142.365 48.4142 142.365C49.7962 142.365 50.9207 142.855 51.7876 143.835C52.6671 144.803 53.1068 145.971 53.1068 147.341C53.1068 147.579 53.088 147.824 53.0503 148.076H45.1538ZM48.4142 143.911C47.5347 143.911 46.806 144.162 46.228 144.664C45.6501 145.154 45.292 145.814 45.1538 146.643H51.4484C51.3102 145.751 50.9584 145.073 50.393 144.608C49.8276 144.143 49.168 143.911 48.4142 143.911ZM58.8366 152.278C57.4169 152.278 56.2359 151.807 55.2936 150.865C54.3513 149.91 53.8801 148.729 53.8801 147.322C53.8801 145.915 54.3513 144.74 55.2936 143.797C56.2359 142.843 57.4169 142.365 58.8366 142.365C59.7664 142.365 60.6019 142.591 61.3431 143.044C62.0844 143.483 62.6372 144.08 63.0016 144.834L61.6258 145.626C61.3871 145.123 61.0165 144.721 60.5139 144.419C60.0239 144.118 59.4648 143.967 58.8366 143.967C57.8943 143.967 57.1028 144.287 56.462 144.928C55.8338 145.569 55.5197 146.367 55.5197 147.322C55.5197 148.264 55.8338 149.056 56.462 149.696C57.1028 150.337 57.8943 150.657 58.8366 150.657C59.4648 150.657 60.0302 150.513 60.5328 150.224C61.0353 149.922 61.4185 149.52 61.6824 149.018L63.077 149.828C62.6749 150.569 62.097 151.166 61.3431 151.619C60.5893 152.058 59.7538 152.278 58.8366 152.278ZM70.9939 142.61V144.193H67.7901V152.033H66.1505V144.193H62.9278V142.61H70.9939ZM75.8419 146.002C76.7842 146.002 77.5632 146.285 78.1788 146.851C78.807 147.403 79.1211 148.126 79.1211 149.018C79.1211 149.91 78.807 150.639 78.1788 151.204C77.5632 151.757 76.7842 152.033 75.8419 152.033H71.8654V142.61H73.505V146.002H75.8419ZM80.3461 142.61H81.9857V152.033H80.3461V142.61ZM75.8419 150.507C76.3068 150.507 76.6963 150.375 77.0104 150.111C77.337 149.835 77.5004 149.47 77.5004 149.018C77.5004 148.566 77.337 148.201 77.0104 147.925C76.6963 147.648 76.3068 147.51 75.8419 147.51H73.505V150.507H75.8419Z" fill="#1C1C1C"/>
<rect x="-14.4111" y="130.089" width="112.091" height="30.8894" rx="15.4447" stroke="#1C1C1C" stroke-width="1.17788"/>
<rect x="89.4346" y="130.089" width="66.0912" height="30.8894" rx="15.4447" fill="white"/>
<path d="M110.594 152.278C108.597 152.278 106.944 151.619 105.638 150.299C104.344 148.98 103.697 147.359 103.697 145.437C103.697 143.515 104.344 141.894 105.638 140.575C106.944 139.256 108.597 138.596 110.594 138.596C111.8 138.596 112.906 138.885 113.911 139.463C114.929 140.041 115.72 140.82 116.286 141.8L114.759 142.686C114.382 141.957 113.817 141.379 113.063 140.952C112.322 140.512 111.499 140.292 110.594 140.292C109.074 140.292 107.83 140.782 106.863 141.762C105.908 142.742 105.43 143.967 105.43 145.437C105.43 146.895 105.908 148.113 106.863 149.093C107.83 150.073 109.074 150.563 110.594 150.563C111.499 150.563 112.322 150.35 113.063 149.922C113.817 149.483 114.382 148.905 114.759 148.189L116.286 149.056C115.733 150.036 114.948 150.821 113.93 151.411C112.912 151.989 111.8 152.278 110.594 152.278ZM120.749 152.278C119.794 152.278 118.952 152.077 118.224 151.675C117.495 151.273 116.961 150.689 116.622 149.922L118.11 149.056C118.5 150.061 119.379 150.563 120.749 150.563C121.591 150.563 122.25 150.362 122.728 149.96C123.205 149.558 123.444 148.961 123.444 148.17V138.841H125.178V148.17C125.178 149.489 124.757 150.507 123.915 151.223C123.086 151.926 122.03 152.278 120.749 152.278ZM139.607 138.841V152.033H137.873V141.724L133.557 148.905H133.331L129.015 141.743V152.033H127.262V138.841H129.241L133.444 145.814L137.628 138.841H139.607Z" fill="#1C1C1C"/>
<rect x="89.4346" y="130.089" width="66.0912" height="30.8894" rx="15.4447" stroke="#1C1C1C" stroke-width="1.17788"/>
<rect x="147.281" y="130.089" width="163.091" height="30.8894" rx="15.4447" fill="white"/>
<path d="M166.5 152.278C165.08 152.278 163.899 151.807 162.957 150.865C162.014 149.91 161.543 148.729 161.543 147.322C161.543 145.915 162.014 144.74 162.957 143.797C163.899 142.843 165.08 142.365 166.5 142.365C167.43 142.365 168.265 142.591 169.006 143.044C169.748 143.483 170.3 144.08 170.665 144.834L169.289 145.626C169.05 145.123 168.68 144.721 168.177 144.419C167.687 144.118 167.128 143.967 166.5 143.967C165.558 143.967 164.766 144.287 164.125 144.928C163.497 145.569 163.183 146.367 163.183 147.322C163.183 148.264 163.497 149.056 164.125 149.696C164.766 150.337 165.558 150.657 166.5 150.657C167.128 150.657 167.693 150.513 168.196 150.224C168.699 149.922 169.082 149.52 169.346 149.018L170.74 149.828C170.338 150.569 169.76 151.166 169.006 151.619C168.252 152.058 167.417 152.278 166.5 152.278ZM178.653 142.61H179.972V152.033H178.352V145.418L173.131 152.033H171.812V142.61H173.433V149.225L178.653 142.61ZM186.332 152.278C184.912 152.278 183.731 151.807 182.789 150.865C181.846 149.91 181.375 148.729 181.375 147.322C181.375 145.915 181.846 144.74 182.789 143.797C183.731 142.843 184.912 142.365 186.332 142.365C187.261 142.365 188.097 142.591 188.838 143.044C189.579 143.483 190.132 144.08 190.497 144.834L189.121 145.626C188.882 145.123 188.511 144.721 188.009 144.419C187.519 144.118 186.96 143.967 186.332 143.967C185.389 143.967 184.598 144.287 183.957 144.928C183.329 145.569 183.015 146.367 183.015 147.322C183.015 148.264 183.329 149.056 183.957 149.696C184.598 150.337 185.389 150.657 186.332 150.657C186.96 150.657 187.525 150.513 188.028 150.224C188.53 149.922 188.913 149.52 189.177 149.018L190.572 149.828C190.17 150.569 189.592 151.166 188.838 151.619C188.084 152.058 187.249 152.278 186.332 152.278ZM198.489 142.61V144.193H195.285V152.033H193.645V144.193H190.423V142.61H198.489ZM200.142 148.076C200.305 148.917 200.688 149.571 201.291 150.036C201.907 150.5 202.661 150.733 203.553 150.733C204.797 150.733 205.701 150.274 206.267 149.357L207.661 150.149C206.744 151.568 205.362 152.278 203.515 152.278C202.02 152.278 200.801 151.813 199.859 150.884C198.929 149.941 198.465 148.754 198.465 147.322C198.465 145.902 198.923 144.721 199.84 143.779C200.758 142.836 201.945 142.365 203.402 142.365C204.784 142.365 205.909 142.855 206.776 143.835C207.655 144.803 208.095 145.971 208.095 147.341C208.095 147.579 208.076 147.824 208.038 148.076H200.142ZM203.402 143.911C202.523 143.911 201.794 144.162 201.216 144.664C200.638 145.154 200.28 145.814 200.142 146.643H206.436C206.298 145.751 205.946 145.073 205.381 144.608C204.816 144.143 204.156 143.911 203.402 143.911ZM218.837 142.61V152.033H217.235V145.192L214.239 150.017H214.032L211.035 145.192V152.033H209.414V142.61H211.167L214.126 147.378L217.085 142.61H218.837ZM224.751 146.002C225.694 146.002 226.473 146.285 227.088 146.851C227.717 147.403 228.031 148.126 228.031 149.018C228.031 149.91 227.717 150.639 227.088 151.204C226.473 151.757 225.694 152.033 224.751 152.033H220.775V142.61H222.414V146.002H224.751ZM229.256 142.61H230.895V152.033H229.256V142.61ZM224.751 150.507C225.216 150.507 225.606 150.375 225.92 150.111C226.247 149.835 226.41 149.47 226.41 149.018C226.41 148.566 226.247 148.201 225.92 147.925C225.606 147.648 225.216 147.51 224.751 147.51H222.414V150.507H224.751ZM246.404 142.61V152.033H244.802V145.192L241.806 150.017H241.598L238.602 145.192V152.033H236.981V142.61H238.734L241.692 147.378L244.651 142.61H246.404ZM249.491 148.076C249.655 148.917 250.038 149.571 250.641 150.036C251.256 150.5 252.01 150.733 252.902 150.733C254.146 150.733 255.051 150.274 255.616 149.357L257.011 150.149C256.094 151.568 254.712 152.278 252.865 152.278C251.37 152.278 250.151 151.813 249.209 150.884C248.279 149.941 247.814 148.754 247.814 147.322C247.814 145.902 248.273 144.721 249.19 143.779C250.107 142.836 251.294 142.365 252.752 142.365C254.134 142.365 255.258 142.855 256.125 143.835C257.005 144.803 257.444 145.971 257.444 147.341C257.444 147.579 257.425 147.824 257.388 148.076H249.491ZM252.752 143.911C251.872 143.911 251.143 144.162 250.565 144.664C249.988 145.154 249.629 145.814 249.491 146.643H255.786C255.648 145.751 255.296 145.073 254.73 144.608C254.165 144.143 253.505 143.911 252.752 143.911ZM265.406 142.61V144.193H262.202V152.033H260.563V144.193H257.34V142.61H265.406ZM271.479 142.365C272.798 142.365 273.923 142.849 274.853 143.816C275.782 144.771 276.247 145.94 276.247 147.322C276.247 148.704 275.782 149.878 274.853 150.846C273.923 151.801 272.798 152.278 271.479 152.278C269.921 152.278 268.734 151.656 267.917 150.412V155.802H266.278V142.61H267.917V144.231C268.734 142.987 269.921 142.365 271.479 142.365ZM271.272 150.695C272.214 150.695 273.006 150.375 273.647 149.734C274.287 149.081 274.608 148.277 274.608 147.322C274.608 146.367 274.287 145.569 273.647 144.928C273.006 144.275 272.214 143.948 271.272 143.948C270.317 143.948 269.519 144.275 268.878 144.928C268.238 145.569 267.917 146.367 267.917 147.322C267.917 148.277 268.238 149.081 268.878 149.734C269.519 150.375 270.317 150.695 271.272 150.695ZM284.479 142.61H285.799V152.033H284.178V145.418L278.958 152.033H277.638V142.61H279.259V149.225L284.479 142.61ZM295.701 152.033H293.666L289.369 147.567V152.033H287.729V142.61H289.369V146.775L293.439 142.61H295.55L291.046 147.171L295.701 152.033Z" fill="#1C1C1C"/>
<rect x="147.281" y="130.089" width="163.091" height="30.8894" rx="15.4447" stroke="#1C1C1C" stroke-width="1.17788"/>
<rect x="302.127" y="130.089" width="103.091" height="30.8894" rx="15.4447" fill="white"/>
<path d="M323.098 142.61V144.193H318.556V152.033H316.917V142.61H323.098ZM330.812 142.61H332.131V152.033H330.51V145.418L325.29 152.033H323.971V142.61H325.591V149.225L330.812 142.61ZM342.222 142.61V152.033H340.582V144.174H335.701V152.033H334.061V142.61H342.222ZM352.105 150.846C351.138 151.801 349.963 152.278 348.581 152.278C347.199 152.278 346.024 151.801 345.057 150.846C344.102 149.891 343.624 148.716 343.624 147.322C343.624 145.927 344.102 144.752 345.057 143.797C346.024 142.843 347.199 142.365 348.581 142.365C349.963 142.365 351.138 142.843 352.105 143.797C353.073 144.752 353.556 145.927 353.556 147.322C353.556 148.716 353.073 149.891 352.105 150.846ZM348.581 150.676C349.523 150.676 350.315 150.356 350.956 149.715C351.596 149.074 351.917 148.277 351.917 147.322C351.917 146.367 351.596 145.569 350.956 144.928C350.315 144.287 349.523 143.967 348.581 143.967C347.651 143.967 346.866 144.287 346.225 144.928C345.584 145.569 345.264 146.367 345.264 147.322C345.264 148.277 345.584 149.074 346.225 149.715C346.866 150.356 347.651 150.676 348.581 150.676ZM361.566 142.61V144.193H358.363V152.033H356.723V144.193H353.5V142.61H361.566ZM363.219 148.076C363.383 148.917 363.766 149.571 364.369 150.036C364.985 150.5 365.739 150.733 366.631 150.733C367.874 150.733 368.779 150.274 369.344 149.357L370.739 150.149C369.822 151.568 368.44 152.278 366.593 152.278C365.098 152.278 363.879 151.813 362.937 150.884C362.007 149.941 361.542 148.754 361.542 147.322C361.542 145.902 362.001 144.721 362.918 143.779C363.835 142.836 365.022 142.365 366.48 142.365C367.862 142.365 368.986 142.855 369.853 143.835C370.733 144.803 371.172 145.971 371.172 147.341C371.172 147.579 371.154 147.824 371.116 148.076H363.219ZM366.48 143.911C365.6 143.911 364.872 144.162 364.294 144.664C363.716 145.154 363.358 145.814 363.219 146.643H369.514C369.376 145.751 369.024 145.073 368.459 144.608C367.893 144.143 367.234 143.911 366.48 143.911ZM377.378 147.209C378.421 147.636 378.942 148.383 378.942 149.451C378.942 150.243 378.628 150.915 378 151.468C377.372 152.008 376.48 152.278 375.324 152.278C373.439 152.278 372.176 151.524 371.536 150.017L372.911 149.206C373.276 150.237 374.086 150.752 375.342 150.752C375.971 150.752 376.454 150.62 376.794 150.356C377.145 150.079 377.321 149.728 377.321 149.301C377.321 148.924 377.177 148.616 376.888 148.377C376.611 148.138 376.235 148.019 375.757 148.019H374.381V146.53H375.399C375.876 146.53 376.247 146.417 376.511 146.191C376.775 145.952 376.907 145.632 376.907 145.23C376.907 144.828 376.75 144.501 376.436 144.25C376.134 143.999 375.713 143.873 375.173 143.873C374.117 143.873 373.401 144.319 373.024 145.211L371.686 144.438C372.352 143.056 373.514 142.365 375.173 142.365C376.203 142.365 377.013 142.629 377.604 143.157C378.207 143.684 378.509 144.331 378.509 145.098C378.509 146.053 378.132 146.756 377.378 147.209ZM384.13 146.002C385.072 146.002 385.851 146.285 386.467 146.851C387.095 147.403 387.409 148.126 387.409 149.018C387.409 149.91 387.095 150.639 386.467 151.204C385.851 151.757 385.072 152.033 384.13 152.033H380.153V142.61H381.793V146.002H384.13ZM388.634 142.61H390.274V152.033H388.634V142.61ZM384.13 150.507C384.595 150.507 384.984 150.375 385.298 150.111C385.625 149.835 385.788 149.47 385.788 149.018C385.788 148.566 385.625 148.201 385.298 147.925C384.984 147.648 384.595 147.51 384.13 147.51H381.793V150.507H384.13Z" fill="#1C1C1C"/>
<rect x="302.127" y="130.089" width="103.091" height="30.8894" rx="15.4447" stroke="#1C1C1C" stroke-width="1.17788"/>
</g>
<defs>
<clipPath id="clip0_1116_19617">
<rect width="380" height="260" rx="21" fill="white"/>
</clipPath>
</defs>
</svg>
