<svg width="380" height="260" viewBox="0 0 380 260" fill="none" xmlns="http://www.w3.org/2000/svg">
<g clip-path="url(#clip0_1116_20181)">
<rect width="380" height="260" rx="21" fill="#F6AFFD"/>
<path d="M54.592 150.832H34.752V165.36H53.76V170.992H34.752V190H28.8V145.2H54.592V150.832ZM61.48 152.176C60.4133 152.176 59.5173 151.813 58.792 151.088C58.0667 150.363 57.704 149.488 57.704 148.464C57.704 147.44 58.0667 146.565 58.792 145.84C59.5173 145.072 60.4133 144.688 61.48 144.688C62.504 144.688 63.3787 145.072 64.104 145.84C64.8293 146.565 65.192 147.44 65.192 148.464C65.192 149.488 64.8293 150.363 64.104 151.088C63.3787 151.813 62.504 152.176 61.48 152.176ZM58.664 190V158H64.232V190H58.664ZM97.9425 190H91.4145L82.4545 177.904L73.4305 190H66.9025L79.1905 173.552L67.6065 158H74.1985L82.4545 169.136L90.7105 158H97.2385L85.7185 173.488L97.9425 190ZM45.888 202.168C50.368 202.168 54.1867 203.811 57.344 207.096C60.5013 210.339 62.08 214.307 62.08 219C62.08 223.693 60.5013 227.683 57.344 230.968C54.1867 234.211 50.368 235.832 45.888 235.832C40.5973 235.832 36.5653 233.72 33.792 229.496V247.8H28.224V203H33.792V208.504C36.5653 204.28 40.5973 202.168 45.888 202.168ZM45.184 230.456C48.384 230.456 51.072 229.368 53.248 227.192C55.424 224.973 56.512 222.243 56.512 219C56.512 215.757 55.424 213.048 53.248 210.872C51.072 208.653 48.384 207.544 45.184 207.544C41.9413 207.544 39.232 208.653 37.056 210.872C34.88 213.048 33.792 215.757 33.792 219C33.792 222.243 34.88 224.973 37.056 227.192C39.232 229.368 41.9413 230.456 45.184 230.456ZM71.732 208.376C73.5667 204.408 76.8947 202.424 81.716 202.424V208.248C78.9853 208.12 76.6387 208.845 74.676 210.424C72.7133 212.003 71.732 214.541 71.732 218.04V235H66.164V203H71.732V208.376ZM87.42 197.176C86.3533 197.176 85.4573 196.813 84.732 196.088C84.0067 195.363 83.644 194.488 83.644 193.464C83.644 192.44 84.0067 191.565 84.732 190.84C85.4573 190.072 86.3533 189.688 87.42 189.688C88.444 189.688 89.3187 190.072 90.044 190.84C90.7693 191.565 91.132 192.44 91.132 193.464C91.132 194.488 90.7693 195.363 90.044 196.088C89.3187 196.813 88.444 197.176 87.42 197.176ZM84.604 235V203H90.172V235H84.604ZM111.147 235.832C106.325 235.832 102.315 234.232 99.1145 231.032C95.9145 227.789 94.3145 223.779 94.3145 219C94.3145 214.221 95.9145 210.232 99.1145 207.032C102.315 203.789 106.325 202.168 111.147 202.168C114.304 202.168 117.141 202.936 119.659 204.472C122.176 205.965 124.053 207.992 125.291 210.552L120.619 213.24C119.808 211.533 118.549 210.168 116.843 209.144C115.179 208.12 113.28 207.608 111.147 207.608C107.947 207.608 105.259 208.696 103.083 210.872C100.949 213.048 99.8825 215.757 99.8825 219C99.8825 222.2 100.949 224.888 103.083 227.064C105.259 229.24 107.947 230.328 111.147 230.328C113.28 230.328 115.2 229.837 116.907 228.856C118.613 227.832 119.915 226.467 120.811 224.76L125.547 227.512C124.181 230.029 122.219 232.056 119.659 233.592C117.099 235.085 114.261 235.832 111.147 235.832ZM131.951 221.56C132.505 224.419 133.807 226.637 135.855 228.216C137.945 229.795 140.505 230.584 143.535 230.584C147.759 230.584 150.831 229.027 152.751 225.912L157.487 228.6C154.372 233.421 149.679 235.832 143.407 235.832C138.329 235.832 134.191 234.253 130.991 231.096C127.833 227.896 126.255 223.864 126.255 219C126.255 214.179 127.812 210.168 130.927 206.968C134.041 203.768 138.073 202.168 143.023 202.168C147.716 202.168 151.535 203.832 154.479 207.16C157.465 210.445 158.959 214.413 158.959 219.064C158.959 219.875 158.895 220.707 158.767 221.56H131.951ZM143.023 207.416C140.036 207.416 137.561 208.269 135.599 209.976C133.636 211.64 132.42 213.88 131.951 216.696H153.327C152.857 213.667 151.663 211.363 149.743 209.784C147.823 208.205 145.583 207.416 143.023 207.416Z" fill="#1C1C1C"/>
<path d="M380 0H211C199.402 0 190 9.40202 190 21V239C190 250.598 199.402 260 211 260H380V0Z" fill="#A8FD32"/>
<path d="M380 0H190H380ZM190 260H380H190ZM380 260V0V260ZM211 0C198.297 0 188 10.2975 188 23V237C188 249.703 198.297 260 211 260C200.507 260 192 250.598 192 239V21C192 9.40202 200.507 0 211 0Z" fill="#1C1C1C"/>
<path d="M247.472 145.2V150.832H234.224V190H228.336V150.832H215.152V145.2H247.472ZM253.042 152.176C251.976 152.176 251.08 151.813 250.354 151.088C249.629 150.363 249.266 149.488 249.266 148.464C249.266 147.44 249.629 146.565 250.354 145.84C251.08 145.072 251.976 144.688 253.042 144.688C254.066 144.688 254.941 145.072 255.666 145.84C256.392 146.565 256.754 147.44 256.754 148.464C256.754 149.488 256.392 150.363 255.666 151.088C254.941 151.813 254.066 152.176 253.042 152.176ZM250.226 190V158H255.794V190H250.226ZM296.289 157.168C299.873 157.168 302.774 158.341 304.993 160.688C307.212 162.992 308.321 166.128 308.321 170.096V190H302.753V170.288C302.753 167.813 302.113 165.893 300.833 164.528C299.553 163.163 297.846 162.48 295.713 162.48C293.324 162.48 291.404 163.291 289.953 164.912C288.545 166.491 287.841 168.923 287.841 172.208V190H282.273V170.288C282.273 167.813 281.654 165.893 280.417 164.528C279.222 163.163 277.58 162.48 275.489 162.48C273.142 162.48 271.18 163.291 269.601 164.912C268.065 166.533 267.297 168.965 267.297 172.208V190H261.729V158H267.297V162.288C269.473 158.875 272.652 157.168 276.833 157.168C281.142 157.168 284.278 158.981 286.241 162.608C288.46 158.981 291.809 157.168 296.289 157.168ZM317.385 176.56C317.94 179.419 319.241 181.637 321.29 183.216C323.38 184.795 325.94 185.584 328.97 185.584C333.194 185.584 336.266 184.027 338.186 180.912L342.922 183.6C339.807 188.421 335.114 190.832 328.842 190.832C323.764 190.832 319.626 189.253 316.425 186.096C313.268 182.896 311.689 178.864 311.689 174C311.689 169.179 313.247 165.168 316.362 161.968C319.476 158.768 323.508 157.168 328.458 157.168C333.151 157.168 336.97 158.832 339.914 162.16C342.9 165.445 344.394 169.413 344.394 174.064C344.394 174.875 344.33 175.707 344.201 176.56H317.385ZM328.458 162.416C325.471 162.416 322.996 163.269 321.034 164.976C319.071 166.64 317.855 168.88 317.385 171.696H338.762C338.292 168.667 337.098 166.363 335.178 164.784C333.258 163.205 331.018 162.416 328.458 162.416ZM398.346 188.144L393.354 191.024L388.81 186.16C385.482 189.275 381.215 190.832 376.01 190.832C371.53 190.832 367.903 189.68 365.13 187.376C362.357 185.029 360.97 181.872 360.97 177.904C360.97 175.173 361.653 172.677 363.018 170.416C364.426 168.112 366.474 166.299 369.162 164.976C367.242 162.544 366.282 159.835 366.282 156.848C366.282 153.136 367.562 150.128 370.122 147.824C372.725 145.52 375.839 144.368 379.466 144.368C382.453 144.368 385.162 145.179 387.594 146.8C390.026 148.421 391.775 150.661 392.842 153.52L387.85 156.4C387.21 154.437 386.143 152.901 384.65 151.792C383.199 150.683 381.514 150.128 379.594 150.128C377.546 150.128 375.797 150.747 374.346 151.984C372.938 153.221 372.234 154.821 372.234 156.784C372.234 158.192 372.554 159.472 373.194 160.624C373.877 161.733 374.879 162.992 376.202 164.4L388.426 177.456C389.493 175.237 390.261 172.528 390.73 169.328L395.85 172.272C395.253 175.813 394.101 178.992 392.394 181.808L398.346 188.144ZM376.138 185.2C379.679 185.2 382.623 184.155 384.97 182.064L372.874 169.072C370.826 169.925 369.311 171.12 368.33 172.656C367.391 174.192 366.922 175.813 366.922 177.52C366.922 179.909 367.733 181.787 369.354 183.152C370.975 184.517 373.237 185.2 376.138 185.2ZM252.784 202.168C256.368 202.168 259.269 203.341 261.488 205.688C263.707 207.992 264.816 211.128 264.816 215.096V235H259.248V215.288C259.248 212.813 258.608 210.893 257.328 209.528C256.048 208.163 254.341 207.48 252.208 207.48C249.819 207.48 247.899 208.291 246.448 209.912C245.04 211.491 244.336 213.923 244.336 217.208V235H238.768V215.288C238.768 212.813 238.149 210.893 236.912 209.528C235.717 208.163 234.075 207.48 231.984 207.48C229.637 207.48 227.675 208.291 226.096 209.912C224.56 211.533 223.792 213.965 223.792 217.208V235H218.224V203H223.792V207.288C225.968 203.875 229.147 202.168 233.328 202.168C237.637 202.168 240.773 203.981 242.736 207.608C244.955 203.981 248.304 202.168 252.784 202.168ZM296.472 203H302.041V235H296.472V229.496C293.699 233.72 289.667 235.832 284.376 235.832C279.896 235.832 276.078 234.211 272.92 230.968C269.763 227.683 268.184 223.693 268.184 219C268.184 214.307 269.763 210.339 272.92 207.096C276.078 203.811 279.896 202.168 284.376 202.168C289.667 202.168 293.699 204.28 296.472 208.504V203ZM285.08 230.456C288.323 230.456 291.032 229.368 293.208 227.192C295.384 224.973 296.472 222.243 296.472 219C296.472 215.757 295.384 213.048 293.208 210.872C291.032 208.653 288.323 207.544 285.08 207.544C281.88 207.544 279.192 208.653 277.016 210.872C274.84 213.048 273.752 215.757 273.752 219C273.752 222.243 274.84 224.973 277.016 227.192C279.192 229.368 281.88 230.456 285.08 230.456ZM325.324 208.376H316.812V225.72C316.812 227.299 317.111 228.429 317.708 229.112C318.348 229.752 319.308 230.093 320.588 230.136C321.868 230.136 323.447 230.093 325.324 230.008V235C320.46 235.64 316.898 235.256 314.636 233.848C312.375 232.397 311.244 229.688 311.244 225.72V208.376H304.908V203H311.244V195.704L316.812 194.04V203H325.324V208.376ZM331.635 221.56C332.19 224.419 333.491 226.637 335.54 228.216C337.63 229.795 340.19 230.584 343.22 230.584C347.444 230.584 350.516 229.027 352.436 225.912L357.172 228.6C354.057 233.421 349.364 235.832 343.092 235.832C338.014 235.832 333.876 234.253 330.675 231.096C327.518 227.896 325.939 223.864 325.939 219C325.939 214.179 327.497 210.168 330.612 206.968C333.726 203.768 337.758 202.168 342.708 202.168C347.401 202.168 351.22 203.832 354.164 207.16C357.15 210.445 358.644 214.413 358.644 219.064C358.644 219.875 358.58 220.707 358.451 221.56H331.635ZM342.708 207.416C339.721 207.416 337.246 208.269 335.284 209.976C333.321 211.64 332.105 213.88 331.635 216.696H353.012C352.542 213.667 351.348 211.363 349.428 209.784C347.508 208.205 345.268 207.416 342.708 207.416ZM368.052 208.376C369.887 204.408 373.215 202.424 378.036 202.424V208.248C375.305 208.12 372.959 208.845 370.996 210.424C369.033 212.003 368.052 214.541 368.052 218.04V235H362.484V203H368.052V208.376ZM383.74 197.176C382.673 197.176 381.777 196.813 381.052 196.088C380.327 195.363 379.964 194.488 379.964 193.464C379.964 192.44 380.327 191.565 381.052 190.84C381.777 190.072 382.673 189.688 383.74 189.688C384.764 189.688 385.639 190.072 386.364 190.84C387.089 191.565 387.452 192.44 387.452 193.464C387.452 194.488 387.089 195.363 386.364 196.088C385.639 196.813 384.764 197.176 383.74 197.176ZM380.924 235V203H386.492V235H380.924ZM418.923 203H424.491V235H418.923V229.496C416.149 233.72 412.117 235.832 406.826 235.832C402.346 235.832 398.528 234.211 395.37 230.968C392.213 227.683 390.634 223.693 390.634 219C390.634 214.307 392.213 210.339 395.37 207.096C398.528 203.811 402.346 202.168 406.826 202.168C412.117 202.168 416.149 204.28 418.923 208.504V203ZM407.531 230.456C410.773 230.456 413.483 229.368 415.659 227.192C417.835 224.973 418.923 222.243 418.923 219C418.923 215.757 417.835 213.048 415.659 210.872C413.483 208.653 410.773 207.544 407.531 207.544C404.331 207.544 401.643 208.653 399.467 210.872C397.29 213.048 396.202 215.757 396.202 219C396.202 222.243 397.29 224.973 399.467 227.192C401.643 229.368 404.331 230.456 407.531 230.456ZM430.367 235V188.28H435.935V235H430.367Z" fill="#1C1C1C"/>
<rect x="146.256" y="83.3942" width="82.3005" height="54.291" rx="27.1455" transform="rotate(-13.2075 146.256 83.3942)" fill="#1C1C1C"/>
<path d="M192.897 108.044C191.225 110.771 188.803 112.506 185.631 113.251C182.458 113.995 179.517 113.519 176.807 111.821C174.096 110.123 172.371 107.698 171.632 104.547C170.887 101.375 171.354 98.4359 173.031 95.7304C174.703 93.0039 177.125 91.2685 180.297 90.524C183.469 89.7796 186.41 90.2563 189.121 91.9542C191.847 93.6263 193.583 96.0484 194.327 99.2206C195.067 102.372 194.59 105.313 192.897 108.044ZM178.347 109.378C180.357 110.624 182.562 110.965 184.962 110.402C187.362 109.839 189.174 108.555 190.399 106.55C191.64 104.519 191.979 102.304 191.416 99.9038C190.848 97.483 189.559 95.6497 187.549 94.4039C185.555 93.1323 183.358 92.7782 180.958 93.3414C178.558 93.9047 176.738 95.2016 175.497 97.2323C174.272 99.2373 173.944 101.45 174.512 103.871C175.075 106.271 176.353 108.107 178.347 109.378ZM212.45 106.527L205.567 99.2911L200.402 100.503L202.371 108.893L199.459 109.576L194.317 87.6632L203.082 85.6061C204.96 85.1653 206.724 85.456 208.373 86.4782C210.017 87.4795 211.059 88.9193 211.5 90.7975C211.833 92.2167 211.709 93.611 211.128 94.9804C210.567 96.345 209.676 97.4241 208.453 98.2175L215.675 105.77L212.45 106.527ZM197.867 89.7034L199.785 97.8737L205.638 96.4999C206.724 96.2452 207.549 95.6332 208.114 94.6639C208.695 93.6688 208.853 92.6077 208.589 91.4808C208.324 90.3538 207.713 89.4844 206.755 88.8726C205.817 88.2559 204.806 88.0749 203.721 88.3296L197.867 89.7034Z" fill="#1C1C1C"/>
<rect x="146.256" y="83.3942" width="82.3005" height="54.291" rx="27.1455" transform="rotate(-13.2075 146.256 83.3942)" stroke="#1C1C1C" stroke-width="2.00966"/>
<rect x="141.377" y="90.8366" width="84.2222" height="48.2493" rx="24.1247" transform="rotate(-13.2075 141.377 90.8366)" fill="white"/>
<path d="M183.962 116.818L179.642 117.832L166.893 97.7042L170.837 96.7785L180.781 112.974L182.513 94.0382L186.426 93.1199L183.962 116.818ZM199.749 113.542C197.641 114.037 195.736 113.989 194.034 113.397C192.348 112.78 191.014 111.695 190.033 110.142L192.706 107.599C194.161 109.856 196.265 110.661 199.02 110.014C200.356 109.701 201.307 109.202 201.873 108.519C202.439 107.836 202.619 107.056 202.414 106.179C202.208 105.303 201.684 104.71 200.841 104.402C199.997 104.093 198.581 103.875 196.592 103.747C194.56 103.63 192.87 103.322 191.52 102.824C189.865 102.155 188.811 100.85 188.355 98.9096C187.9 96.9687 188.228 95.2732 189.341 93.823C190.428 92.3568 191.953 91.3935 193.915 90.9332C195.647 90.5266 197.271 90.5969 198.786 91.144C200.318 91.6653 201.617 92.6045 202.684 93.9614L200.059 96.427C198.661 94.5973 196.887 93.9347 194.737 94.4392C193.694 94.6841 192.918 95.1304 192.409 95.7782C191.896 96.4052 191.737 97.136 191.933 97.9708C192.124 98.7847 192.589 99.3582 193.328 99.6912C194.061 100.003 195.335 100.222 197.148 100.347C198.274 100.457 198.929 100.524 199.11 100.547C199.401 100.567 199.993 100.648 200.885 100.791C201.616 100.906 202.217 101.073 202.687 101.293C204.614 102.184 205.718 103.51 205.999 105.272C206.464 107.254 206.114 108.999 204.948 110.506C203.82 111.982 202.086 112.994 199.749 113.542Z" fill="#1C1C1C"/>
<rect x="141.377" y="90.8366" width="84.2222" height="48.2493" rx="24.1247" transform="rotate(-13.2075 141.377 90.8366)" stroke="#1C1C1C" stroke-width="2.00966"/>
</g>
<defs>
<clipPath id="clip0_1116_20181">
<rect width="380" height="260" rx="21" fill="white"/>
</clipPath>
</defs>
</svg>
