<svg width="0" height="0" class="hidden">

  <symbol fill="none" xmlns="http://www.w3.org/2000/svg" viewBox="0 0 12 12" id="burger">
    <path d="M1.33333 2.66667C1.68696 2.66667 2.02609 2.52619 2.27614 2.27614C2.52619 2.02609 2.66667 1.68696 2.66667 1.33333C2.66667 0.979711 2.52619 0.640573 2.27614 0.390524C2.02609 0.140476 1.68696 0 1.33333 0C0.979711 0 0.640573 0.140476 0.390524 0.390524C0.140476 0.640573 0 0.979711 0 1.33333C0 1.68696 0.140476 2.02609 0.390524 2.27614C0.640573 2.52619 0.979711 2.66667 1.33333 2.66667ZM6 2.66667C6.35362 2.66667 6.69276 2.52619 6.94281 2.27614C7.19286 2.02609 7.33333 1.68696 7.33333 1.33333C7.33333 0.979711 7.19286 0.640573 6.94281 0.390524C6.69276 0.140476 6.35362 0 6 0C5.64638 0 5.30724 0.140476 5.05719 0.390524C4.80714 0.640573 4.66667 0.979711 4.66667 1.33333C4.66667 1.68696 4.80714 2.02609 5.05719 2.27614C5.30724 2.52619 5.64638 2.66667 6 2.66667ZM10.6667 2.66667C11.0203 2.66667 11.3594 2.52619 11.6095 2.27614C11.8595 2.02609 12 1.68696 12 1.33333C12 0.979711 11.8595 0.640573 11.6095 0.390524C11.3594 0.140476 11.0203 0 10.6667 0C10.313 0 9.97391 0.140476 9.72386 0.390524C9.47381 0.640573 9.33333 0.979711 9.33333 1.33333C9.33333 1.68696 9.47381 2.02609 9.72386 2.27614C9.97391 2.52619 10.313 2.66667 10.6667 2.66667ZM1.33333 7.33333C1.68696 7.33333 2.02609 7.19286 2.27614 6.94281C2.52619 6.69276 2.66667 6.35362 2.66667 6C2.66667 5.64638 2.52619 5.30724 2.27614 5.05719C2.02609 4.80714 1.68696 4.66667 1.33333 4.66667C0.979711 4.66667 0.640573 4.80714 0.390524 5.05719C0.140476 5.30724 0 5.64638 0 6C0 6.35362 0.140476 6.69276 0.390524 6.94281C0.640573 7.19286 0.979711 7.33333 1.33333 7.33333ZM6 7.33333C6.35362 7.33333 6.69276 7.19286 6.94281 6.94281C7.19286 6.69276 7.33333 6.35362 7.33333 6C7.33333 5.64638 7.19286 5.30724 6.94281 5.05719C6.69276 4.80714 6.35362 4.66667 6 4.66667C5.64638 4.66667 5.30724 4.80714 5.05719 5.05719C4.80714 5.30724 4.66667 5.64638 4.66667 6C4.66667 6.35362 4.80714 6.69276 5.05719 6.94281C5.30724 7.19286 5.64638 7.33333 6 7.33333ZM10.6667 7.33333C11.0203 7.33333 11.3594 7.19286 11.6095 6.94281C11.8595 6.69276 12 6.35362 12 6C12 5.64638 11.8595 5.30724 11.6095 5.05719C11.3594 4.80714 11.0203 4.66667 10.6667 4.66667C10.313 4.66667 9.97391 4.80714 9.72386 5.05719C9.47381 5.30724 9.33333 5.64638 9.33333 6C9.33333 6.35362 9.47381 6.69276 9.72386 6.94281C9.97391 7.19286 10.313 7.33333 10.6667 7.33333ZM1.33333 12C1.68696 12 2.02609 11.8595 2.27614 11.6095C2.52619 11.3594 2.66667 11.0203 2.66667 10.6667C2.66667 10.313 2.52619 9.97391 2.27614 9.72386C2.02609 9.47381 1.68696 9.33333 1.33333 9.33333C0.979711 9.33333 0.640573 9.47381 0.390524 9.72386C0.140476 9.97391 0 10.313 0 10.6667C0 11.0203 0.140476 11.3594 0.390524 11.6095C0.640573 11.8595 0.979711 12 1.33333 12ZM6 12C6.35362 12 6.69276 11.8595 6.94281 11.6095C7.19286 11.3594 7.33333 11.0203 7.33333 10.6667C7.33333 10.313 7.19286 9.97391 6.94281 9.72386C6.69276 9.47381 6.35362 9.33333 6 9.33333C5.64638 9.33333 5.30724 9.47381 5.05719 9.72386C4.80714 9.97391 4.66667 10.313 4.66667 10.6667C4.66667 11.0203 4.80714 11.3594 5.05719 11.6095C5.30724 11.8595 5.64638 12 6 12ZM10.6667 12C11.0203 12 11.3594 11.8595 11.6095 11.6095C11.8595 11.3594 12 11.0203 12 10.6667C12 10.313 11.8595 9.97391 11.6095 9.72386C11.3594 9.47381 11.0203 9.33333 10.6667 9.33333C10.313 9.33333 9.97391 9.47381 9.72386 9.72386C9.47381 9.97391 9.33333 10.313 9.33333 10.6667C9.33333 11.0203 9.47381 11.3594 9.72386 11.6095C9.97391 11.8595 10.313 12 10.6667 12Z" fill="#1C1C1C"></path>
  </symbol>

  <symbol fill="none" xmlns="http://www.w3.org/2000/svg" viewBox="0 0 10 10" id="close">
    <path d="M0.914062 1L8.91447 9.0004" stroke="#080908" stroke-width="1.5" stroke-linecap="round" stroke-linejoin="round"></path>
    <path d="M9.08594 1L1.08553 9.0004" stroke="#080908" stroke-width="1.5" stroke-linecap="round" stroke-linejoin="round"></path>
  </symbol>

  <symbol fill="none" xmlns="http://www.w3.org/2000/svg" viewBox="0 0 24 24" id="minus">
    <path d="M5 12H19" stroke="#080908" stroke-width="2" stroke-linecap="round" stroke-linejoin="round"></path>
  </symbol>

  <symbol fill="none" xmlns="http://www.w3.org/2000/svg" viewBox="0 0 16 16" id="arrow-link">
    <path d="M1.81206 14.1879L14.1877 1.81158M14.1877 1.81158L5.52485 1.81188M14.1877 1.81158L14.1877 10.4751" stroke-width="2" stroke-linecap="round" stroke-linejoin="round"></path>
  </symbol>

  <symbol fill="none" xmlns="http://www.w3.org/2000/svg" viewBox="0 0 24 24" id="plus">
    <path d="M5 12H19" stroke="#080908" stroke-width="2" stroke-linecap="round" stroke-linejoin="round"></path>
    <path d="M12 5L12 19" stroke="#080908" stroke-width="2" stroke-linecap="round" stroke-linejoin="round"></path>
  </symbol>

  <symbol fill="none" xmlns="http://www.w3.org/2000/svg" viewBox="0 0 24 24" id="search">
    <path d="M11.5 19C15.6421 19 19 15.6421 19 11.5C19 7.35786 15.6421 4 11.5 4C7.35786 4 4 7.35786 4 11.5C4 15.6421 7.35786 19 11.5 19Z" stroke="#080908" stroke-width="2" stroke-linecap="square"></path>
    <path d="M17 17L20 20" stroke="#080908" stroke-width="2" stroke-linecap="round" stroke-linejoin="round"></path>
  </symbol>

  <symbol fill="none" xmlns="http://www.w3.org/2000/svg" viewBox="0 0 24 24" id="share">
    <path d="M9 7L12 4L15 7" stroke="#080908" stroke-width="2" stroke-linecap="round" stroke-linejoin="round"></path>
    <path d="M12 13L12 6" stroke="#080908" stroke-width="2" stroke-linecap="round" stroke-linejoin="round"></path>
    <path d="M17 11L19 11V20H5.00013L5 11L7 11" stroke="#080908" stroke-width="2" stroke-linecap="round" stroke-linejoin="round"></path>
  </symbol>

  <symbol fill="none" xmlns="http://www.w3.org/2000/svg" viewBox="0 0 6 10" id="slider-left">
    <path d="M5 1L1 5L5 9" stroke-width="2" stroke-linecap="round" stroke-linejoin="round"></path>
  </symbol>

  <symbol fill="none" xmlns="http://www.w3.org/2000/svg" viewBox="0 0 6 10" id="slider-right">
    <path d="M1 1L5 5L1 9" stroke-width="2" stroke-linecap="round" stroke-linejoin="round"></path>
  </symbol>

  <symbol fill="none" xmlns="http://www.w3.org/2000/svg" viewBox="0 0 24 24" id="tick">
    <path d="M4 12L9.29412 18L19 7" stroke="#080908" stroke-width="2" stroke-linecap="round" stroke-linejoin="round"></path>
  </symbol>

  <symbol fill="none" xmlns="http://www.w3.org/2000/svg" viewBox="0 0 24 24" id="trash">
    <path d="M9.25 3C9.25 2.58579 9.58579 2.25 10 2.25H14C14.4142 2.25 14.75 2.58579 14.75 3V3.75H19C19.4142 3.75 19.75 4.08579 19.75 4.5C19.75 4.91421 19.4142 5.25 19 5.25H5C4.58579 5.25 4.25 4.91421 4.25 4.5C4.25 4.08579 4.58579 3.75 5 3.75H9.25V3Z" fill="black"></path>
    <path fill-rule="evenodd" clip-rule="evenodd" d="M6.2399 7.94478C6.26803 7.69157 6.48206 7.5 6.73684 7.5H17.2632C17.5179 7.5 17.732 7.69157 17.7601 7.94478L17.9602 9.74613C18.321 12.9931 18.321 16.2701 17.9602 19.517L17.9405 19.6944C17.8091 20.8769 16.8926 21.8199 15.7143 21.9849C13.2501 22.3299 10.7499 22.3299 8.28574 21.9849C7.10737 21.8199 6.19085 20.8769 6.05945 19.6944L6.03975 19.517C5.67897 16.2701 5.67897 12.9931 6.03975 9.74613L6.2399 7.94478ZM10.75 11.4C10.75 10.9858 10.4142 10.65 10 10.65C9.58579 10.65 9.25 10.9858 9.25 11.4L9.25 18.4C9.25 18.8142 9.58579 19.15 10 19.15C10.4142 19.15 10.75 18.8142 10.75 18.4L10.75 11.4ZM14.75 11.4C14.75 10.9858 14.4142 10.65 14 10.65C13.5858 10.65 13.25 10.9858 13.25 11.4V18.4C13.25 18.8142 13.5858 19.15 14 19.15C14.4142 19.15 14.75 18.8142 14.75 18.4V11.4Z" fill="black"></path>
  </symbol>

  <symbol fill="none" xmlns="http://www.w3.org/2000/svg" viewBox="0 0 13 14" id="file">
    <path d="M1.02344 6.64299L5.61963 2.04679C6.98647 0.679959 9.20254 0.679959 10.5694 2.04679C11.9362 3.41363 11.9362 5.62971 10.5694 6.99654L5.26608 12.2998C4.35486 13.2111 2.87747 13.2111 1.96625 12.2998C1.05502 11.3886 1.05502 9.91123 1.96625 9.00001L7.26955 3.69671C7.72516 3.2411 8.46385 3.2411 8.91946 3.69671C9.37507 4.15232 9.37507 4.89101 8.91946 5.34663L4.32327 9.94282" stroke-width="1.5" stroke-linecap="round" stroke-linejoin="round"></path>
  </symbol>

</svg>