<svg width="0" height="0" class="hidden">

  <symbol fill="none" xmlns="http://www.w3.org/2000/svg" viewBox="0 0 12 12" id="burger">
    <path d="M1.33333 2.66667C1.68696 2.66667 2.02609 2.52619 2.27614 2.27614C2.52619 2.02609 2.66667 1.68696 2.66667 1.33333C2.66667 0.979711 2.52619 0.640573 2.27614 0.390524C2.02609 0.140476 1.68696 0 1.33333 0C0.979711 0 0.640573 0.140476 0.390524 0.390524C0.140476 0.640573 0 0.979711 0 1.33333C0 1.68696 0.140476 2.02609 0.390524 2.27614C0.640573 2.52619 0.979711 2.66667 1.33333 2.66667ZM6 2.66667C6.35362 2.66667 6.69276 2.52619 6.94281 2.27614C7.19286 2.02609 7.33333 1.68696 7.33333 1.33333C7.33333 0.979711 7.19286 0.640573 6.94281 0.390524C6.69276 0.140476 6.35362 0 6 0C5.64638 0 5.30724 0.140476 5.05719 0.390524C4.80714 0.640573 4.66667 0.979711 4.66667 1.33333C4.66667 1.68696 4.80714 2.02609 5.05719 2.27614C5.30724 2.52619 5.64638 2.66667 6 2.66667ZM10.6667 2.66667C11.0203 2.66667 11.3594 2.52619 11.6095 2.27614C11.8595 2.02609 12 1.68696 12 1.33333C12 0.979711 11.8595 0.640573 11.6095 0.390524C11.3594 0.140476 11.0203 0 10.6667 0C10.313 0 9.97391 0.140476 9.72386 0.390524C9.47381 0.640573 9.33333 0.979711 9.33333 1.33333C9.33333 1.68696 9.47381 2.02609 9.72386 2.27614C9.97391 2.52619 10.313 2.66667 10.6667 2.66667ZM1.33333 7.33333C1.68696 7.33333 2.02609 7.19286 2.27614 6.94281C2.52619 6.69276 2.66667 6.35362 2.66667 6C2.66667 5.64638 2.52619 5.30724 2.27614 5.05719C2.02609 4.80714 1.68696 4.66667 1.33333 4.66667C0.979711 4.66667 0.640573 4.80714 0.390524 5.05719C0.140476 5.30724 0 5.64638 0 6C0 6.35362 0.140476 6.69276 0.390524 6.94281C0.640573 7.19286 0.979711 7.33333 1.33333 7.33333ZM6 7.33333C6.35362 7.33333 6.69276 7.19286 6.94281 6.94281C7.19286 6.69276 7.33333 6.35362 7.33333 6C7.33333 5.64638 7.19286 5.30724 6.94281 5.05719C6.69276 4.80714 6.35362 4.66667 6 4.66667C5.64638 4.66667 5.30724 4.80714 5.05719 5.05719C4.80714 5.30724 4.66667 5.64638 4.66667 6C4.66667 6.35362 4.80714 6.69276 5.05719 6.94281C5.30724 7.19286 5.64638 7.33333 6 7.33333ZM10.6667 7.33333C11.0203 7.33333 11.3594 7.19286 11.6095 6.94281C11.8595 6.69276 12 6.35362 12 6C12 5.64638 11.8595 5.30724 11.6095 5.05719C11.3594 4.80714 11.0203 4.66667 10.6667 4.66667C10.313 4.66667 9.97391 4.80714 9.72386 5.05719C9.47381 5.30724 9.33333 5.64638 9.33333 6C9.33333 6.35362 9.47381 6.69276 9.72386 6.94281C9.97391 7.19286 10.313 7.33333 10.6667 7.33333ZM1.33333 12C1.68696 12 2.02609 11.8595 2.27614 11.6095C2.52619 11.3594 2.66667 11.0203 2.66667 10.6667C2.66667 10.313 2.52619 9.97391 2.27614 9.72386C2.02609 9.47381 1.68696 9.33333 1.33333 9.33333C0.979711 9.33333 0.640573 9.47381 0.390524 9.72386C0.140476 9.97391 0 10.313 0 10.6667C0 11.0203 0.140476 11.3594 0.390524 11.6095C0.640573 11.8595 0.979711 12 1.33333 12ZM6 12C6.35362 12 6.69276 11.8595 6.94281 11.6095C7.19286 11.3594 7.33333 11.0203 7.33333 10.6667C7.33333 10.313 7.19286 9.97391 6.94281 9.72386C6.69276 9.47381 6.35362 9.33333 6 9.33333C5.64638 9.33333 5.30724 9.47381 5.05719 9.72386C4.80714 9.97391 4.66667 10.313 4.66667 10.6667C4.66667 11.0203 4.80714 11.3594 5.05719 11.6095C5.30724 11.8595 5.64638 12 6 12ZM10.6667 12C11.0203 12 11.3594 11.8595 11.6095 11.6095C11.8595 11.3594 12 11.0203 12 10.6667C12 10.313 11.8595 9.97391 11.6095 9.72386C11.3594 9.47381 11.0203 9.33333 10.6667 9.33333C10.313 9.33333 9.97391 9.47381 9.72386 9.72386C9.47381 9.97391 9.33333 10.313 9.33333 10.6667C9.33333 11.0203 9.47381 11.3594 9.72386 11.6095C9.97391 11.8595 10.313 12 10.6667 12Z" fill="#1C1C1C"></path>
  </symbol>

  <symbol fill="none" xmlns="http://www.w3.org/2000/svg" viewBox="0 0 10 10" id="close">
    <path d="M0.914062 1L8.91447 9.0004" stroke="#080908" stroke-width="1.5" stroke-linecap="round" stroke-linejoin="round"></path>
    <path d="M9.08594 1L1.08553 9.0004" stroke="#080908" stroke-width="1.5" stroke-linecap="round" stroke-linejoin="round"></path>
  </symbol>

  <symbol fill="none" xmlns="http://www.w3.org/2000/svg" viewBox="0 0 24 24" id="minus">
    <path d="M5 12H19" stroke="#080908" stroke-width="2" stroke-linecap="round" stroke-linejoin="round"></path>
  </symbol>

  <symbol fill="none" xmlns="http://www.w3.org/2000/svg" viewBox="0 0 16 16" id="arrow-link">
    <path d="M1.81206 14.1879L14.1877 1.81158M14.1877 1.81158L5.52485 1.81188M14.1877 1.81158L14.1877 10.4751" stroke-width="2" stroke-linecap="round" stroke-linejoin="round"></path>
  </symbol>

  <symbol fill="none" xmlns="http://www.w3.org/2000/svg" viewBox="0 0 24 24" id="plus">
    <path d="M5 12H19" stroke="#080908" stroke-width="2" stroke-linecap="round" stroke-linejoin="round"></path>
    <path d="M12 5L12 19" stroke="#080908" stroke-width="2" stroke-linecap="round" stroke-linejoin="round"></path>
  </symbol>

  <symbol fill="none" xmlns="http://www.w3.org/2000/svg" viewBox="0 0 24 24" id="search">
    <path d="M11.5 19C15.6421 19 19 15.6421 19 11.5C19 7.35786 15.6421 4 11.5 4C7.35786 4 4 7.35786 4 11.5C4 15.6421 7.35786 19 11.5 19Z" stroke="#080908" stroke-width="2" stroke-linecap="square"></path>
    <path d="M17 17L20 20" stroke="#080908" stroke-width="2" stroke-linecap="round" stroke-linejoin="round"></path>
  </symbol>

  <symbol fill="none" xmlns="http://www.w3.org/2000/svg" viewBox="0 0 24 24" id="share">
    <path d="M9 7L12 4L15 7" stroke="#080908" stroke-width="2" stroke-linecap="round" stroke-linejoin="round"></path>
    <path d="M12 13L12 6" stroke="#080908" stroke-width="2" stroke-linecap="round" stroke-linejoin="round"></path>
    <path d="M17 11L19 11V20H5.00013L5 11L7 11" stroke="#080908" stroke-width="2" stroke-linecap="round" stroke-linejoin="round"></path>
  </symbol>

  <symbol fill="none" xmlns="http://www.w3.org/2000/svg" viewBox="0 0 6 10" id="slider-left">
    <path d="M5 1L1 5L5 9" stroke-width="2" stroke-linecap="round" stroke-linejoin="round"></path>
  </symbol>

  <symbol fill="none" xmlns="http://www.w3.org/2000/svg" viewBox="0 0 6 10" id="slider-right">
    <path d="M1 1L5 5L1 9" stroke-width="2" stroke-linecap="round" stroke-linejoin="round"></path>
  </symbol>

  <symbol fill="none" xmlns="http://www.w3.org/2000/svg" viewBox="0 0 24 24" id="tick">
    <path d="M4 12L9.29412 18L19 7" stroke="#080908" stroke-width="2" stroke-linecap="round" stroke-linejoin="round"></path>
  </symbol>

  <symbol fill="none" xmlns="http://www.w3.org/2000/svg" viewBox="0 0 24 24" id="trash">
    <path d="M9.25 3C9.25 2.58579 9.58579 2.25 10 2.25H14C14.4142 2.25 14.75 2.58579 14.75 3V3.75H19C19.4142 3.75 19.75 4.08579 19.75 4.5C19.75 4.91421 19.4142 5.25 19 5.25H5C4.58579 5.25 4.25 4.91421 4.25 4.5C4.25 4.08579 4.58579 3.75 5 3.75H9.25V3Z" fill="black"></path>
    <path fill-rule="evenodd" clip-rule="evenodd" d="M6.2399 7.94478C6.26803 7.69157 6.48206 7.5 6.73684 7.5H17.2632C17.5179 7.5 17.732 7.69157 17.7601 7.94478L17.9602 9.74613C18.321 12.9931 18.321 16.2701 17.9602 19.517L17.9405 19.6944C17.8091 20.8769 16.8926 21.8199 15.7143 21.9849C13.2501 22.3299 10.7499 22.3299 8.28574 21.9849C7.10737 21.8199 6.19085 20.8769 6.05945 19.6944L6.03975 19.517C5.67897 16.2701 5.67897 12.9931 6.03975 9.74613L6.2399 7.94478ZM10.75 11.4C10.75 10.9858 10.4142 10.65 10 10.65C9.58579 10.65 9.25 10.9858 9.25 11.4L9.25 18.4C9.25 18.8142 9.58579 19.15 10 19.15C10.4142 19.15 10.75 18.8142 10.75 18.4L10.75 11.4ZM14.75 11.4C14.75 10.9858 14.4142 10.65 14 10.65C13.5858 10.65 13.25 10.9858 13.25 11.4V18.4C13.25 18.8142 13.5858 19.15 14 19.15C14.4142 19.15 14.75 18.8142 14.75 18.4V11.4Z" fill="black"></path>
  </symbol>

  <symbol fill="none" xmlns="http://www.w3.org/2000/svg" viewBox="0 0 13 14" id="file">
    <path d="M1.02344 6.64299L5.61963 2.04679C6.98647 0.679959 9.20254 0.679959 10.5694 2.04679C11.9362 3.41363 11.9362 5.62971 10.5694 6.99654L5.26608 12.2998C4.35486 13.2111 2.87747 13.2111 1.96625 12.2998C1.05502 11.3886 1.05502 9.91123 1.96625 9.00001L7.26955 3.69671C7.72516 3.2411 8.46385 3.2411 8.91946 3.69671C9.37507 4.15232 9.37507 4.89101 8.91946 5.34663L4.32327 9.94282" stroke-width="1.5" stroke-linecap="round" stroke-linejoin="round"></path>
  </symbol>

  <symbol xmlns="http://www.w3.org/2000/svg" viewBox="0 0 12 12" id="clock">
    <path d="M6.50033 2.66669C6.50033 2.39054 6.27647 2.16669 6.00033 2.16669C5.72418 2.16669 5.50033 2.39054 5.50033 2.66669V6.00002C5.50033 6.17242 5.58914 6.33265 5.73533 6.42402L7.73533 7.67402C7.96949 7.82037 8.27797 7.74919 8.42432 7.51502C8.57068 7.28085 8.49949 6.97238 8.26533 6.82602L6.50033 5.7229V2.66669Z"></path>
    <path fill-rule="evenodd" clip-rule="evenodd" d="M6.00033 0.166687C2.77866 0.166687 0.166992 2.77836 0.166992 6.00002C0.166992 9.22168 2.77866 11.8334 6.00033 11.8334C9.22199 11.8334 11.8337 9.22168 11.8337 6.00002C11.8337 2.77836 9.22199 0.166687 6.00033 0.166687ZM1.16699 6.00002C1.16699 3.33064 3.33095 1.16669 6.00033 1.16669C8.6697 1.16669 10.8337 3.33064 10.8337 6.00002C10.8337 8.6694 8.6697 10.8334 6.00033 10.8334C3.33095 10.8334 1.16699 8.6694 1.16699 6.00002Z"></path>
  </symbol>

  <symbol xmlns="http://www.w3.org/2000/svg" viewBox="0 0 90 18" id="logo">
    <path fill-rule="evenodd" clip-rule="evenodd" d="M78.3441 11.2838C76.248 11.4219 71.9145 11.4588 70.1184 12.1471C69.3999 12.4225 69.0408 12.8269 69.0408 13.3608C69.0408 15.9313 77.2625 15.2921 78.3441 11.2838ZM24.9098 17.1828V17.4899H20.9939V17.1828V0.525391H24.9098C24.9098 3.64307 24.9098 6.47964 24.9098 9.59747L31.6396 3.82623L31.6964 3.77499H36.5265C33.9563 5.8784 31.3597 8.00869 28.7793 10.1207C31.6531 12.5802 34.5274 15.0313 37.4003 17.4899H32.223C29.7966 15.3344 27.3426 13.5446 24.9098 11.3835C24.9098 13.4397 24.9098 15.1267 24.9098 17.1828ZM5.37046 7.51072C4.38056 8.27844 3.88562 9.26784 3.88562 10.4789C3.88562 11.69 4.38056 12.6794 5.37046 13.4471C6.36032 14.2146 7.70512 14.5984 9.40454 14.5984C11.1039 14.5984 12.4487 14.2146 13.4386 13.4471C14.4285 12.6794 14.9234 11.69 14.9234 10.4789C14.9234 9.26784 14.4285 8.27844 13.4386 7.51072C12.4487 6.74318 11.1039 6.35938 9.40454 6.35938C7.70512 6.35938 6.36032 6.74318 5.37046 7.51072ZM2.54519 15.6348C0.845769 14.398 -0.00390625 12.6794 -0.00390625 10.4789C-0.00390625 8.27844 0.845769 6.5597 2.54519 5.32299C4.24477 4.08628 6.53117 3.46795 9.40454 3.46795C12.2603 3.46795 14.5379 4.08628 16.2375 5.32299C17.9369 6.5597 18.7867 8.27844 18.7867 10.4789C18.7867 12.6794 17.9369 14.398 16.2375 15.6348C14.5379 16.8715 12.2603 17.4899 9.40454 17.4899C6.53117 17.4899 4.24477 16.8715 2.54519 15.6348ZM41.7365 0.525391H41.4999V3.77499H37.4791C37.4791 4.73026 37.4791 5.68556 37.4791 6.64068H41.4999V9.17397V13.6225C41.4999 15.7527 43.2843 17.4899 45.472 17.4899H50.0412V14.189H45.4158V9.17397V6.64068H49.0557H49.8967H50.0412V3.77499H49.8967H49.0557H48.2147C46.9125 3.77499 45.8008 4.60956 45.4158 5.75651V3.77499V2.61773V0.525391H43.5762H41.7365ZM55.2823 0.525391H55.0459V3.77499H51.0249C51.0249 4.73026 51.0249 5.68556 51.0249 6.64068H55.0459V9.17397V13.6225C55.0459 15.7527 56.8302 17.4899 59.018 17.4899H63.587V14.189H58.9616V9.17397V6.64068H62.6015H63.4425H63.587V3.77499H63.4425H62.6015H61.7607C60.4583 3.77499 59.3467 4.60956 58.9616 5.75651V3.77499V2.61773V0.525391H57.122H55.2823ZM82.2598 9.73229V14.2617H83.9775V17.4899H81.7592C79.9764 17.4899 78.6332 16.138 78.6332 14.4119C75.6399 18.6873 65.1513 18.7044 65.1513 13.561C65.1513 12.2598 65.7951 11.2963 67.0829 10.6707C69.7781 9.36123 75.1769 9.37125 78.3441 9.18185V8.95654C78.3441 5.39518 70.7994 5.64202 69.8555 8.13076H66.1762C66.958 2.27506 82.2598 1.43955 82.2598 9.73229Z"></path>
    <path fill-rule="evenodd" clip-rule="evenodd" d="M86.6055 14.1895H89.9957V17.4903H86.6055V14.1895Z"></path>
  </symbol>

</svg>