<svg width="12" height="12" viewBox="0 0 12 12" fill="none" xmlns="http://www.w3.org/2000/svg">
<path d="M1.33333 2.66667C1.68696 2.66667 2.02609 2.52619 2.27614 2.27614C2.52619 2.02609 2.66667 1.68696 2.66667 1.33333C2.66667 0.979711 2.52619 0.640573 2.27614 0.390524C2.02609 0.140476 1.68696 0 1.33333 0C0.979711 0 0.640573 0.140476 0.390524 0.390524C0.140476 0.640573 0 0.979711 0 1.33333C0 1.68696 0.140476 2.02609 0.390524 2.27614C0.640573 2.52619 0.979711 2.66667 1.33333 2.66667ZM6 2.66667C6.35362 2.66667 6.69276 2.52619 6.94281 2.27614C7.19286 2.02609 7.33333 1.68696 7.33333 1.33333C7.33333 0.979711 7.19286 0.640573 6.94281 0.390524C6.69276 0.140476 6.35362 0 6 0C5.64638 0 5.30724 0.140476 5.05719 0.390524C4.80714 0.640573 4.66667 0.979711 4.66667 1.33333C4.66667 1.68696 4.80714 2.02609 5.05719 2.27614C5.30724 2.52619 5.64638 2.66667 6 2.66667ZM10.6667 2.66667C11.0203 2.66667 11.3594 2.52619 11.6095 2.27614C11.8595 2.02609 12 1.68696 12 1.33333C12 0.979711 11.8595 0.640573 11.6095 0.390524C11.3594 0.140476 11.0203 0 10.6667 0C10.313 0 9.97391 0.140476 9.72386 0.390524C9.47381 0.640573 9.33333 0.979711 9.33333 1.33333C9.33333 1.68696 9.47381 2.02609 9.72386 2.27614C9.97391 2.52619 10.313 2.66667 10.6667 2.66667ZM1.33333 7.33333C1.68696 7.33333 2.02609 7.19286 2.27614 6.94281C2.52619 6.69276 2.66667 6.35362 2.66667 6C2.66667 5.64638 2.52619 5.30724 2.27614 5.05719C2.02609 4.80714 1.68696 4.66667 1.33333 4.66667C0.979711 4.66667 0.640573 4.80714 0.390524 5.05719C0.140476 5.30724 0 5.64638 0 6C0 6.35362 0.140476 6.69276 0.390524 6.94281C0.640573 7.19286 0.979711 7.33333 1.33333 7.33333ZM6 7.33333C6.35362 7.33333 6.69276 7.19286 6.94281 6.94281C7.19286 6.69276 7.33333 6.35362 7.33333 6C7.33333 5.64638 7.19286 5.30724 6.94281 5.05719C6.69276 4.80714 6.35362 4.66667 6 4.66667C5.64638 4.66667 5.30724 4.80714 5.05719 5.05719C4.80714 5.30724 4.66667 5.64638 4.66667 6C4.66667 6.35362 4.80714 6.69276 5.05719 6.94281C5.30724 7.19286 5.64638 7.33333 6 7.33333ZM10.6667 7.33333C11.0203 7.33333 11.3594 7.19286 11.6095 6.94281C11.8595 6.69276 12 6.35362 12 6C12 5.64638 11.8595 5.30724 11.6095 5.05719C11.3594 4.80714 11.0203 4.66667 10.6667 4.66667C10.313 4.66667 9.97391 4.80714 9.72386 5.05719C9.47381 5.30724 9.33333 5.64638 9.33333 6C9.33333 6.35362 9.47381 6.69276 9.72386 6.94281C9.97391 7.19286 10.313 7.33333 10.6667 7.33333ZM1.33333 12C1.68696 12 2.02609 11.8595 2.27614 11.6095C2.52619 11.3594 2.66667 11.0203 2.66667 10.6667C2.66667 10.313 2.52619 9.97391 2.27614 9.72386C2.02609 9.47381 1.68696 9.33333 1.33333 9.33333C0.979711 9.33333 0.640573 9.47381 0.390524 9.72386C0.140476 9.97391 0 10.313 0 10.6667C0 11.0203 0.140476 11.3594 0.390524 11.6095C0.640573 11.8595 0.979711 12 1.33333 12ZM6 12C6.35362 12 6.69276 11.8595 6.94281 11.6095C7.19286 11.3594 7.33333 11.0203 7.33333 10.6667C7.33333 10.313 7.19286 9.97391 6.94281 9.72386C6.69276 9.47381 6.35362 9.33333 6 9.33333C5.64638 9.33333 5.30724 9.47381 5.05719 9.72386C4.80714 9.97391 4.66667 10.313 4.66667 10.6667C4.66667 11.0203 4.80714 11.3594 5.05719 11.6095C5.30724 11.8595 5.64638 12 6 12ZM10.6667 12C11.0203 12 11.3594 11.8595 11.6095 11.6095C11.8595 11.3594 12 11.0203 12 10.6667C12 10.313 11.8595 9.97391 11.6095 9.72386C11.3594 9.47381 11.0203 9.33333 10.6667 9.33333C10.313 9.33333 9.97391 9.47381 9.72386 9.72386C9.47381 9.97391 9.33333 10.313 9.33333 10.6667C9.33333 11.0203 9.47381 11.3594 9.72386 11.6095C9.97391 11.8595 10.313 12 10.6667 12Z" fill="#1C1C1C"/>
</svg>
