<svg width="0" height="0" class="hidden">
  <symbol fill="none" xmlns="http://www.w3.org/2000/svg" viewBox="0 0 110 101" id="quote">
    <path d="M58.845 73.7132C58.845 57.7959 63.1915 42.447 71.8845 27.6667C80.8004 12.6021 92.9483 0.379844 108.328 -9L110 -2.60466C99.7467 4.78553 91.388 13.4548 84.924 23.4031C78.46 33.0672 74.8936 43.1576 74.2249 53.6744C77.1226 50.2636 80.1317 47.5633 83.2523 45.5736C86.3728 43.584 89.6049 42.5892 92.9483 42.5892C97.1834 42.5892 100.304 44.1525 102.31 47.2791C104.539 50.4057 105.653 54.6693 105.653 60.0698C105.653 66.6072 104.205 73.0026 101.307 79.2558C98.6322 85.5091 95.0659 90.7675 90.6079 95.031C86.1499 99.0103 81.3576 101 76.231 101C70.4357 101 66.0892 98.7261 63.1915 94.1783C60.2938 89.3463 58.845 82.5246 58.845 73.7132ZM0 73.7132C0 57.7959 4.3465 42.447 13.0395 27.6667C21.9554 12.6021 34.1033 0.379844 49.4833 -9L51.155 -2.60466C40.9017 4.78553 32.5431 13.4548 26.079 23.4031C19.615 33.0672 16.0486 43.1576 15.3799 53.6744C18.0547 50.2636 20.9524 47.5633 24.0729 45.5736C27.4164 43.584 30.7599 42.5892 34.1033 42.5892C38.1155 42.5892 41.2361 44.1525 43.465 47.2791C45.694 50.4057 46.8085 54.6693 46.8085 60.0698C46.8085 66.6072 45.3597 73.0026 42.462 79.2558C39.7872 85.5091 36.2209 90.7675 31.7629 95.031C27.305 99.0103 22.5127 101 17.386 101C11.5907 101 7.24417 98.7261 4.34651 94.1783C1.44883 89.3463 0 82.5246 0 73.7132Z" fill="#A8FD32"></path>
  </symbol>
</svg>
