<svg width="380" height="260" viewBox="0 0 380 260" fill="none" xmlns="http://www.w3.org/2000/svg">
<rect width="380" height="260" rx="21" fill="#E1FD32"/>
<g clip-path="url(#clip0_502_17096)">
<rect x="53" y="56" width="275" height="148" rx="30" fill="white"/>
<path d="M81.2 80.8H85.264C86.288 80.8 87.1467 81.1467 87.84 81.84C88.5333 82.5333 88.88 83.3867 88.88 84.4C88.88 85.4133 88.5333 86.2667 87.84 86.96C87.1467 87.6533 86.288 88 85.264 88H82.688V92H81.2V80.8ZM82.688 86.608H85.264C85.8933 86.608 86.4053 86.4 86.8 85.984C87.2053 85.5467 87.408 85.0187 87.408 84.4C87.408 83.76 87.2053 83.232 86.8 82.816C86.3947 82.4 85.8827 82.192 85.264 82.192H82.688V86.608ZM96.0281 85.376V84H97.4201V92H96.0281V90.624C95.3455 91.68 94.3375 92.208 93.0041 92.208C91.8735 92.208 90.9188 91.8027 90.1401 90.992C89.3508 90.1707 88.9561 89.1733 88.9561 88C88.9561 86.8373 89.3508 85.8453 90.1401 85.024C90.9295 84.2027 91.8841 83.792 93.0041 83.792C94.3375 83.792 95.3455 84.32 96.0281 85.376ZM93.1801 90.864C93.9908 90.864 94.6681 90.592 95.2121 90.048C95.7561 89.4827 96.0281 88.8 96.0281 88C96.0281 87.1893 95.7561 86.512 95.2121 85.968C94.6681 85.4133 93.9908 85.136 93.1801 85.136C92.3801 85.136 91.7081 85.4133 91.1641 85.968C90.6201 86.512 90.3481 87.1893 90.3481 88C90.3481 88.8 90.6201 89.4827 91.1641 90.048C91.7081 90.592 92.3801 90.864 93.1801 90.864ZM102.809 92.208C101.604 92.208 100.601 91.808 99.8011 91.008C99.0011 90.1973 98.6011 89.1947 98.6011 88C98.6011 86.8053 99.0011 85.808 99.8011 85.008C100.601 84.1973 101.604 83.792 102.809 83.792C103.598 83.792 104.308 83.984 104.937 84.368C105.566 84.7413 106.036 85.248 106.345 85.888L105.177 86.56C104.974 86.1333 104.66 85.792 104.233 85.536C103.817 85.28 103.342 85.152 102.809 85.152C102.009 85.152 101.337 85.424 100.793 85.968C100.26 86.5227 99.9931 87.2 99.9931 88C99.9931 88.7893 100.26 89.4613 100.793 90.016C101.337 90.56 102.009 90.832 102.809 90.832C103.342 90.832 103.822 90.7093 104.249 90.464C104.676 90.208 105.001 89.8667 105.225 89.44L106.409 90.128C106.057 90.768 105.561 91.2747 104.921 91.648C104.281 92.0213 103.577 92.208 102.809 92.208ZM107.319 84H114.247V92H112.855V85.328H108.711V92H107.319V84ZM122.638 90.992C121.827 91.8027 120.83 92.208 119.646 92.208C118.462 92.208 117.465 91.8027 116.654 90.992C115.843 90.1813 115.438 89.184 115.438 88C115.438 86.816 115.843 85.8187 116.654 85.008C117.465 84.1973 118.462 83.792 119.646 83.792C120.83 83.792 121.827 84.1973 122.638 85.008C123.459 85.8293 123.87 86.8267 123.87 88C123.87 89.1733 123.459 90.1707 122.638 90.992ZM119.646 90.848C120.446 90.848 121.118 90.576 121.662 90.032C122.206 89.488 122.478 88.8107 122.478 88C122.478 87.1893 122.206 86.512 121.662 85.968C121.118 85.424 120.446 85.152 119.646 85.152C118.857 85.152 118.19 85.424 117.646 85.968C117.102 86.512 116.83 87.1893 116.83 88C116.83 88.8107 117.102 89.488 117.646 90.032C118.19 90.576 118.857 90.848 119.646 90.848ZM129.447 83.792C130.567 83.792 131.522 84.2027 132.311 85.024C133.1 85.8453 133.495 86.8373 133.495 88C133.495 89.1733 133.1 90.1707 132.311 90.992C131.532 91.8027 130.578 92.208 129.447 92.208C128.124 92.208 127.116 91.68 126.423 90.624V95.2H125.031V84H126.423V85.376C127.116 84.32 128.124 83.792 129.447 83.792ZM129.271 90.864C130.071 90.864 130.743 90.592 131.287 90.048C131.831 89.4827 132.103 88.8 132.103 88C132.103 87.1893 131.831 86.512 131.287 85.968C130.743 85.4133 130.071 85.136 129.271 85.136C128.46 85.136 127.783 85.4133 127.239 85.968C126.695 86.512 126.423 87.1893 126.423 88C126.423 88.8 126.695 89.4827 127.239 90.048C127.783 90.592 128.46 90.864 129.271 90.864ZM136.939 84H140.347V92H138.971V89.12H137.803L135.563 92H133.867L136.203 89.04C135.595 88.8907 135.105 88.592 134.731 88.144C134.369 87.696 134.187 87.1733 134.187 86.576C134.187 85.84 134.449 85.2267 134.971 84.736C135.494 84.2453 136.15 84 136.939 84ZM136.987 87.872H138.971V85.296H136.987C136.582 85.296 136.241 85.4187 135.963 85.664C135.697 85.8987 135.563 86.208 135.563 86.592C135.563 86.9653 135.697 87.2747 135.963 87.52C136.241 87.7547 136.582 87.872 136.987 87.872ZM148.857 84V90.672H149.961V94.144H148.585V92H142.585V94.144H141.209V90.672H142.185C142.697 89.968 142.953 88.9813 142.953 87.712V84H148.857ZM143.769 90.672H147.481V85.296H144.329V87.712C144.329 88.8853 144.143 89.872 143.769 90.672ZM157.421 90.992C156.61 91.8027 155.613 92.208 154.429 92.208C153.245 92.208 152.248 91.8027 151.437 90.992C150.626 90.1813 150.221 89.184 150.221 88C150.221 86.816 150.626 85.8187 151.437 85.008C152.248 84.1973 153.245 83.792 154.429 83.792C155.613 83.792 156.61 84.1973 157.421 85.008C158.242 85.8293 158.653 86.8267 158.653 88C158.653 89.1733 158.242 90.1707 157.421 90.992ZM154.429 90.848C155.229 90.848 155.901 90.576 156.445 90.032C156.989 89.488 157.261 88.8107 157.261 88C157.261 87.1893 156.989 86.512 156.445 85.968C155.901 85.424 155.229 85.152 154.429 85.152C153.64 85.152 152.973 85.424 152.429 85.968C151.885 86.512 151.613 87.1893 151.613 88C151.613 88.8107 151.885 89.488 152.429 90.032C152.973 90.576 153.64 90.848 154.429 90.848ZM162.63 87.872L166.582 92H164.854L161.206 88.208V92H159.814V84H161.206V87.536L164.662 84H166.454L162.63 87.872ZM177.797 84V90.672H178.901V94.144H177.525V92H171.525V94.144H170.149V90.672H171.125C171.637 89.968 171.893 88.9813 171.893 87.712V84H177.797ZM172.709 90.672H176.421V85.296H173.269V87.712C173.269 88.8853 173.082 89.872 172.709 90.672ZM185.457 87.328V84H186.849V92H185.457V88.656H181.313V92H179.921V84H181.313V87.328H185.457ZM191.064 84H194.472V92H193.096V89.12H191.928L189.688 92H187.992L190.328 89.04C189.72 88.8907 189.229 88.592 188.856 88.144C188.493 87.696 188.312 87.1733 188.312 86.576C188.312 85.84 188.573 85.2267 189.096 84.736C189.619 84.2453 190.275 84 191.064 84ZM191.112 87.872H193.096V85.296H191.112C190.707 85.296 190.365 85.4187 190.088 85.664C189.821 85.8987 189.688 86.208 189.688 86.592C189.688 86.9653 189.821 87.2747 190.088 87.52C190.365 87.7547 190.707 87.872 191.112 87.872Z" fill="#1C1C1C"/>
<rect x="80.5" y="107.5" width="49" height="31" rx="11.5" fill="#F7F7F7"/>
<path d="M90.288 118.208V116.8H97.28V118.128L93.2 128H91.648L95.696 118.208H90.288ZM98.3466 121.888C98.0586 121.888 97.8133 121.787 97.6106 121.584C97.408 121.381 97.3066 121.136 97.3066 120.848C97.3066 120.56 97.408 120.315 97.6106 120.112C97.8133 119.909 98.0586 119.808 98.3466 119.808C98.6453 119.808 98.8906 119.909 99.0826 120.112C99.2853 120.315 99.3866 120.56 99.3866 120.848C99.3866 121.136 99.2853 121.381 99.0826 121.584C98.8906 121.787 98.6453 121.888 98.3466 121.888ZM98.3466 128.176C98.0586 128.176 97.8133 128.075 97.6106 127.872C97.408 127.669 97.3066 127.424 97.3066 127.136C97.3066 126.848 97.408 126.603 97.6106 126.4C97.8133 126.197 98.0586 126.096 98.3466 126.096C98.6453 126.096 98.8906 126.197 99.0826 126.4C99.2853 126.603 99.3866 126.848 99.3866 127.136C99.3866 127.424 99.2853 127.669 99.0826 127.872C98.8906 128.075 98.6453 128.176 98.3466 128.176ZM108.045 126.624C107.299 127.68 106.237 128.208 104.861 128.208C103.485 128.208 102.424 127.68 101.677 126.624C100.92 125.557 100.541 124.149 100.541 122.4C100.541 120.651 100.92 119.243 101.677 118.176C102.424 117.12 103.485 116.592 104.861 116.592C106.237 116.592 107.299 117.12 108.045 118.176C108.803 119.243 109.181 120.651 109.181 122.4C109.181 124.149 108.803 125.557 108.045 126.624ZM102.029 122.4C102.029 123.787 102.275 124.859 102.765 125.616C103.256 126.373 103.955 126.752 104.861 126.752C105.768 126.752 106.467 126.373 106.957 125.616C107.459 124.859 107.709 123.787 107.709 122.4C107.709 121.013 107.459 119.941 106.957 119.184C106.467 118.416 105.768 118.032 104.861 118.032C103.955 118.032 103.256 118.411 102.765 119.168C102.275 119.925 102.029 121.003 102.029 122.4ZM117.643 126.624C116.897 127.68 115.835 128.208 114.459 128.208C113.083 128.208 112.022 127.68 111.275 126.624C110.518 125.557 110.139 124.149 110.139 122.4C110.139 120.651 110.518 119.243 111.275 118.176C112.022 117.12 113.083 116.592 114.459 116.592C115.835 116.592 116.897 117.12 117.643 118.176C118.401 119.243 118.779 120.651 118.779 122.4C118.779 124.149 118.401 125.557 117.643 126.624ZM111.627 122.4C111.627 123.787 111.873 124.859 112.363 125.616C112.854 126.373 113.553 126.752 114.459 126.752C115.366 126.752 116.065 126.373 116.555 125.616C117.057 124.859 117.307 123.787 117.307 122.4C117.307 121.013 117.057 119.941 116.555 119.184C116.065 118.416 115.366 118.032 114.459 118.032C113.553 118.032 112.854 118.411 112.363 119.168C111.873 119.925 111.627 121.003 111.627 122.4Z" fill="#1C1C1C"/>
<rect x="80.5" y="107.5" width="49" height="31" rx="11.5" stroke="#E8E8E8"/>
<rect x="138.5" y="107.5" width="51" height="31" rx="11.5" fill="#F7F7F7"/>
<path d="M154.528 122.208C155.691 122.805 156.272 123.712 156.272 124.928C156.272 125.952 155.915 126.757 155.2 127.344C154.475 127.92 153.552 128.208 152.432 128.208C151.312 128.208 150.395 127.92 149.68 127.344C148.965 126.757 148.608 125.952 148.608 124.928C148.608 123.712 149.189 122.805 150.352 122.208C149.435 121.632 148.976 120.816 148.976 119.76C148.976 118.747 149.312 117.968 149.984 117.424C150.667 116.869 151.483 116.592 152.432 116.592C153.403 116.592 154.219 116.869 154.88 117.424C155.563 117.968 155.904 118.747 155.904 119.76C155.904 120.816 155.445 121.632 154.528 122.208ZM152.432 118.016C151.845 118.016 151.365 118.171 150.992 118.48C150.629 118.789 150.448 119.227 150.448 119.792C150.448 120.347 150.635 120.784 151.008 121.104C151.381 121.424 151.856 121.584 152.432 121.584C153.008 121.584 153.483 121.424 153.856 121.104C154.229 120.784 154.416 120.347 154.416 119.792C154.416 119.227 154.235 118.789 153.872 118.48C153.509 118.171 153.029 118.016 152.432 118.016ZM152.432 126.784C153.157 126.784 153.733 126.613 154.16 126.272C154.587 125.931 154.8 125.451 154.8 124.832C154.8 124.224 154.587 123.749 154.16 123.408C153.733 123.067 153.157 122.896 152.432 122.896C151.717 122.896 151.147 123.067 150.72 123.408C150.293 123.749 150.08 124.224 150.08 124.832C150.08 125.451 150.293 125.931 150.72 126.272C151.147 126.613 151.717 126.784 152.432 126.784ZM158.331 121.888C158.043 121.888 157.798 121.787 157.595 121.584C157.392 121.381 157.291 121.136 157.291 120.848C157.291 120.56 157.392 120.315 157.595 120.112C157.798 119.909 158.043 119.808 158.331 119.808C158.63 119.808 158.875 119.909 159.067 120.112C159.27 120.315 159.371 120.56 159.371 120.848C159.371 121.136 159.27 121.381 159.067 121.584C158.875 121.787 158.63 121.888 158.331 121.888ZM158.331 128.176C158.043 128.176 157.798 128.075 157.595 127.872C157.392 127.669 157.291 127.424 157.291 127.136C157.291 126.848 157.392 126.603 157.595 126.4C157.798 126.197 158.043 126.096 158.331 126.096C158.63 126.096 158.875 126.197 159.067 126.4C159.27 126.603 159.371 126.848 159.371 127.136C159.371 127.424 159.27 127.669 159.067 127.872C158.875 128.075 158.63 128.176 158.331 128.176ZM168.03 126.624C167.283 127.68 166.222 128.208 164.846 128.208C163.47 128.208 162.408 127.68 161.662 126.624C160.904 125.557 160.526 124.149 160.526 122.4C160.526 120.651 160.904 119.243 161.662 118.176C162.408 117.12 163.47 116.592 164.846 116.592C166.222 116.592 167.283 117.12 168.03 118.176C168.787 119.243 169.166 120.651 169.166 122.4C169.166 124.149 168.787 125.557 168.03 126.624ZM162.014 122.4C162.014 123.787 162.259 124.859 162.75 125.616C163.24 126.373 163.939 126.752 164.846 126.752C165.752 126.752 166.451 126.373 166.942 125.616C167.443 124.859 167.694 123.787 167.694 122.4C167.694 121.013 167.443 119.941 166.942 119.184C166.451 118.416 165.752 118.032 164.846 118.032C163.939 118.032 163.24 118.411 162.75 119.168C162.259 119.925 162.014 121.003 162.014 122.4ZM177.628 126.624C176.881 127.68 175.82 128.208 174.444 128.208C173.068 128.208 172.006 127.68 171.26 126.624C170.502 125.557 170.124 124.149 170.124 122.4C170.124 120.651 170.502 119.243 171.26 118.176C172.006 117.12 173.068 116.592 174.444 116.592C175.82 116.592 176.881 117.12 177.628 118.176C178.385 119.243 178.764 120.651 178.764 122.4C178.764 124.149 178.385 125.557 177.628 126.624ZM171.612 122.4C171.612 123.787 171.857 124.859 172.348 125.616C172.838 126.373 173.537 126.752 174.444 126.752C175.35 126.752 176.049 126.373 176.54 125.616C177.041 124.859 177.292 123.787 177.292 122.4C177.292 121.013 177.041 119.941 176.54 119.184C176.049 118.416 175.35 118.032 174.444 118.032C173.537 118.032 172.838 118.411 172.348 119.168C171.857 119.925 171.612 121.003 171.612 122.4Z" fill="#1C1C1C"/>
<rect x="138.5" y="107.5" width="51" height="31" rx="11.5" stroke="#E8E8E8"/>
<rect x="196.5" y="107.5" width="51" height="31" rx="11.5" fill="#F7F7F7"/>
<path d="M214.16 120.352C214.16 121.227 213.931 121.979 213.472 122.608H213.488L209.872 128H208.192L210.848 124.08C210.528 124.101 210.347 124.112 210.304 124.112C209.173 124.112 208.245 123.765 207.52 123.072C206.805 122.368 206.448 121.461 206.448 120.352C206.448 119.232 206.805 118.331 207.52 117.648C208.235 116.944 209.163 116.592 210.304 116.592C211.424 116.592 212.347 116.944 213.072 117.648C213.797 118.341 214.16 119.243 214.16 120.352ZM210.304 118.016C209.6 118.016 209.024 118.229 208.576 118.656C208.139 119.083 207.92 119.648 207.92 120.352C207.92 121.056 208.139 121.627 208.576 122.064C209.024 122.491 209.6 122.704 210.304 122.704C211.008 122.704 211.579 122.491 212.016 122.064C212.464 121.627 212.688 121.056 212.688 120.352C212.688 119.648 212.469 119.083 212.032 118.656C211.595 118.229 211.019 118.016 210.304 118.016ZM216.065 121.888C215.777 121.888 215.532 121.787 215.329 121.584C215.127 121.381 215.025 121.136 215.025 120.848C215.025 120.56 215.127 120.315 215.329 120.112C215.532 119.909 215.777 119.808 216.065 119.808C216.364 119.808 216.609 119.909 216.801 120.112C217.004 120.315 217.105 120.56 217.105 120.848C217.105 121.136 217.004 121.381 216.801 121.584C216.609 121.787 216.364 121.888 216.065 121.888ZM216.065 128.176C215.777 128.176 215.532 128.075 215.329 127.872C215.127 127.669 215.025 127.424 215.025 127.136C215.025 126.848 215.127 126.603 215.329 126.4C215.532 126.197 215.777 126.096 216.065 126.096C216.364 126.096 216.609 126.197 216.801 126.4C217.004 126.603 217.105 126.848 217.105 127.136C217.105 127.424 217.004 127.669 216.801 127.872C216.609 128.075 216.364 128.176 216.065 128.176ZM225.764 126.624C225.017 127.68 223.956 128.208 222.58 128.208C221.204 128.208 220.143 127.68 219.396 126.624C218.639 125.557 218.26 124.149 218.26 122.4C218.26 120.651 218.639 119.243 219.396 118.176C220.143 117.12 221.204 116.592 222.58 116.592C223.956 116.592 225.017 117.12 225.764 118.176C226.521 119.243 226.9 120.651 226.9 122.4C226.9 124.149 226.521 125.557 225.764 126.624ZM219.748 122.4C219.748 123.787 219.993 124.859 220.484 125.616C220.975 126.373 221.673 126.752 222.58 126.752C223.487 126.752 224.185 126.373 224.676 125.616C225.177 124.859 225.428 123.787 225.428 122.4C225.428 121.013 225.177 119.941 224.676 119.184C224.185 118.416 223.487 118.032 222.58 118.032C221.673 118.032 220.975 118.411 220.484 119.168C219.993 119.925 219.748 121.003 219.748 122.4ZM235.362 126.624C234.615 127.68 233.554 128.208 232.178 128.208C230.802 128.208 229.741 127.68 228.994 126.624C228.237 125.557 227.858 124.149 227.858 122.4C227.858 120.651 228.237 119.243 228.994 118.176C229.741 117.12 230.802 116.592 232.178 116.592C233.554 116.592 234.615 117.12 235.362 118.176C236.119 119.243 236.498 120.651 236.498 122.4C236.498 124.149 236.119 125.557 235.362 126.624ZM229.346 122.4C229.346 123.787 229.591 124.859 230.082 125.616C230.573 126.373 231.271 126.752 232.178 126.752C233.085 126.752 233.783 126.373 234.274 125.616C234.775 124.859 235.026 123.787 235.026 122.4C235.026 121.013 234.775 119.941 234.274 119.184C233.783 118.416 233.085 118.032 232.178 118.032C231.271 118.032 230.573 118.411 230.082 119.168C229.591 119.925 229.346 121.003 229.346 122.4Z" fill="#1C1C1C"/>
<rect x="196.5" y="107.5" width="51" height="31" rx="11.5" stroke="#E8E8E8"/>
<rect x="254.5" y="107.5" width="57" height="31" rx="11.5" fill="#A8FD32"/>
<path d="M264.224 117.824L267.168 116.8H268.448V128H266.976V118.4L264.592 119.104L264.224 117.824ZM277.447 126.624C276.7 127.68 275.639 128.208 274.263 128.208C272.887 128.208 271.826 127.68 271.079 126.624C270.322 125.557 269.943 124.149 269.943 122.4C269.943 120.651 270.322 119.243 271.079 118.176C271.826 117.12 272.887 116.592 274.263 116.592C275.639 116.592 276.7 117.12 277.447 118.176C278.204 119.243 278.583 120.651 278.583 122.4C278.583 124.149 278.204 125.557 277.447 126.624ZM271.431 122.4C271.431 123.787 271.676 124.859 272.167 125.616C272.658 126.373 273.356 126.752 274.263 126.752C275.17 126.752 275.868 126.373 276.359 125.616C276.86 124.859 277.111 123.787 277.111 122.4C277.111 121.013 276.86 119.941 276.359 119.184C275.868 118.416 275.17 118.032 274.263 118.032C273.356 118.032 272.658 118.411 272.167 119.168C271.676 119.925 271.431 121.003 271.431 122.4ZM280.757 121.888C280.469 121.888 280.224 121.787 280.021 121.584C279.819 121.381 279.717 121.136 279.717 120.848C279.717 120.56 279.819 120.315 280.021 120.112C280.224 119.909 280.469 119.808 280.757 119.808C281.056 119.808 281.301 119.909 281.493 120.112C281.696 120.315 281.797 120.56 281.797 120.848C281.797 121.136 281.696 121.381 281.493 121.584C281.301 121.787 281.056 121.888 280.757 121.888ZM280.757 128.176C280.469 128.176 280.224 128.075 280.021 127.872C279.819 127.669 279.717 127.424 279.717 127.136C279.717 126.848 279.819 126.603 280.021 126.4C280.224 126.197 280.469 126.096 280.757 126.096C281.056 126.096 281.301 126.197 281.493 126.4C281.696 126.603 281.797 126.848 281.797 127.136C281.797 127.424 281.696 127.669 281.493 127.872C281.301 128.075 281.056 128.176 280.757 128.176ZM290.456 126.624C289.709 127.68 288.648 128.208 287.272 128.208C285.896 128.208 284.835 127.68 284.088 126.624C283.331 125.557 282.952 124.149 282.952 122.4C282.952 120.651 283.331 119.243 284.088 118.176C284.835 117.12 285.896 116.592 287.272 116.592C288.648 116.592 289.709 117.12 290.456 118.176C291.213 119.243 291.592 120.651 291.592 122.4C291.592 124.149 291.213 125.557 290.456 126.624ZM284.44 122.4C284.44 123.787 284.685 124.859 285.176 125.616C285.667 126.373 286.365 126.752 287.272 126.752C288.179 126.752 288.877 126.373 289.368 125.616C289.869 124.859 290.12 123.787 290.12 122.4C290.12 121.013 289.869 119.941 289.368 119.184C288.877 118.416 288.179 118.032 287.272 118.032C286.365 118.032 285.667 118.411 285.176 119.168C284.685 119.925 284.44 121.003 284.44 122.4ZM300.054 126.624C299.307 127.68 298.246 128.208 296.87 128.208C295.494 128.208 294.433 127.68 293.686 126.624C292.929 125.557 292.55 124.149 292.55 122.4C292.55 120.651 292.929 119.243 293.686 118.176C294.433 117.12 295.494 116.592 296.87 116.592C298.246 116.592 299.307 117.12 300.054 118.176C300.811 119.243 301.19 120.651 301.19 122.4C301.19 124.149 300.811 125.557 300.054 126.624ZM294.038 122.4C294.038 123.787 294.283 124.859 294.774 125.616C295.265 126.373 295.963 126.752 296.87 126.752C297.777 126.752 298.475 126.373 298.966 125.616C299.467 124.859 299.718 123.787 299.718 122.4C299.718 121.013 299.467 119.941 298.966 119.184C298.475 118.416 297.777 118.032 296.87 118.032C295.963 118.032 295.265 118.411 294.774 119.168C294.283 119.925 294.038 121.003 294.038 122.4Z" fill="#1C1C1C"/>
<rect x="254.5" y="107.5" width="57" height="31" rx="11.5" stroke="#A1EA3B"/>
<rect x="318.5" y="107.5" width="53" height="31" rx="11.5" fill="#F7F7F7"/>
<rect x="318.5" y="107.5" width="53" height="31" rx="11.5" stroke="#E8E8E8"/>
<rect x="67" y="154" width="247" height="36.8024" rx="18.4012" fill="#A8FD32"/>
<path d="M129.598 173.121C130.069 172.756 130.069 172.045 129.598 171.68C128.174 170.578 126.584 169.71 124.887 169.107L124.577 168.997C123.984 168.786 123.358 169.188 123.278 169.8C123.053 171.51 123.053 173.291 123.278 175.001C123.358 175.613 123.984 176.014 124.577 175.804L124.887 175.693C126.584 175.091 128.174 174.222 129.598 173.121Z" fill="black"/>
<path d="M142.74 172.541V169.988H144.125V176.401H142.74V173.849H139.803V176.401H138.418V169.988H139.803V172.541H142.74ZM150.427 170.899V169.988H151.812V176.401H150.427V175.478C149.905 176.205 149.157 176.568 148.182 176.568C147.302 176.568 146.549 176.243 145.925 175.593C145.301 174.943 144.989 174.144 144.989 173.195C144.989 172.246 145.301 171.446 145.925 170.796C146.549 170.146 147.302 169.821 148.182 169.821C149.157 169.821 149.905 170.181 150.427 170.899ZM146.951 174.67C147.336 175.055 147.819 175.247 148.4 175.247C148.982 175.247 149.465 175.055 149.85 174.67C150.235 174.276 150.427 173.785 150.427 173.195C150.427 172.605 150.235 172.117 149.85 171.733C149.465 171.339 148.982 171.143 148.4 171.143C147.819 171.143 147.336 171.339 146.951 171.733C146.566 172.117 146.374 172.605 146.374 173.195C146.374 173.776 146.566 174.268 146.951 174.67ZM156.941 172.925V169.988H158.327V176.401H156.941V174.234C156.437 174.422 155.898 174.516 155.325 174.516C154.513 174.516 153.88 174.319 153.427 173.926C152.974 173.524 152.747 172.947 152.747 172.194V169.988H154.132V172.066C154.132 172.836 154.59 173.22 155.505 173.22C156.026 173.22 156.505 173.122 156.941 172.925ZM164.638 170.899V169.988H166.023V176.401H164.638V175.478C164.117 176.205 163.368 176.568 162.394 176.568C161.513 176.568 160.76 176.243 160.136 175.593C159.512 174.943 159.2 174.144 159.2 173.195C159.2 172.246 159.512 171.446 160.136 170.796C160.76 170.146 161.513 169.821 162.394 169.821C163.368 169.821 164.117 170.181 164.638 170.899ZM161.162 174.67C161.547 175.055 162.03 175.247 162.612 175.247C163.193 175.247 163.676 175.055 164.061 174.67C164.446 174.276 164.638 173.785 164.638 173.195C164.638 172.605 164.446 172.117 164.061 171.733C163.676 171.339 163.193 171.143 162.612 171.143C162.03 171.143 161.547 171.339 161.162 171.733C160.777 172.117 160.585 172.605 160.585 173.195C160.585 173.776 160.777 174.268 161.162 174.67ZM166.573 169.988H172.153V171.322H170.062V176.401H168.677V171.322H166.573V169.988ZM174.091 172.169H175.502C176.194 172.169 176.754 172.365 177.182 172.759C177.618 173.143 177.836 173.652 177.836 174.285C177.836 174.909 177.618 175.418 177.182 175.811C176.754 176.205 176.194 176.401 175.502 176.401H172.705V169.988H174.091V172.169ZM174.091 175.157H175.514C175.788 175.157 176.015 175.076 176.194 174.914C176.382 174.751 176.476 174.542 176.476 174.285C176.476 174.028 176.387 173.819 176.207 173.657C176.027 173.494 175.797 173.413 175.514 173.413H174.091V175.157ZM185.035 169.821C185.907 169.821 186.66 170.151 187.293 170.809C187.917 171.459 188.229 172.254 188.229 173.195C188.229 174.144 187.917 174.943 187.293 175.593C186.668 176.243 185.916 176.568 185.035 176.568C184.069 176.568 183.321 176.209 182.791 175.491V178.967H181.405V169.988H182.791V170.912C183.312 170.185 184.06 169.821 185.035 169.821ZM183.368 174.67C183.753 175.055 184.236 175.247 184.817 175.247C185.399 175.247 185.882 175.055 186.267 174.67C186.651 174.276 186.844 173.785 186.844 173.195C186.844 172.605 186.651 172.117 186.267 171.733C185.882 171.339 185.399 171.143 184.817 171.143C184.236 171.143 183.753 171.339 183.368 171.733C182.983 172.117 182.791 172.605 182.791 173.195C182.791 173.776 182.983 174.268 183.368 174.67ZM194.179 170.899V169.988H195.564V176.401H194.179V175.478C193.657 176.205 192.909 176.568 191.934 176.568C191.054 176.568 190.301 176.243 189.677 175.593C189.053 174.943 188.741 174.144 188.741 173.195C188.741 172.246 189.053 171.446 189.677 170.796C190.301 170.146 191.054 169.821 191.934 169.821C192.909 169.821 193.657 170.181 194.179 170.899ZM190.703 174.67C191.088 175.055 191.571 175.247 192.152 175.247C192.734 175.247 193.217 175.055 193.602 174.67C193.986 174.276 194.179 173.785 194.179 173.195C194.179 172.605 193.986 172.117 193.602 171.733C193.217 171.339 192.734 171.143 192.152 171.143C191.571 171.143 191.088 171.339 190.703 171.733C190.318 172.117 190.126 172.605 190.126 173.195C190.126 173.776 190.318 174.268 190.703 174.67ZM199.77 176.568C198.795 176.568 197.991 176.252 197.358 175.619C196.743 174.978 196.435 174.161 196.435 173.169C196.435 172.092 196.597 171.254 196.922 170.655C197.239 170.065 197.897 169.522 198.897 169.026C198.932 169.009 198.987 168.983 199.064 168.949C199.15 168.907 199.24 168.864 199.334 168.821C199.428 168.778 199.522 168.735 199.616 168.693C199.975 168.53 200.197 168.428 200.283 168.385C200.334 168.359 200.484 168.265 200.732 168.103C201.031 167.889 201.232 167.585 201.334 167.192L202.463 167.846C202.42 168.316 202.125 168.748 201.578 169.142C201.484 169.227 201.309 169.33 201.052 169.449L200.501 169.706L199.859 169.975C199.304 170.198 198.893 170.424 198.628 170.655C198.363 170.886 198.179 171.181 198.077 171.54C198.59 170.959 199.287 170.668 200.167 170.668C200.92 170.668 201.574 170.937 202.13 171.476C202.694 172.015 202.976 172.712 202.976 173.567C202.976 174.439 202.677 175.157 202.078 175.722C201.488 176.286 200.719 176.568 199.77 176.568ZM199.757 175.273C200.296 175.273 200.736 175.114 201.078 174.798C201.42 174.473 201.591 174.063 201.591 173.567C201.591 173.062 201.42 172.648 201.078 172.323C200.744 171.998 200.308 171.835 199.77 171.835C199.291 171.835 198.859 171.989 198.474 172.297C198.089 172.588 197.897 172.99 197.897 173.503C197.897 174.016 198.077 174.439 198.436 174.772C198.795 175.106 199.235 175.273 199.757 175.273ZM209.112 175.593C208.462 176.243 207.663 176.568 206.714 176.568C205.764 176.568 204.965 176.243 204.315 175.593C203.657 174.935 203.327 174.135 203.327 173.195C203.327 172.254 203.657 171.455 204.315 170.796C204.965 170.146 205.764 169.821 206.714 169.821C207.663 169.821 208.462 170.146 209.112 170.796C209.771 171.455 210.1 172.254 210.1 173.195C210.1 174.135 209.771 174.935 209.112 175.593ZM204.713 173.195C204.713 173.776 204.905 174.259 205.29 174.644C205.675 175.029 206.149 175.221 206.714 175.221C207.278 175.221 207.753 175.029 208.137 174.644C208.522 174.259 208.715 173.776 208.715 173.195C208.715 172.613 208.522 172.13 208.137 171.745C207.753 171.361 207.278 171.168 206.714 171.168C206.149 171.168 205.675 171.361 205.29 171.745C204.905 172.13 204.713 172.613 204.713 173.195ZM214.742 172.925V169.988H216.127V176.401H214.742V174.234C214.237 174.422 213.698 174.516 213.125 174.516C212.313 174.516 211.68 174.319 211.227 173.926C210.774 173.524 210.547 172.947 210.547 172.194V169.988H211.933V172.066C211.933 172.836 212.39 173.22 213.305 173.22C213.827 173.22 214.305 173.122 214.742 172.925ZM218.719 174.054L222.002 169.988H223.067V176.401H221.707V172.323L218.424 176.401H217.359V169.988H218.719V174.054ZM228.933 169.09H225.341V167.885H228.933V169.09ZM225.649 174.054L228.933 169.988H229.997V176.401H228.638V172.323L225.354 176.401H224.289V169.988H225.649V174.054ZM239.685 169.988V175.093H240.544V178.12H239.185V176.401H234.785V178.12H233.426V175.093H234.208C234.602 174.546 234.798 173.772 234.798 172.772V169.988H239.685ZM235.735 175.093H238.325V171.258H236.158V172.772C236.158 173.695 236.017 174.469 235.735 175.093ZM247.229 173.785H242.125C242.227 174.264 242.458 174.636 242.817 174.901C243.185 175.166 243.638 175.298 244.177 175.298C244.904 175.298 245.455 175.033 245.831 174.503L246.973 175.17C246.349 176.102 245.412 176.568 244.164 176.568C243.129 176.568 242.287 176.252 241.637 175.619C240.996 174.978 240.675 174.17 240.675 173.195C240.675 172.246 240.992 171.446 241.624 170.796C242.249 170.146 243.061 169.821 244.061 169.821C244.993 169.821 245.763 170.151 246.37 170.809C246.977 171.467 247.281 172.267 247.281 173.208C247.281 173.379 247.264 173.571 247.229 173.785ZM242.112 172.656H245.883C245.789 172.152 245.575 171.763 245.241 171.489C244.916 171.215 244.519 171.078 244.049 171.078C243.535 171.078 243.108 171.22 242.766 171.502C242.424 171.784 242.206 172.169 242.112 172.656ZM252.437 172.541V169.988H253.823V176.401H252.437V173.849H249.5V176.401H248.115V169.988H249.5V172.541H252.437ZM256.43 172.169H257.841C258.534 172.169 259.094 172.365 259.522 172.759C259.958 173.143 260.176 173.652 260.176 174.285C260.176 174.909 259.958 175.418 259.522 175.811C259.094 176.205 258.534 176.401 257.841 176.401H255.045V169.988H256.43V172.169ZM256.43 175.157H257.854C258.128 175.157 258.354 175.076 258.534 174.914C258.722 174.751 258.816 174.542 258.816 174.285C258.816 174.028 258.726 173.819 258.547 173.657C258.367 173.494 258.136 173.413 257.854 173.413H256.43V175.157Z" fill="#1C1C1C"/>
<path d="M79.7344 126.826C90.3154 119.591 100.228 111.13 112.103 106.011C112.123 106.003 114.406 104.898 113.809 105.843C112.24 108.333 109.518 110.406 107.529 112.53C102.708 117.674 97.8532 122.804 93.135 128.043C90.435 131.04 87.1133 134.298 85.2457 137.932C84.8968 138.611 85.4562 138.182 85.6933 137.988C86.8738 137.022 88.0092 136.011 89.2183 135.079C92.1791 132.794 95.3171 130.664 98.8002 129.26C100.82 128.445 101.773 128.367 100.717 130.882C100.418 131.592 99.2335 133.126 99.4157 133.946C99.4877 134.27 100.045 133.718 100.325 133.54C102.629 132.07 104.959 130.689 107.431 129.511C110.655 127.975 114.118 126.499 117.67 125.93C118.327 125.825 119.637 125.522 119.097 126.602C118.874 127.047 116.838 129.011 117.502 129.343" stroke="#1A1A1A" stroke-width="2" stroke-linecap="round"/>
<path d="M144.357 129.463C144.138 129.463 146.674 128.403 146.791 128.337C152.576 125.051 157.912 120.854 163.314 116.988C166.422 114.763 169.454 112.425 172.591 110.242C174.055 109.223 174.544 109.054 173.036 110.548C166.474 117.049 158.864 122.391 152.438 129.074C150.576 131.011 148.653 133.141 147.32 135.5C146.959 136.138 151.553 133.841 151.631 133.803C162.457 128.49 173.9 123.699 185.526 120.423C186.272 120.213 188.2 119.461 187.835 120.145C186.876 121.942 184.115 123.386 182.633 124.637C179.409 127.359 175.608 130.328 173.259 133.914C172.519 135.043 175.162 133.378 175.401 133.219" stroke="#1A1A1A" stroke-width="2" stroke-linecap="round"/>
<path d="M204.133 127.325C204.391 125.392 205.978 123.674 207.137 122.242C211.029 117.439 215.183 112.787 219.431 108.296C220.709 106.945 222.027 105.644 223.487 104.49C223.772 104.265 224.604 103.51 225.09 103.438C225.574 103.367 225.165 105.377 225.115 105.517C224.208 108.034 222.689 110.472 221.609 112.928C219.662 117.36 217.706 121.803 216.101 126.373C215.62 127.745 214.499 129.822 214.499 131.331C214.499 131.477 214.804 131.28 214.912 131.181C215.835 130.326 216.696 129.42 217.666 128.614C220.062 126.622 222.823 124.655 225.816 123.682C226.432 123.481 229.164 122.682 229.534 123.682C230.017 124.985 229.305 127.117 229.021 128.376C228.604 130.222 227.954 132.408 228.282 134.323C228.557 135.93 230.972 133.973 231.725 133.872C232.43 133.778 232.477 134.511 232.977 134.761" stroke="#1A1A1A" stroke-width="2" stroke-linecap="round"/>
</g>
<defs>
<clipPath id="clip0_502_17096">
<rect x="53" y="56" width="275" height="148" rx="30" fill="white"/>
</clipPath>
</defs>
</svg>
