<svg width="380" height="260" viewBox="0 0 380 260" fill="none" xmlns="http://www.w3.org/2000/svg">
<g clip-path="url(#clip0_502_17083)">
<rect width="380" height="260" rx="21" fill="#7341FE"/>
<path d="M118.845 73.7132C118.845 57.7959 123.191 42.447 131.885 27.6667C140.8 12.6021 152.948 0.379844 168.328 -9L170 -2.60466C159.747 4.78553 151.388 13.4548 144.924 23.4031C138.46 33.0672 134.894 43.1576 134.225 53.6744C137.123 50.2636 140.132 47.5633 143.252 45.5736C146.373 43.584 149.605 42.5892 152.948 42.5892C157.183 42.5892 160.304 44.1525 162.31 47.2791C164.539 50.4057 165.653 54.6693 165.653 60.0698C165.653 66.6072 164.205 73.0026 161.307 79.2558C158.632 85.5091 155.066 90.7674 150.608 95.031C146.15 99.0103 141.358 101 136.231 101C130.436 101 126.089 98.7261 123.191 94.1783C120.294 89.3463 118.845 82.5246 118.845 73.7132ZM60 73.7132C60 57.7959 64.3465 42.447 73.0395 27.6667C81.9554 12.6021 94.1033 0.379844 109.483 -9L111.155 -2.60466C100.902 4.78553 92.5431 13.4548 86.079 23.4031C79.615 33.0672 76.0486 43.1576 75.3799 53.6744C78.0547 50.2636 80.9524 47.5633 84.0729 45.5736C87.4164 43.584 90.7599 42.5892 94.1033 42.5892C98.1155 42.5892 101.236 44.1525 103.465 47.2791C105.694 50.4057 106.809 54.6693 106.809 60.0698C106.809 66.6072 105.36 73.0026 102.462 79.2558C99.7872 85.5091 96.2209 90.7674 91.7629 95.031C87.305 99.0103 82.5127 101 77.386 101C71.5907 101 67.2442 98.7261 64.3465 94.1783C61.4488 89.3463 60 82.5246 60 73.7132Z" fill="#A8FD32"/>
<path d="M68.48 172.98L78.688 184.5H75.04L65.376 173.748V184.5H62.4V162.1H65.376V172.212L74.72 162.1H78.368L68.48 172.98ZM91.836 182.484C90.2147 184.105 88.22 184.916 85.852 184.916C83.484 184.916 81.4893 184.105 79.868 182.484C78.2467 180.863 77.436 178.868 77.436 176.5C77.436 174.132 78.2467 172.137 79.868 170.516C81.4893 168.895 83.484 168.084 85.852 168.084C88.22 168.084 90.2147 168.895 91.836 170.516C93.4787 172.159 94.3 174.153 94.3 176.5C94.3 178.847 93.4787 180.841 91.836 182.484ZM85.852 182.196C87.452 182.196 88.796 181.652 89.884 180.564C90.972 179.476 91.516 178.121 91.516 176.5C91.516 174.879 90.972 173.524 89.884 172.436C88.796 171.348 87.452 170.804 85.852 170.804C84.2733 170.804 82.94 171.348 81.852 172.436C80.764 173.524 80.22 174.879 80.22 176.5C80.22 178.121 80.764 179.476 81.852 180.564C82.94 181.652 84.2733 182.196 85.852 182.196ZM97.2115 168.5H109.083V184.5H106.299V171.188H99.9955V177.716C99.9955 180.276 99.4835 182.1 98.4595 183.188C97.4355 184.255 95.9315 184.692 93.9475 184.5V181.876C95.0568 182.025 95.8782 181.78 96.4115 181.14C96.9448 180.479 97.2115 179.316 97.2115 177.652V168.5ZM113.494 168.5H125.366V184.5H122.582V171.188H116.278V177.716C116.278 180.276 115.766 182.1 114.742 183.188C113.718 184.255 112.214 184.692 110.23 184.5V181.876C111.339 182.025 112.161 181.78 112.694 181.14C113.227 180.479 113.494 179.316 113.494 177.652V168.5ZM143.664 177.78H130.256C130.534 179.188 131.184 180.297 132.208 181.108C133.232 181.897 134.512 182.292 136.048 182.292C138.16 182.292 139.696 181.513 140.656 179.956L143.024 181.3C141.446 183.711 139.099 184.916 135.984 184.916C133.467 184.916 131.398 184.127 129.776 182.548C128.198 180.927 127.408 178.911 127.408 176.5C127.408 174.068 128.187 172.063 129.744 170.484C131.302 168.884 133.318 168.084 135.792 168.084C138.139 168.084 140.048 168.916 141.52 170.58C143.014 172.201 143.76 174.185 143.76 176.532C143.76 176.937 143.728 177.353 143.664 177.78ZM135.792 170.708C134.32 170.708 133.083 171.124 132.08 171.956C131.099 172.788 130.491 173.919 130.256 175.348H140.944C140.71 173.876 140.123 172.735 139.184 171.924C138.246 171.113 137.115 170.708 135.792 170.708ZM145.681 168.5H156.177V171.188H148.465V184.5H145.681V168.5ZM160.09 179.732L168.954 168.5H171.194V184.5H168.442V173.268L159.578 184.5H157.338V168.5H160.09V179.732ZM175.112 181.204H178.312L176.232 188.98H173.832L175.112 181.204ZM193.318 176.244L201.222 184.5H197.766L190.47 176.916V184.5H187.686V168.5H190.47V175.572L197.382 168.5H200.966L193.318 176.244ZM214.31 171.252V168.5H217.094V184.5H214.31V181.748C212.945 183.86 210.929 184.916 208.262 184.916C206.001 184.916 204.091 184.105 202.534 182.484C200.955 180.841 200.166 178.847 200.166 176.5C200.166 174.175 200.955 172.191 202.534 170.548C204.113 168.905 206.022 168.084 208.262 168.084C210.929 168.084 212.945 169.14 214.31 171.252ZM208.614 182.228C210.235 182.228 211.59 181.684 212.678 180.596C213.766 179.465 214.31 178.1 214.31 176.5C214.31 174.879 213.766 173.524 212.678 172.436C211.59 171.327 210.235 170.772 208.614 170.772C207.014 170.772 205.67 171.327 204.582 172.436C203.494 173.524 202.95 174.879 202.95 176.5C202.95 178.1 203.494 179.465 204.582 180.596C205.67 181.684 207.014 182.228 208.614 182.228ZM225.664 176.244L233.568 184.5H230.112L222.816 176.916V184.5H220.032V168.5H222.816V175.572L229.728 168.5H233.312L225.664 176.244ZM248.157 181.044L252.765 168.5H255.741L249.213 185.492C248.53 187.305 247.57 188.681 246.333 189.62C245.096 190.58 243.688 191.007 242.109 190.9V188.308C244.05 188.457 245.49 187.391 246.429 185.108L246.685 184.532L239.741 168.5H242.685L248.157 181.044ZM276.594 172.884C277.639 173.396 278.46 174.111 279.058 175.028C279.655 175.945 279.954 176.991 279.954 178.164C279.954 179.956 279.324 181.46 278.066 182.676C276.807 183.892 275.271 184.5 273.458 184.5H263.794V162.1H272.754C274.524 162.1 276.007 162.687 277.202 163.86C278.418 165.033 279.026 166.484 279.026 168.212C279.026 170.217 278.215 171.775 276.594 172.884ZM272.754 164.884H266.77V171.732H272.754C273.692 171.732 274.482 171.401 275.122 170.74C275.762 170.079 276.082 169.268 276.082 168.308C276.082 167.369 275.751 166.569 275.09 165.908C274.45 165.225 273.671 164.884 272.754 164.884ZM266.77 181.716H273.458C274.46 181.716 275.303 181.364 275.986 180.66C276.668 179.956 277.01 179.092 277.01 178.068C277.01 177.065 276.658 176.212 275.954 175.508C275.292 174.804 274.46 174.452 273.458 174.452H266.77V181.716ZM295.255 171.252V168.5H298.039V184.5H295.255V181.748C293.89 183.86 291.874 184.916 289.207 184.916C286.946 184.916 285.036 184.105 283.479 182.484C281.9 180.841 281.111 178.847 281.111 176.5C281.111 174.175 281.9 172.191 283.479 170.548C285.058 168.905 286.967 168.084 289.207 168.084C291.874 168.084 293.89 169.14 295.255 171.252ZM289.559 182.228C291.18 182.228 292.535 181.684 293.623 180.596C294.711 179.465 295.255 178.1 295.255 176.5C295.255 174.879 294.711 173.524 293.623 172.436C292.535 171.327 291.18 170.772 289.559 170.772C287.959 170.772 286.615 171.327 285.527 172.436C284.439 173.524 283.895 174.879 283.895 176.5C283.895 178.1 284.439 179.465 285.527 180.596C286.615 181.684 287.959 182.228 289.559 182.228ZM308.497 184.916C306.086 184.916 304.081 184.116 302.481 182.516C300.881 180.895 300.081 178.889 300.081 176.5C300.081 174.111 300.881 172.116 302.481 170.516C304.081 168.895 306.086 168.084 308.497 168.084C310.076 168.084 311.494 168.468 312.753 169.236C314.012 169.983 314.95 170.996 315.569 172.276L313.233 173.62C312.828 172.767 312.198 172.084 311.345 171.572C310.513 171.06 309.564 170.804 308.497 170.804C306.897 170.804 305.553 171.348 304.465 172.436C303.398 173.545 302.865 174.9 302.865 176.5C302.865 178.079 303.398 179.423 304.465 180.532C305.553 181.62 306.897 182.164 308.497 182.164C309.564 182.164 310.524 181.919 311.377 181.428C312.23 180.916 312.881 180.233 313.329 179.38L315.697 180.756C314.993 182.036 314.001 183.049 312.721 183.796C311.441 184.543 310.033 184.916 308.497 184.916ZM68.672 213.044L73.28 200.5H76.256L69.728 217.492C69.0453 219.305 68.0853 220.681 66.848 221.62C65.6107 222.58 64.2027 223.007 62.624 222.9V220.308C64.5653 220.457 66.0053 219.391 66.944 217.108L67.2 216.532L60.256 200.5H63.2L68.672 213.044ZM84.1958 216.916C81.7851 216.916 79.7798 216.116 78.1798 214.516C76.5798 212.895 75.7798 210.889 75.7798 208.5C75.7798 206.111 76.5798 204.116 78.1798 202.516C79.7798 200.895 81.7851 200.084 84.1958 200.084C85.7744 200.084 87.1931 200.468 88.4518 201.236C89.7104 201.983 90.6491 202.996 91.2678 204.276L88.9318 205.62C88.5264 204.767 87.8971 204.084 87.0438 203.572C86.2118 203.06 85.2624 202.804 84.1958 202.804C82.5958 202.804 81.2518 203.348 80.1638 204.436C79.0971 205.545 78.5638 206.9 78.5638 208.5C78.5638 210.079 79.0971 211.423 80.1638 212.532C81.2518 213.62 82.5958 214.164 84.1958 214.164C85.2624 214.164 86.2224 213.919 87.0758 213.428C87.9291 212.916 88.5798 212.233 89.0278 211.38L91.3958 212.756C90.6918 214.036 89.6998 215.049 88.4198 215.796C87.1398 216.543 85.7318 216.916 84.1958 216.916ZM92.8958 200.5H106.752V216.5H103.968V203.156H95.6798V216.5H92.8958V200.5ZM125.069 209.78H111.661C111.939 211.188 112.589 212.297 113.614 213.108C114.638 213.897 115.918 214.292 117.454 214.292C119.566 214.292 121.102 213.513 122.062 211.956L124.43 213.3C122.851 215.711 120.504 216.916 117.39 216.916C114.872 216.916 112.803 216.127 111.181 214.548C109.603 212.927 108.813 210.911 108.813 208.5C108.813 206.068 109.592 204.063 111.15 202.484C112.707 200.884 114.723 200.084 117.198 200.084C119.544 200.084 121.454 200.916 122.926 202.58C124.419 204.201 125.166 206.185 125.166 208.532C125.166 208.937 125.134 209.353 125.069 209.78ZM117.198 202.708C115.726 202.708 114.488 203.124 113.486 203.956C112.504 204.788 111.896 205.919 111.661 207.348H122.35C122.115 205.876 121.528 204.735 120.59 203.924C119.651 203.113 118.52 202.708 117.198 202.708ZM134.112 208.244L140.224 216.5H136.96L132.48 210.452L127.968 216.5H124.704L130.848 208.276L125.056 200.5H128.352L132.48 206.068L136.608 200.5H139.872L134.112 208.244ZM144.276 211.732L153.14 200.5H155.38V216.5H152.628V205.268L143.764 216.5H141.524V200.5H144.276V211.732ZM165.668 209.94H162.693C162.693 208.191 163.386 206.623 164.773 205.236C164.901 205.108 165.306 204.724 165.989 204.084C166.693 203.423 167.151 202.964 167.365 202.708C167.599 202.431 167.855 202.015 168.133 201.46C168.431 200.905 168.581 200.372 168.581 199.86C168.581 198.815 168.218 198.004 167.493 197.428C166.767 196.852 165.807 196.564 164.613 196.564C162.266 196.564 160.762 197.599 160.1 199.668L157.572 198.26C158.084 196.809 158.97 195.689 160.228 194.9C161.508 194.089 162.98 193.684 164.644 193.684C166.522 193.684 168.143 194.217 169.509 195.284C170.874 196.329 171.557 197.812 171.557 199.732C171.557 201.396 170.863 202.921 169.477 204.308C169.37 204.415 169.039 204.735 168.484 205.268C167.93 205.78 167.557 206.153 167.365 206.388C167.172 206.601 166.906 206.932 166.564 207.38C166.223 207.828 165.988 208.255 165.861 208.66C165.733 209.065 165.668 209.492 165.668 209.94ZM164.165 216.852C163.589 216.852 163.098 216.649 162.693 216.244C162.287 215.839 162.084 215.348 162.084 214.772C162.084 214.196 162.287 213.705 162.693 213.3C163.098 212.895 163.589 212.692 164.165 212.692C164.762 212.692 165.253 212.895 165.637 213.3C166.042 213.705 166.245 214.196 166.245 214.772C166.245 215.348 166.042 215.839 165.637 216.244C165.253 216.649 164.762 216.852 164.165 216.852Z" fill="white"/>
<path d="M46.8672 184.923C51.0987 181.256 56.1446 178.32 60.7032 175.094C70.0712 168.465 79.4625 160.824 90.1736 156.432C90.9222 156.125 95.2345 154.574 96.0499 155.506C96.5548 156.083 95.6772 157.682 95.4623 158.124C94.1602 160.805 92.5194 163.336 91.1352 165.977C86.543 174.739 81.5746 183.661 78.2608 193.008C77.8113 194.275 76.9772 196.194 77.0855 197.602C77.1667 198.658 79.2135 197.199 80.1127 196.64C90.4051 190.242 100.037 182.739 109.957 175.788C113.896 173.028 117.919 170.131 122.6 168.773C124.486 168.225 123.8 171.276 123.651 172.352C123.275 175.063 122.19 177.508 122.19 180.294C122.19 183.219 129.149 177.087 129.812 176.625C135.653 172.551 142.165 168.687 149.471 168.327C152.869 168.16 151.958 171.451 150.788 173.563C149.486 175.913 150.667 175.448 152.89 174.773C157.859 173.264 163.303 171.42 168.56 171.461C170.498 171.477 170.411 172.476 171.231 173.705" stroke="#A8FD32" stroke-width="3" stroke-linecap="round"/>
<path d="M260.914 158.416C260.914 159.866 261.153 161.008 261.887 162.309C264.758 167.395 268.681 171.827 271.712 176.814C275.357 182.811 279.572 189.419 282.186 195.954" stroke="#A8FD32" stroke-width="3" stroke-linecap="round"/>
<path d="M265.25 147.865C270.134 147.566 274.809 143.275 278.328 140.305C280.641 138.353 282.816 136.07 284.33 133.429C284.776 132.651 285.298 131.297 284.825 130.386C284.493 129.747 282.964 130.07 282.456 130.175C280.724 130.535 279.353 131.702 278.149 132.934C276.606 134.513 275.381 136.35 274.621 138.431C273.552 141.36 273.77 144.506 273.779 147.57C273.786 149.789 273.234 154.415 275.253 156.12C276.712 157.352 278.86 154.382 279.518 153.467C280.699 151.824 281.099 149.796 279.181 148.56C277.774 147.653 276.349 147.486 274.727 147.486" stroke="#A8FD32" stroke-width="3" stroke-linecap="round"/>
</g>
<defs>
<clipPath id="clip0_502_17083">
<rect width="380" height="260" rx="21" fill="white"/>
</clipPath>
</defs>
</svg>
