<svg width="380" height="260" viewBox="0 0 380 260" fill="none" xmlns="http://www.w3.org/2000/svg">
<rect width="380" height="260" rx="21" fill="#FFC700"/>
<path d="M60 58.3158V118.316C60 120.496 61.7673 122.263 63.9474 122.263H146.053C148.233 122.263 150 120.496 150 118.316V63.0526C150 60.8726 148.233 59.1053 146.053 59.1053H91.9737L89.6493 53.8754C89.1424 52.7349 88.0115 52 86.7636 52H66.3158C62.8277 52 60 54.8277 60 58.3158Z" fill="white" stroke="black" stroke-width="0.88"/>
<rect x="60" y="65.4209" width="90" height="56.8421" rx="3.94737" fill="white" stroke="black" stroke-width="0.88"/>
<path d="M61.7011 140.743C60.7663 140.743 59.9958 140.436 59.3895 139.821C58.7832 139.198 58.48 138.406 58.48 137.446C58.48 136.36 58.6358 135.531 58.9474 134.958C59.2674 134.377 59.9158 133.851 60.8926 133.379C60.9432 133.354 61.0021 133.324 61.0695 133.291C61.1453 133.257 61.2337 133.219 61.3347 133.177C61.4442 133.126 61.5368 133.084 61.6126 133.051L62.2947 132.748C62.9684 132.411 63.3263 132.006 63.3684 131.535L64.2526 132.04C64.1937 132.335 64.0968 132.571 63.9621 132.748C63.9537 132.764 63.9284 132.802 63.8863 132.861C63.8442 132.912 63.8147 132.95 63.7979 132.975C63.7811 132.992 63.7516 133.021 63.7095 133.063C63.6758 133.097 63.6379 133.131 63.5958 133.164C63.5621 133.198 63.5158 133.232 63.4568 133.265C63.1453 133.459 62.9221 133.585 62.7874 133.644C62.7368 133.67 62.6821 133.695 62.6232 133.72C62.5726 133.745 62.5305 133.766 62.4968 133.783C62.4632 133.8 62.4379 133.813 62.4211 133.821L62.0042 133.998L61.6 134.162C61.0358 134.406 60.6189 134.655 60.3495 134.908C60.08 135.16 59.8863 135.48 59.7684 135.868C60.0295 135.548 60.3579 135.303 60.7537 135.135C61.1579 134.966 61.5705 134.882 61.9916 134.882C62.7916 134.882 63.4611 135.152 64 135.691C64.5558 136.238 64.8337 136.933 64.8337 137.775C64.8337 138.634 64.5389 139.345 63.9495 139.91C63.3516 140.465 62.6021 140.743 61.7011 140.743ZM63.7347 137.775C63.7347 137.211 63.5495 136.752 63.1789 136.398C62.8168 136.036 62.3368 135.855 61.7389 135.855C61.2084 135.855 60.72 136.028 60.2737 136.373C59.8442 136.718 59.6295 137.164 59.6295 137.712C59.6295 138.284 59.8274 138.756 60.2232 139.126C60.6189 139.497 61.1116 139.682 61.7011 139.682C62.2989 139.682 62.7832 139.501 63.1537 139.139C63.5411 138.777 63.7347 138.322 63.7347 137.775ZM71.6848 137.926H66.3922C66.5017 138.482 66.7585 138.92 67.1627 139.24C67.5669 139.552 68.0722 139.708 68.6785 139.708C69.5122 139.708 70.1185 139.4 70.4975 138.785L71.4322 139.316C70.809 140.268 69.8827 140.743 68.6533 140.743C67.6596 140.743 66.8427 140.432 66.2027 139.809C65.5796 139.169 65.268 138.373 65.268 137.421C65.268 136.461 65.5754 135.67 66.1901 135.046C66.8048 134.415 67.6006 134.099 68.5775 134.099C69.5038 134.099 70.2575 134.428 70.8385 135.084C71.428 135.724 71.7227 136.508 71.7227 137.434C71.7227 137.594 71.7101 137.758 71.6848 137.926ZM68.5775 135.135C67.9964 135.135 67.508 135.299 67.1122 135.628C66.7248 135.956 66.4848 136.402 66.3922 136.966H70.6112C70.5185 136.385 70.2869 135.935 69.9164 135.615C69.5459 135.295 69.0996 135.135 68.5775 135.135ZM75.8819 137.345C76.5808 137.64 76.9303 138.141 76.9303 138.849C76.9303 139.396 76.7156 139.851 76.2861 140.213C75.8566 140.566 75.2629 140.743 74.505 140.743C73.2419 140.743 72.3956 140.238 71.9661 139.228L72.8882 138.684C73.124 139.375 73.6671 139.72 74.5177 139.72C74.9303 139.72 75.2545 139.632 75.4903 139.455C75.7261 139.278 75.844 139.042 75.844 138.748C75.844 138.495 75.7471 138.289 75.5535 138.129C75.3682 137.969 75.1156 137.889 74.7956 137.889H73.8735V136.891H74.5556C74.8756 136.891 75.124 136.815 75.3008 136.663C75.4777 136.503 75.5661 136.289 75.5661 136.019C75.5661 135.741 75.4608 135.522 75.2503 135.362C75.0398 135.194 74.7577 135.11 74.404 135.11C73.6966 135.11 73.2166 135.409 72.964 136.006L72.0671 135.489C72.5135 134.562 73.2924 134.099 74.404 134.099C75.0777 134.099 75.6166 134.276 76.0208 134.63C76.4335 134.975 76.6398 135.409 76.6398 135.931C76.6398 136.571 76.3871 137.042 75.8819 137.345ZM83.3884 140.743C82.4537 140.743 81.6831 140.436 81.0768 139.821C80.4705 139.198 80.1673 138.406 80.1673 137.446C80.1673 136.36 80.3231 135.531 80.6347 134.958C80.9547 134.377 81.6031 133.851 82.58 133.379C82.6305 133.354 82.6894 133.324 82.7568 133.291C82.8326 133.257 82.921 133.219 83.0221 133.177C83.1315 133.126 83.2242 133.084 83.3 133.051L83.9821 132.748C84.6558 132.411 85.0137 132.006 85.0558 131.535L85.94 132.04C85.881 132.335 85.7842 132.571 85.6494 132.748C85.641 132.764 85.6158 132.802 85.5737 132.861C85.5315 132.912 85.5021 132.95 85.4852 132.975C85.4684 132.992 85.4389 133.021 85.3968 133.063C85.3631 133.097 85.3252 133.131 85.2831 133.164C85.2494 133.198 85.2031 133.232 85.1442 133.265C84.8326 133.459 84.6094 133.585 84.4747 133.644C84.4242 133.67 84.3694 133.695 84.3105 133.72C84.26 133.745 84.2179 133.766 84.1842 133.783C84.1505 133.8 84.1252 133.813 84.1084 133.821L83.6915 133.998L83.2873 134.162C82.7231 134.406 82.3063 134.655 82.0368 134.908C81.7673 135.16 81.5737 135.48 81.4558 135.868C81.7168 135.548 82.0452 135.303 82.441 135.135C82.8452 134.966 83.2579 134.882 83.6789 134.882C84.4789 134.882 85.1484 135.152 85.6873 135.691C86.2431 136.238 86.521 136.933 86.521 137.775C86.521 138.634 86.2263 139.345 85.6368 139.91C85.0389 140.465 84.2894 140.743 83.3884 140.743ZM85.4221 137.775C85.4221 137.211 85.2368 136.752 84.8663 136.398C84.5042 136.036 84.0242 135.855 83.4263 135.855C82.8958 135.855 82.4073 136.028 81.961 136.373C81.5315 136.718 81.3168 137.164 81.3168 137.712C81.3168 138.284 81.5147 138.756 81.9105 139.126C82.3063 139.497 82.7989 139.682 83.3884 139.682C83.9863 139.682 84.4705 139.501 84.841 139.139C85.2284 138.777 85.4221 138.322 85.4221 137.775ZM92.829 134.099C93.7553 134.099 94.5385 134.419 95.1785 135.059C95.8269 135.708 96.1511 136.495 96.1511 137.421C96.1511 138.348 95.8269 139.135 95.1785 139.783C94.5385 140.423 93.7553 140.743 92.829 140.743C91.9953 140.743 91.2753 140.478 90.669 139.948C90.0543 139.417 89.6922 138.748 89.5827 137.939H88.408V140.579H87.309V134.263H88.408V136.891H89.5827C89.7006 136.082 90.0627 135.417 90.669 134.895C91.2922 134.364 92.0122 134.099 92.829 134.099ZM92.829 139.67C93.4522 139.67 93.9785 139.455 94.408 139.025C94.8374 138.596 95.0522 138.061 95.0522 137.421C95.0522 136.781 94.8374 136.246 94.408 135.817C93.9785 135.388 93.4522 135.173 92.829 135.173C92.1974 135.173 91.6669 135.388 91.2374 135.817C90.808 136.246 90.5932 136.781 90.5932 137.421C90.5932 138.061 90.808 138.596 91.2374 139.025C91.6669 139.455 92.1974 139.67 92.829 139.67ZM100.569 134.099C101.453 134.099 102.206 134.423 102.83 135.072C103.453 135.72 103.764 136.503 103.764 137.421C103.764 138.348 103.453 139.135 102.83 139.783C102.215 140.423 101.461 140.743 100.569 140.743C99.5243 140.743 98.7285 140.326 98.1812 139.493V143.105H97.0822V134.263H98.1812V135.35C98.7285 134.516 99.5243 134.099 100.569 134.099ZM100.43 139.682C101.061 139.682 101.592 139.468 102.021 139.038C102.451 138.592 102.665 138.053 102.665 137.421C102.665 136.781 102.451 136.246 102.021 135.817C101.592 135.379 101.061 135.16 100.43 135.16C99.7896 135.16 99.2548 135.379 98.8254 135.817C98.3959 136.246 98.1812 136.781 98.1812 137.421C98.1812 138.053 98.3959 138.592 98.8254 139.038C99.2548 139.468 99.7896 139.682 100.43 139.682ZM110.027 139.783C109.387 140.423 108.6 140.743 107.665 140.743C106.73 140.743 105.943 140.423 105.303 139.783C104.663 139.143 104.343 138.356 104.343 137.421C104.343 136.486 104.663 135.699 105.303 135.059C105.943 134.419 106.73 134.099 107.665 134.099C108.6 134.099 109.387 134.419 110.027 135.059C110.676 135.708 111 136.495 111 137.421C111 138.348 110.676 139.135 110.027 139.783ZM107.665 139.67C108.297 139.67 108.827 139.455 109.257 139.025C109.686 138.596 109.901 138.061 109.901 137.421C109.901 136.781 109.686 136.246 109.257 135.817C108.827 135.388 108.297 135.173 107.665 135.173C107.042 135.173 106.516 135.388 106.086 135.817C105.657 136.246 105.442 136.781 105.442 137.421C105.442 138.061 105.657 138.596 106.086 139.025C106.516 139.455 107.042 139.67 107.665 139.67ZM114.14 137.32L117.26 140.579H115.895L113.015 137.585V140.579H111.916V134.263H113.015V137.055L115.744 134.263H117.159L114.14 137.32ZM121.389 134.099C122.273 134.099 123.027 134.423 123.65 135.072C124.273 135.72 124.585 136.503 124.585 137.421C124.585 138.348 124.273 139.135 123.65 139.783C123.035 140.423 122.282 140.743 121.389 140.743C120.345 140.743 119.549 140.326 119.002 139.493V143.105H117.903V134.263H119.002V135.35C119.549 134.516 120.345 134.099 121.389 134.099ZM121.25 139.682C121.882 139.682 122.412 139.468 122.842 139.038C123.271 138.592 123.486 138.053 123.486 137.421C123.486 136.781 123.271 136.246 122.842 135.817C122.412 135.379 121.882 135.16 121.25 135.16C120.61 135.16 120.075 135.379 119.646 135.817C119.216 136.246 119.002 136.781 119.002 137.421C119.002 138.053 119.216 138.592 119.646 139.038C120.075 139.468 120.61 139.682 121.25 139.682ZM130.747 135.35V134.263H131.845V140.579H130.747V139.493C130.208 140.326 129.412 140.743 128.359 140.743C127.467 140.743 126.713 140.423 126.098 139.783C125.475 139.135 125.163 138.348 125.163 137.421C125.163 136.503 125.475 135.72 126.098 135.072C126.721 134.423 127.475 134.099 128.359 134.099C129.412 134.099 130.208 134.516 130.747 135.35ZM128.498 139.682C129.138 139.682 129.673 139.468 130.102 139.038C130.532 138.592 130.747 138.053 130.747 137.421C130.747 136.781 130.532 136.246 130.102 135.817C129.673 135.379 129.138 135.16 128.498 135.16C127.867 135.16 127.336 135.379 126.907 135.817C126.477 136.246 126.262 136.781 126.262 137.421C126.262 138.053 126.477 138.592 126.907 139.038C127.336 139.468 127.867 139.682 128.498 139.682ZM132.424 134.263H137.83V135.324H135.683V140.579H134.584V135.324H132.424V134.263ZM139.501 138.697L143 134.263H143.884V140.579H142.798V136.145L139.299 140.579H138.415V134.263H139.501V138.697ZM146.264 138.697L149.763 134.263H150.647V140.579H149.561V136.145L146.062 140.579H145.178V134.263H146.264V138.697Z" fill="#1C1C1C"/>
<path d="M268.5 43.8246V99.1579C268.5 101.168 270.13 102.798 272.14 102.798H347.86C349.87 102.798 351.5 101.168 351.5 99.1579V48.193C351.5 46.1825 349.87 44.5526 347.86 44.5526H297.987L295.843 39.7295C295.376 38.6778 294.333 38 293.182 38H274.325C271.108 38 268.5 40.6077 268.5 43.8246Z" fill="white" stroke="black" stroke-width="0.9"/>
<rect x="268.5" y="50.377" width="83" height="52.4211" rx="3.64035" fill="white" stroke="black" stroke-width="0.9"/>
<path d="M284.185 119.774C283.323 119.774 282.612 119.491 282.053 118.924C281.494 118.349 281.215 117.619 281.215 116.734C281.215 115.732 281.358 114.967 281.646 114.439C281.941 113.903 282.539 113.418 283.439 112.983C283.486 112.96 283.54 112.933 283.603 112.902C283.672 112.87 283.754 112.835 283.847 112.797C283.948 112.75 284.034 112.711 284.103 112.68L284.733 112.401C285.354 112.09 285.684 111.717 285.723 111.282L286.538 111.748C286.484 112.02 286.394 112.238 286.27 112.401C286.262 112.416 286.239 112.451 286.2 112.505C286.162 112.552 286.134 112.587 286.119 112.61C286.103 112.626 286.076 112.653 286.037 112.692C286.006 112.723 285.971 112.754 285.932 112.785C285.901 112.816 285.859 112.847 285.804 112.878C285.517 113.057 285.311 113.173 285.187 113.228C285.14 113.251 285.09 113.274 285.035 113.298C284.989 113.321 284.95 113.34 284.919 113.356C284.888 113.371 284.865 113.383 284.849 113.391L284.465 113.554L284.092 113.705C283.572 113.931 283.187 114.16 282.939 114.393C282.69 114.626 282.511 114.921 282.403 115.278C282.643 114.983 282.946 114.758 283.311 114.602C283.684 114.447 284.065 114.369 284.453 114.369C285.191 114.369 285.808 114.618 286.305 115.115C286.818 115.62 287.074 116.26 287.074 117.037C287.074 117.829 286.802 118.485 286.259 119.006C285.707 119.518 285.016 119.774 284.185 119.774ZM286.061 117.037C286.061 116.517 285.89 116.093 285.548 115.767C285.214 115.433 284.771 115.266 284.22 115.266C283.731 115.266 283.28 115.425 282.869 115.744C282.473 116.062 282.275 116.474 282.275 116.979C282.275 117.507 282.457 117.942 282.822 118.283C283.187 118.625 283.641 118.796 284.185 118.796C284.736 118.796 285.183 118.629 285.525 118.295C285.882 117.961 286.061 117.542 286.061 117.037ZM293.392 117.177H288.511C288.612 117.689 288.849 118.093 289.222 118.388C289.595 118.676 290.061 118.819 290.62 118.819C291.389 118.819 291.948 118.536 292.297 117.969L293.159 118.458C292.585 119.336 291.73 119.774 290.597 119.774C289.68 119.774 288.927 119.487 288.337 118.912C287.762 118.322 287.475 117.588 287.475 116.711C287.475 115.825 287.758 115.095 288.325 114.521C288.892 113.938 289.626 113.647 290.527 113.647C291.381 113.647 292.076 113.95 292.612 114.556C293.155 115.146 293.427 115.868 293.427 116.722C293.427 116.87 293.416 117.021 293.392 117.177ZM290.527 114.602C289.991 114.602 289.54 114.754 289.175 115.057C288.818 115.359 288.597 115.771 288.511 116.291H292.402C292.317 115.756 292.103 115.34 291.761 115.045C291.42 114.75 291.008 114.602 290.527 114.602ZM297.263 116.641C297.907 116.913 298.23 117.375 298.23 118.027C298.23 118.532 298.032 118.951 297.636 119.285C297.24 119.611 296.692 119.774 295.993 119.774C294.828 119.774 294.048 119.309 293.652 118.377L294.502 117.876C294.72 118.512 295.22 118.831 296.005 118.831C296.385 118.831 296.684 118.749 296.902 118.586C297.119 118.423 297.228 118.206 297.228 117.934C297.228 117.701 297.139 117.511 296.96 117.363C296.789 117.216 296.556 117.142 296.261 117.142H295.411V116.222H296.04C296.335 116.222 296.564 116.152 296.727 116.012C296.89 115.864 296.972 115.666 296.972 115.418C296.972 115.161 296.875 114.96 296.68 114.812C296.486 114.657 296.226 114.579 295.9 114.579C295.248 114.579 294.805 114.855 294.572 115.406L293.745 114.928C294.156 114.074 294.875 113.647 295.9 113.647C296.521 113.647 297.018 113.81 297.391 114.136C297.772 114.455 297.962 114.855 297.962 115.336C297.962 115.926 297.729 116.361 297.263 116.641ZM306.282 113.798H307.366V119.623H306.376V115.394L304.523 118.377H304.395L302.543 115.394V119.623H301.541V113.798H302.625L304.454 116.746L306.282 113.798ZM309.565 117.887L312.792 113.798H313.608V119.623H312.606V115.534L309.379 119.623H308.563V113.798H309.565V117.887ZM316.851 116.618L319.728 119.623H318.47L315.814 116.862V119.623H314.801V113.798H315.814V116.373L318.33 113.798H319.635L316.851 116.618ZM323.537 113.647C324.352 113.647 325.047 113.946 325.622 114.544C326.196 115.142 326.484 115.864 326.484 116.711C326.484 117.565 326.196 118.291 325.622 118.889C325.055 119.479 324.36 119.774 323.537 119.774C322.574 119.774 321.84 119.39 321.335 118.621V121.953H320.321V113.798H321.335V114.8C321.84 114.031 322.574 113.647 323.537 113.647ZM323.408 118.796C323.991 118.796 324.48 118.598 324.876 118.202C325.272 117.79 325.47 117.293 325.47 116.711C325.47 116.121 325.272 115.627 324.876 115.231C324.48 114.827 323.991 114.626 323.408 114.626C322.818 114.626 322.325 114.827 321.929 115.231C321.533 115.627 321.335 116.121 321.335 116.711C321.335 117.293 321.533 117.79 321.929 118.202C322.325 118.598 322.818 118.796 323.408 118.796ZM332.26 118.889C331.669 119.479 330.943 119.774 330.081 119.774C329.219 119.774 328.493 119.479 327.903 118.889C327.313 118.299 327.017 117.573 327.017 116.711C327.017 115.849 327.313 115.123 327.903 114.532C328.493 113.942 329.219 113.647 330.081 113.647C330.943 113.647 331.669 113.942 332.26 114.532C332.858 115.13 333.156 115.856 333.156 116.711C333.156 117.565 332.858 118.291 332.26 118.889ZM330.081 118.784C330.664 118.784 331.153 118.586 331.549 118.19C331.945 117.794 332.143 117.301 332.143 116.711C332.143 116.121 331.945 115.627 331.549 115.231C331.153 114.835 330.664 114.637 330.081 114.637C329.506 114.637 329.021 114.835 328.625 115.231C328.229 115.627 328.031 116.121 328.031 116.711C328.031 117.301 328.229 117.794 328.625 118.19C329.021 118.586 329.506 118.784 330.081 118.784ZM338.359 116.536H334.107V115.558H338.359V116.536ZM279.523 129.798H280.606V135.623H279.616V131.394L277.764 134.377H277.636L275.784 131.394V135.623H274.782V129.798H275.865L277.694 132.746L279.523 129.798ZM287.396 133.177H282.515C282.615 133.689 282.852 134.093 283.225 134.388C283.598 134.676 284.064 134.819 284.623 134.819C285.392 134.819 285.951 134.536 286.3 133.969L287.163 134.458C286.588 135.336 285.734 135.774 284.6 135.774C283.683 135.774 282.93 135.487 282.34 134.912C281.765 134.322 281.478 133.588 281.478 132.711C281.478 131.825 281.761 131.095 282.328 130.521C282.895 129.938 283.629 129.647 284.53 129.647C285.384 129.647 286.079 129.95 286.615 130.556C287.159 131.146 287.43 131.868 287.43 132.722C287.43 132.87 287.419 133.021 287.396 133.177ZM284.53 130.602C283.994 130.602 283.544 130.754 283.179 131.057C282.821 131.359 282.6 131.771 282.515 132.291H286.405C286.32 131.756 286.106 131.34 285.765 131.045C285.423 130.75 285.011 130.602 284.53 130.602ZM292.277 132.222V129.798H293.29V135.623H292.277V133.188H289.259V135.623H288.246V129.798H289.259V132.222H292.277ZM300.075 133.177H295.194C295.295 133.689 295.532 134.093 295.904 134.388C296.277 134.676 296.743 134.819 297.302 134.819C298.071 134.819 298.63 134.536 298.98 133.969L299.842 134.458C299.267 135.336 298.413 135.774 297.279 135.774C296.363 135.774 295.609 135.487 295.019 134.912C294.444 134.322 294.157 133.588 294.157 132.711C294.157 131.825 294.441 131.095 295.007 130.521C295.574 129.938 296.308 129.647 297.209 129.647C298.063 129.647 298.759 129.95 299.294 130.556C299.838 131.146 300.11 131.868 300.11 132.722C300.11 132.87 300.098 133.021 300.075 133.177ZM297.209 130.602C296.673 130.602 296.223 130.754 295.858 131.057C295.501 131.359 295.279 131.771 295.194 132.291H299.085C298.999 131.756 298.786 131.34 298.444 131.045C298.102 130.75 297.691 130.602 297.209 130.602ZM305.707 129.798V134.656H306.511V137.184H305.509V135.623H301.14V137.184H300.139V134.656H300.849C301.222 134.144 301.408 133.425 301.408 132.501V129.798H305.707ZM302.003 134.656H304.705V130.742H302.41V132.501C302.41 133.355 302.274 134.074 302.003 134.656ZM311.972 132.618L314.418 135.623H313.23L311.051 132.862V135.623H310.049V132.862L307.871 135.623H306.694L309.129 132.618L306.811 129.798H307.988L310.049 132.373V129.798H311.051V132.373L313.113 129.798H314.301L311.972 132.618ZM319.779 129.798H320.863V135.623H319.872V131.394L318.02 134.377H317.892L316.04 131.394V135.623H315.038V129.798H316.121L317.95 132.746L319.779 129.798ZM327.652 133.177H322.771C322.872 133.689 323.109 134.093 323.481 134.388C323.854 134.676 324.32 134.819 324.879 134.819C325.648 134.819 326.207 134.536 326.557 133.969L327.419 134.458C326.844 135.336 325.99 135.774 324.856 135.774C323.94 135.774 323.186 135.487 322.596 134.912C322.021 134.322 321.734 133.588 321.734 132.711C321.734 131.825 322.018 131.095 322.585 130.521C323.151 129.938 323.885 129.647 324.786 129.647C325.64 129.647 326.336 129.95 326.871 130.556C327.415 131.146 327.687 131.868 327.687 132.722C327.687 132.87 327.675 133.021 327.652 133.177ZM324.786 130.602C324.25 130.602 323.8 130.754 323.435 131.057C323.078 131.359 322.856 131.771 322.771 132.291H326.662C326.576 131.756 326.363 131.34 326.021 131.045C325.679 130.75 325.268 130.602 324.786 130.602ZM332.533 132.222V129.798H333.546V135.623H332.533V133.188H329.516V135.623H328.502V129.798H329.516V132.222H332.533ZM334.087 129.798H339.073V130.777H337.093V135.623H336.079V130.777H334.087V129.798ZM344.207 130.8V129.798H345.22V135.623H344.207V134.621C343.71 135.39 342.976 135.774 342.005 135.774C341.182 135.774 340.487 135.479 339.92 134.889C339.345 134.291 339.058 133.565 339.058 132.711C339.058 131.864 339.345 131.142 339.92 130.544C340.495 129.946 341.19 129.647 342.005 129.647C342.976 129.647 343.71 130.031 344.207 130.8ZM342.133 134.796C342.724 134.796 343.217 134.598 343.613 134.202C344.009 133.79 344.207 133.293 344.207 132.711C344.207 132.121 344.009 131.627 343.613 131.231C343.217 130.827 342.724 130.626 342.133 130.626C341.551 130.626 341.062 130.827 340.666 131.231C340.27 131.627 340.072 132.121 340.072 132.711C340.072 133.293 340.27 133.79 340.666 134.202C341.062 134.598 341.551 134.796 342.133 134.796Z" fill="#1C1C1C"/>
<path d="M141.5 109V185C141.5 187.761 143.739 190 146.5 190H250.5C253.261 190 255.5 187.761 255.5 185V115C255.5 112.239 253.261 110 250.5 110H182L179.056 103.375C178.414 101.931 176.981 101 175.401 101H149.5C145.082 101 141.5 104.582 141.5 109Z" fill="white" stroke="black" stroke-width="1.1"/>
<rect x="141.5" y="118" width="114" height="72" rx="5" fill="white" stroke="black" stroke-width="1.1"/>
<path d="M137.816 213.208C136.611 213.208 135.608 212.808 134.808 212.008C134.008 211.197 133.608 210.195 133.608 209C133.608 207.805 134.008 206.808 134.808 206.008C135.608 205.197 136.611 204.792 137.816 204.792C138.605 204.792 139.315 204.984 139.944 205.368C140.573 205.741 141.043 206.248 141.352 206.888L140.184 207.56C139.981 207.133 139.667 206.792 139.24 206.536C138.824 206.28 138.349 206.152 137.816 206.152C137.016 206.152 136.344 206.424 135.8 206.968C135.267 207.523 135 208.2 135 209C135 209.789 135.267 210.461 135.8 211.016C136.344 211.56 137.016 211.832 137.816 211.832C138.349 211.832 138.829 211.709 139.256 211.464C139.683 211.208 140.008 210.867 140.232 210.44L141.416 211.128C141.064 211.768 140.568 212.275 139.928 212.648C139.288 213.021 138.584 213.208 137.816 213.208ZM147.654 208.888C148.475 209.229 148.886 209.848 148.886 210.744C148.886 211.427 148.662 211.976 148.214 212.392C147.766 212.797 147.137 213 146.326 213H142.326V205H146.006C146.795 205 147.409 205.197 147.846 205.592C148.294 205.987 148.518 206.515 148.518 207.176C148.518 207.944 148.23 208.515 147.654 208.888ZM145.942 206.248H143.686V208.344H145.942C146.753 208.344 147.158 207.987 147.158 207.272C147.158 206.589 146.753 206.248 145.942 206.248ZM143.686 211.736H146.246C146.651 211.736 146.961 211.64 147.174 211.448C147.398 211.256 147.51 210.984 147.51 210.632C147.51 210.301 147.398 210.045 147.174 209.864C146.961 209.672 146.651 209.576 146.246 209.576H143.686V211.736ZM156.661 211.992C155.85 212.803 154.853 213.208 153.669 213.208C152.485 213.208 151.487 212.803 150.677 211.992C149.866 211.181 149.461 210.184 149.461 209C149.461 207.816 149.866 206.819 150.677 206.008C151.487 205.197 152.485 204.792 153.669 204.792C154.853 204.792 155.85 205.197 156.661 206.008C157.482 206.829 157.892 207.827 157.892 209C157.892 210.173 157.482 211.171 156.661 211.992ZM153.669 211.848C154.469 211.848 155.141 211.576 155.685 211.032C156.229 210.488 156.501 209.811 156.501 209C156.501 208.189 156.229 207.512 155.685 206.968C155.141 206.424 154.469 206.152 153.669 206.152C152.879 206.152 152.213 206.424 151.669 206.968C151.125 207.512 150.852 208.189 150.852 209C150.852 209.811 151.125 210.488 151.669 211.032C152.213 211.576 152.879 211.848 153.669 211.848ZM162.685 213.208C161.501 213.208 160.525 212.819 159.757 212.04C158.989 211.251 158.605 210.248 158.605 209.032C158.605 207.656 158.803 206.605 159.197 205.88C159.603 205.144 160.424 204.477 161.661 203.88C161.725 203.848 161.8 203.811 161.885 203.768C161.981 203.725 162.093 203.677 162.221 203.624C162.36 203.56 162.477 203.507 162.573 203.464L163.437 203.08C164.291 202.653 164.744 202.141 164.797 201.544L165.918 202.184C165.843 202.557 165.72 202.856 165.549 203.08C165.539 203.101 165.507 203.149 165.453 203.224C165.4 203.288 165.363 203.336 165.341 203.368C165.32 203.389 165.283 203.427 165.229 203.48C165.187 203.523 165.139 203.565 165.085 203.608C165.043 203.651 164.984 203.693 164.909 203.736C164.515 203.981 164.232 204.141 164.061 204.216C163.997 204.248 163.928 204.28 163.853 204.312C163.789 204.344 163.736 204.371 163.693 204.392C163.651 204.413 163.619 204.429 163.597 204.44L163.069 204.664L162.557 204.872C161.843 205.181 161.315 205.496 160.973 205.816C160.632 206.136 160.387 206.541 160.237 207.032C160.568 206.627 160.984 206.317 161.485 206.104C161.997 205.891 162.52 205.784 163.053 205.784C164.067 205.784 164.915 206.125 165.597 206.808C166.301 207.501 166.653 208.381 166.653 209.448C166.653 210.536 166.28 211.437 165.533 212.152C164.776 212.856 163.827 213.208 162.685 213.208ZM165.261 209.448C165.261 208.733 165.027 208.152 164.557 207.704C164.099 207.245 163.491 207.016 162.733 207.016C162.061 207.016 161.443 207.235 160.877 207.672C160.333 208.109 160.061 208.675 160.061 209.368C160.061 210.093 160.312 210.691 160.813 211.16C161.315 211.629 161.939 211.864 162.685 211.864C163.443 211.864 164.056 211.635 164.525 211.176C165.016 210.717 165.261 210.141 165.261 209.448ZM174.404 211.992C173.593 212.803 172.596 213.208 171.412 213.208C170.228 213.208 169.23 212.803 168.42 211.992C167.609 211.181 167.204 210.184 167.204 209C167.204 207.816 167.609 206.819 168.42 206.008C169.23 205.197 170.228 204.792 171.412 204.792C172.596 204.792 173.593 205.197 174.404 206.008C175.225 206.829 175.636 207.827 175.636 209C175.636 210.173 175.225 211.171 174.404 211.992ZM171.412 211.848C172.212 211.848 172.884 211.576 173.428 211.032C173.972 210.488 174.244 209.811 174.244 209C174.244 208.189 173.972 207.512 173.428 206.968C172.884 206.424 172.212 206.152 171.412 206.152C170.622 206.152 169.956 206.424 169.412 206.968C168.868 207.512 168.596 208.189 168.596 209C168.596 209.811 168.868 210.488 169.412 211.032C169.956 211.576 170.622 211.848 171.412 211.848ZM183.364 205V211.672H184.468V215.144H183.092V213H177.092V215.144H175.716V211.672H176.692C177.204 210.968 177.46 209.981 177.46 208.712V205H183.364ZM178.276 211.672H181.988V206.296H178.836V208.712C178.836 209.885 178.649 210.872 178.276 211.672ZM191.8 206.376V205H193.192V213H191.8V211.624C191.117 212.68 190.109 213.208 188.776 213.208C187.645 213.208 186.691 212.803 185.912 211.992C185.123 211.171 184.728 210.173 184.728 209C184.728 207.837 185.123 206.845 185.912 206.024C186.701 205.203 187.656 204.792 188.776 204.792C190.109 204.792 191.117 205.32 191.8 206.376ZM188.952 211.864C189.763 211.864 190.44 211.592 190.984 211.048C191.528 210.483 191.8 209.8 191.8 209C191.8 208.189 191.528 207.512 190.984 206.968C190.44 206.413 189.763 206.136 188.952 206.136C188.152 206.136 187.48 206.413 186.936 206.968C186.392 207.512 186.12 208.189 186.12 209C186.12 209.8 186.392 210.483 186.936 211.048C187.48 211.592 188.152 211.864 188.952 211.864ZM205.221 205V211.672H206.325V215.144H204.949V213H198.949V215.144H197.573V211.672H198.549C199.061 210.968 199.317 209.981 199.317 208.712V205H205.221ZM200.133 211.672H203.845V206.296H200.693V208.712C200.693 209.885 200.506 210.872 200.133 211.672ZM214.713 209.64H208.009C208.148 210.344 208.473 210.899 208.985 211.304C209.497 211.699 210.137 211.896 210.905 211.896C211.961 211.896 212.729 211.507 213.209 210.728L214.393 211.4C213.604 212.605 212.43 213.208 210.873 213.208C209.614 213.208 208.58 212.813 207.769 212.024C206.98 211.213 206.585 210.205 206.585 209C206.585 207.784 206.974 206.781 207.753 205.992C208.532 205.192 209.54 204.792 210.777 204.792C211.95 204.792 212.905 205.208 213.641 206.04C214.388 206.851 214.761 207.843 214.761 209.016C214.761 209.219 214.745 209.427 214.713 209.64ZM210.777 206.104C210.041 206.104 209.422 206.312 208.921 206.728C208.43 207.144 208.126 207.709 208.009 208.424H213.353C213.236 207.688 212.942 207.117 212.473 206.712C212.004 206.307 211.438 206.104 210.777 206.104ZM221.513 203.8H217.193V202.584H221.513V203.8ZM217.257 210.616L221.689 205H222.809V213H221.433V207.384L217.001 213H215.881V205H217.257V210.616ZM228.208 213.208C227.003 213.208 226 212.808 225.2 212.008C224.4 211.197 224 210.195 224 209C224 207.805 224.4 206.808 225.2 206.008C226 205.197 227.003 204.792 228.208 204.792C228.997 204.792 229.707 204.984 230.336 205.368C230.965 205.741 231.435 206.248 231.744 206.888L230.576 207.56C230.373 207.133 230.059 206.792 229.632 206.536C229.216 206.28 228.741 206.152 228.208 206.152C227.408 206.152 226.736 206.424 226.192 206.968C225.659 207.523 225.392 208.2 225.392 209C225.392 209.789 225.659 210.461 226.192 211.016C226.736 211.56 227.408 211.832 228.208 211.832C228.741 211.832 229.221 211.709 229.648 211.464C230.075 211.208 230.4 210.867 230.624 210.44L231.808 211.128C231.456 211.768 230.96 212.275 230.32 212.648C229.68 213.021 228.976 213.208 228.208 213.208ZM231.681 205H238.529V206.344H235.809V213H234.417V206.344H231.681V205ZM244.597 208.888C245.418 209.229 245.829 209.848 245.829 210.744C245.829 211.427 245.605 211.976 245.157 212.392C244.709 212.797 244.08 213 243.269 213H239.269V205H242.949C243.738 205 244.352 205.197 244.789 205.592C245.237 205.987 245.461 206.515 245.461 207.176C245.461 207.944 245.173 208.515 244.597 208.888ZM242.885 206.248H240.629V208.344H242.885C243.696 208.344 244.101 207.987 244.101 207.272C244.101 206.589 243.696 206.248 242.885 206.248ZM240.629 211.736H243.189C243.594 211.736 243.904 211.64 244.117 211.448C244.341 211.256 244.453 210.984 244.453 210.632C244.453 210.301 244.341 210.045 244.117 209.864C243.904 209.672 243.594 209.576 243.189 209.576H240.629V211.736ZM248.228 210.616L252.66 205H253.78V213H252.404V207.384L247.972 213H246.852V205H248.228V210.616ZM261.051 203.8H256.731V202.584H261.051V203.8ZM256.795 210.616L261.227 205H262.347V213H260.971V207.384L256.539 213H255.419V205H256.795V210.616Z" fill="#1C1C1C"/>
<rect x="222.727" y="144.4" width="2.59203" height="26.0667" fill="white"/>
<rect x="224.75" y="146.1" width="2.30403" height="23.8" fill="white"/>
<rect x="227.047" y="147.8" width="1.72802" height="20.4" fill="white"/>
<rect x="228.781" y="149.5" width="1.72802" height="17" fill="white"/>
<rect x="230.5" y="151.2" width="1.72802" height="15.3" fill="white"/>
<rect x="232.234" y="152.9" width="1.72802" height="17" fill="white"/>
<rect x="233.961" y="154.6" width="1.72802" height="18.7" fill="white"/>
<rect x="235.57" y="169.536" width="1.82143" height="4.25" fill="white"/>
<rect x="235.688" y="156.3" width="1.72802" height="7.08333" fill="white"/>
<rect x="237.414" y="158" width="1.72802" height="5.38333" fill="white"/>
<rect x="239.148" y="159.7" width="1.72802" height="3.68333" fill="white"/>
<rect x="240.008" y="161.4" width="1.72802" height="1.98333" fill="white"/>
<rect x="221" y="141" width="1.72802" height="30.6" fill="#1C1C1C"/>
<rect x="222.727" y="142.7" width="1.72802" height="1.7" fill="#1C1C1C"/>
<rect x="221" y="141" width="1.72802" height="1.7" fill="#1C1C1C"/>
<rect x="224.453" y="144.4" width="1.72802" height="1.7" fill="#1C1C1C"/>
<rect x="226.188" y="146.1" width="1.72802" height="1.7" fill="#1C1C1C"/>
<rect x="227.914" y="147.8" width="1.72802" height="1.7" fill="#1C1C1C"/>
<rect x="229.641" y="149.5" width="1.72802" height="1.7" fill="#1C1C1C"/>
<rect x="231.367" y="151.2" width="1.72802" height="1.7" fill="#1C1C1C"/>
<rect x="233.094" y="152.9" width="1.72802" height="1.7" fill="#1C1C1C"/>
<rect x="234.828" y="154.6" width="1.72802" height="1.7" fill="#1C1C1C"/>
<rect x="236.555" y="156.3" width="1.72802" height="1.7" fill="#1C1C1C"/>
<rect x="238.281" y="158" width="1.72802" height="1.7" fill="#1C1C1C"/>
<rect x="240.008" y="159.7" width="1.72802" height="1.7" fill="#1C1C1C"/>
<rect x="241.734" y="161.4" width="1.72802" height="1.7" fill="#1C1C1C"/>
<rect x="233.961" y="164.8" width="1.72802" height="1.7" fill="#1C1C1C"/>
<rect x="235.688" y="166.5" width="1.72802" height="1.7" fill="#1C1C1C"/>
<rect x="235.688" y="168.2" width="1.72802" height="1.7" fill="#1C1C1C"/>
<rect x="237.414" y="169.9" width="1.72802" height="1.7" fill="#1C1C1C"/>
<rect x="237.414" y="171.6" width="1.72802" height="1.7" fill="#1C1C1C"/>
<rect x="235.688" y="173.3" width="1.72802" height="1.7" fill="#1C1C1C"/>
<rect x="233.961" y="173.3" width="1.72802" height="1.7" fill="#1C1C1C"/>
<rect x="232.234" y="171.6" width="1.72802" height="1.7" fill="#1C1C1C"/>
<rect x="232.234" y="169.9" width="1.72802" height="1.7" fill="#1C1C1C"/>
<rect x="230.5" y="168.2" width="1.72802" height="1.7" fill="#1C1C1C"/>
<rect x="230.5" y="166.5" width="1.72802" height="1.7" fill="#1C1C1C"/>
<rect x="228.781" y="164.8" width="1.72802" height="1.7" fill="#1C1C1C"/>
<rect x="227.047" y="166.5" width="1.72802" height="1.7" fill="#1C1C1C"/>
<rect x="225.32" y="168.2" width="1.72802" height="1.7" fill="#1C1C1C"/>
<rect x="222.727" y="169.9" width="2.59203" height="1.7" fill="#1C1C1C"/>
<rect x="233.961" y="163.1" width="9.50412" height="1.7" fill="#1C1C1C"/>
</svg>
